<svg width="15" height="15" viewBox="0 0 15 15" fill="none" xmlns="http://www.w3.org/2000/svg">
<path d="M13.2606 0.298298C13.6582 -0.0993172 14.303 -0.0990864 14.7007 0.298298C15.0984 0.696029 15.0984 1.34072 14.7007 1.73845L8.94011 7.49908L14.7017 13.2607C15.0994 13.6584 15.0994 14.3041 14.7017 14.7019C14.3041 15.0993 13.6593 15.0992 13.2616 14.7019L7.49897 8.93924L1.73837 14.7019C1.34068 15.0994 0.695912 15.0994 0.298221 14.7019C-0.0994573 14.3042 -0.0993566 13.6594 0.298221 13.2617L6.05882 7.49908L0.298221 1.73845C-0.0991572 1.34075 -0.0992565 0.695941 0.298221 0.298298C0.69595 -0.0994327 1.34164 -0.0994327 1.73936 0.298298L7.49996 6.05892L13.2606 0.298298Z" fill="#64748B"/>
</svg>
