<svg width="41" height="51" viewBox="0 0 41 51" fill="none" xmlns="http://www.w3.org/2000/svg">
<path d="M23.626 44.1504C23.8068 47.08 21.9125 49.8296 18.9668 50.6191C16.021 51.4081 13.0046 49.9744 11.6963 47.3467L11.1514 46.251L23.5508 42.9297L23.626 44.1504ZM17.335 49.834C17.363 49.834 17.391 49.8335 17.419 49.833C17.391 49.8335 17.363 49.834 17.335 49.834ZM17.1299 49.8301C17.1355 49.8303 17.141 49.8308 17.1465 49.831C17.141 49.8308 17.1355 49.8303 17.1299 49.8301ZM16.8965 49.8164C16.9157 49.818 16.9349 49.8189 16.9541 49.8203C16.9349 49.8189 16.9157 49.818 16.8965 49.8164ZM17.7901 49.8144C17.8103 49.8127 17.8304 49.8106 17.8506 49.8086C17.8304 49.8106 17.8103 49.8127 17.7901 49.8144ZM16.6748 49.793C16.6979 49.7959 16.7211 49.7982 16.7442 49.8008C16.7211 49.7982 16.6979 49.7959 16.6748 49.793ZM16.4434 49.7578C16.4772 49.7636 16.511 49.7693 16.545 49.7744C16.511 49.7693 16.4772 49.7636 16.4434 49.7578ZM16.2276 49.7168C16.2655 49.7249 16.3037 49.7319 16.3418 49.7392C16.3037 49.7319 16.2655 49.7249 16.2276 49.7168ZM16.0342 49.6719C16.0524 49.6765 16.0707 49.6801 16.0889 49.6846C16.0707 49.6801 16.0524 49.6765 16.0342 49.6719ZM15.8116 49.6094C15.8346 49.6163 15.8577 49.6232 15.8809 49.6299C15.8577 49.6232 15.8346 49.6163 15.8116 49.6094ZM15.6153 49.5459C15.6293 49.5507 15.6432 49.5558 15.6573 49.5605C15.6432 49.5558 15.6293 49.5507 15.6153 49.5459ZM15.3819 49.4599C15.4156 49.4733 15.4495 49.4863 15.4834 49.499C15.4494 49.4863 15.4156 49.4733 15.3819 49.4599ZM15.1641 49.3672C15.204 49.3851 15.2439 49.4029 15.2842 49.4199C15.2439 49.4029 15.204 49.3851 15.1641 49.3672ZM14.9717 49.2764C15.0169 49.2989 15.0626 49.3205 15.1084 49.3418C15.0626 49.3205 15.0169 49.2989 14.9717 49.2764ZM14.794 49.1826C14.8207 49.1972 14.8471 49.2124 14.8741 49.2265C14.8471 49.2124 14.8207 49.1972 14.794 49.1826ZM14.5987 49.0713C14.6297 49.09 14.6611 49.1079 14.6924 49.126C14.6611 49.1079 14.6297 49.09 14.5987 49.0713ZM14.4112 48.9521C14.4439 48.9738 14.4766 48.9957 14.5098 49.0166C14.4766 48.9956 14.4439 48.9738 14.4112 48.9521ZM14.2588 48.8476C14.2758 48.8597 14.2925 48.8719 14.3096 48.8838C14.2925 48.8719 14.2758 48.8597 14.2588 48.8476ZM14.084 48.7178C14.0996 48.7299 14.1152 48.742 14.1309 48.7539C14.1152 48.742 14.0996 48.7299 14.084 48.7178ZM13.9161 48.582C13.9291 48.593 13.9419 48.6043 13.9551 48.6152C13.9419 48.6043 13.9291 48.593 13.9161 48.582ZM13.7334 48.4209C13.7553 48.4411 13.7767 48.4616 13.7989 48.4814C13.7767 48.4616 13.7553 48.4411 13.7334 48.4209ZM13.5723 48.2656C13.5944 48.2878 13.6163 48.3102 13.6387 48.332C13.6163 48.3102 13.5944 48.2878 13.5723 48.2656ZM13.4248 48.1103C13.4454 48.1328 13.4654 48.1557 13.4864 48.1777C13.4654 48.1557 13.4454 48.1328 13.4248 48.1103ZM22.3614 46.2217C22.2422 46.5752 22.0859 46.9146 21.8965 47.2344C21.9722 47.1065 22.0427 46.9756 22.1075 46.8418C22.14 46.7747 22.1715 46.7071 22.2012 46.6387C22.2604 46.5022 22.3137 46.363 22.3614 46.2217ZM11.0538 0.17966C13.8494 -0.5689 16.7225 1.08999 17.4717 3.88572C17.4821 3.92442 17.4885 3.96441 17.4981 4.00388C24.377 4.42631 30.5247 9.16477 32.4073 16.1904L34.3731 23.5303L34.4698 23.8672L34.5645 24.1621C35.0628 25.6317 35.9025 26.9669 37.0176 28.0556L39.4981 30.4795C42.2553 33.1714 41.035 37.8414 37.3135 38.8388L7.63969 46.79C3.91782 47.7866 0.526343 44.3528 1.56742 40.6435L2.5059 37.3027C2.985 35.596 2.99588 33.7912 2.53715 32.0791L0.565469 24.7217C-1.31671 17.6964 1.6373 10.5191 7.38285 6.71384C7.37147 6.67513 7.35799 6.63701 7.3477 6.59861C6.59864 3.80301 8.25817 0.928956 11.0538 0.17966ZM6.72953 45.9404C6.58016 45.9554 6.43245 45.9637 6.28617 45.9619C6.43246 45.9637 6.58015 45.9554 6.72953 45.9404ZM6.02836 45.9502C6.10884 45.9565 6.18986 45.9606 6.27152 45.9619C6.18986 45.9606 6.10883 45.9565 6.02836 45.9502ZM5.76176 45.9199C5.83247 45.9305 5.90382 45.9376 5.97563 45.9443C5.90382 45.9377 5.83246 45.9305 5.76176 45.9199ZM5.51469 45.875C5.58722 45.8907 5.66054 45.9035 5.73441 45.915C5.66054 45.9035 5.58722 45.8907 5.51469 45.875ZM5.27641 45.8154C5.33062 45.8308 5.38539 45.8443 5.44047 45.8574C5.38539 45.8444 5.33061 45.8308 5.27641 45.8154ZM5.03617 45.7383C5.07911 45.7535 5.12248 45.7675 5.16606 45.7812C5.12248 45.7675 5.07911 45.7535 5.03617 45.7383ZM4.80375 45.6474C4.84534 45.6653 4.88744 45.6818 4.92973 45.6982C4.88744 45.6818 4.84534 45.6653 4.80375 45.6474ZM4.57328 45.54C4.61353 45.5604 4.65436 45.5796 4.69535 45.5986C4.65436 45.5796 4.61353 45.5604 4.57328 45.54ZM4.34574 45.415C4.39289 45.4429 4.44096 45.4691 4.4893 45.4951C4.44096 45.4691 4.39289 45.4429 4.34574 45.415ZM4.15141 45.293C4.18798 45.3175 4.22533 45.3409 4.26273 45.3642C4.22533 45.3409 4.18798 45.3175 4.15141 45.293ZM3.93656 45.1377C3.97378 45.1664 4.01162 45.1942 4.04984 45.2217C4.01162 45.1942 3.97378 45.1664 3.93656 45.1377ZM3.74711 44.9824C3.78453 45.0151 3.82275 45.0468 3.86137 45.0781C3.82274 45.0468 3.78454 45.0151 3.74711 44.9824ZM3.56547 44.8135C3.59972 44.8473 3.63453 44.8805 3.66996 44.9131C3.63452 44.8805 3.59972 44.8473 3.56547 44.8135ZM22.6368 44.4424C22.6395 44.5956 22.6355 44.7481 22.625 44.8994C22.6355 44.7481 22.6395 44.5956 22.6368 44.4424ZM3.39652 44.6357C3.42699 44.6697 3.4577 44.7034 3.4893 44.7363C3.4577 44.7034 3.427 44.6697 3.39652 44.6357ZM3.23344 44.4424C3.26242 44.4791 3.29208 44.5151 3.3223 44.5508C3.29207 44.5151 3.26243 44.479 3.23344 44.4424ZM3.08305 44.2392C3.10925 44.2771 3.13566 44.3147 3.16313 44.3515C3.13565 44.3147 3.10926 44.2771 3.08305 44.2392ZM2.96 44.0508C2.97828 44.0806 2.99662 44.1103 3.01566 44.1396C2.99662 44.1103 2.97829 44.0806 2.96 44.0508ZM2.82816 43.8183C2.84739 43.855 2.86642 43.8917 2.88676 43.9277C2.86642 43.8917 2.8474 43.855 2.82816 43.8183ZM2.72953 43.6162C2.74436 43.6489 2.75876 43.6817 2.77445 43.7139C2.75876 43.6817 2.74437 43.6489 2.72953 43.6162ZM2.62699 43.3681C2.64019 43.4034 2.65285 43.4388 2.66703 43.4736C2.65285 43.4388 2.6402 43.4034 2.62699 43.3681ZM28.9473 17.1172C27.1032 10.235 20.0293 6.15045 13.1475 7.99412C6.26544 9.83829 2.18066 16.9128 4.02445 23.7949L5.99613 31.1523C6.58233 33.3401 6.60566 35.6382 6.0684 37.833L6.06645 37.8408L6.06449 37.8476L5.95805 38.2539L5.95609 38.2627L5.95316 38.2715L5.01469 41.6123C4.72434 42.649 5.67263 43.6084 6.71293 43.3301L36.3858 35.3789C37.4264 35.1001 37.7678 33.7945 36.9971 33.042L34.5147 30.6181C32.7861 28.9304 31.5442 26.8079 30.919 24.4746L28.9473 17.1172ZM36.6455 36.3447C36.7011 36.3298 36.7554 36.3131 36.8086 36.2949C36.7552 36.3132 36.7004 36.3298 36.6446 36.3447L10.5762 43.3301L36.6455 36.3447ZM2.55863 43.1709C2.56572 43.1934 2.57264 43.2159 2.58012 43.2383C2.57264 43.2159 2.56572 43.1934 2.55863 43.1709ZM2.48734 42.914C2.49386 42.9411 2.4998 42.9683 2.50688 42.9951C2.49979 42.9683 2.49386 42.9411 2.48734 42.914ZM2.43363 42.6504C2.43969 42.6863 2.44515 42.7222 2.45219 42.7578C2.44515 42.7222 2.43969 42.6863 2.43363 42.6504ZM2.40141 42.4199C2.40438 42.4476 2.40664 42.4754 2.4102 42.5029C2.40663 42.4754 2.40438 42.4476 2.40141 42.4199ZM2.38188 42.1406C2.38307 42.1749 2.38272 42.2091 2.3848 42.2431C2.38272 42.2091 2.38307 42.1749 2.38188 42.1406ZM3.96098 41.9931C3.96087 42.0443 3.96268 42.0951 3.96586 42.1455C3.96268 42.0951 3.96087 42.0443 3.96098 41.9931ZM2.3848 41.8056C2.38162 41.8681 2.37817 41.9303 2.37797 41.9922C2.37817 41.9302 2.38163 41.8681 2.3848 41.8056ZM3.96879 41.8066C3.96569 41.8449 3.96417 41.883 3.96293 41.9209C3.96417 41.883 3.96569 41.8449 3.96879 41.8066ZM2.3975 41.6269C2.39441 41.6589 2.39003 41.6908 2.38773 41.7226C2.39003 41.6907 2.39441 41.659 2.3975 41.6269ZM37.1963 37.8291C37.2382 37.8163 37.2803 37.805 37.3213 37.791C37.2803 37.805 37.2382 37.8163 37.1963 37.8291ZM37.4356 37.748C37.4832 37.7302 37.5307 37.7128 37.5772 37.6933C37.5307 37.7128 37.4832 37.7302 37.4356 37.748ZM37.6905 37.6426C37.7355 37.6221 37.7804 37.602 37.8243 37.5801C37.7804 37.602 37.7355 37.6221 37.6905 37.6426ZM5.20902 37.0791C5.22487 37 5.2416 36.9211 5.2559 36.8418C5.24161 36.9211 5.22487 37 5.20902 37.0791ZM37.9141 37.5322C37.9638 37.5057 38.0135 37.4795 38.0616 37.4512C38.0135 37.4795 37.9638 37.5057 37.9141 37.5322ZM38.1416 37.4004C38.1884 37.3712 38.2351 37.3424 38.2803 37.3115C38.2351 37.3424 38.1884 37.3712 38.1416 37.4004ZM38.3829 37.2373C38.4169 37.2123 38.4513 37.188 38.4844 37.1621C38.4513 37.188 38.4169 37.2123 38.3829 37.2373ZM38.5791 37.084C38.6154 37.0537 38.6516 37.0236 38.6866 36.9922C38.6516 37.0236 38.6154 37.0537 38.5791 37.084ZM38.8077 36.8779C38.8244 36.8614 38.841 36.8448 38.8575 36.8281C38.841 36.8448 38.8244 36.8614 38.8077 36.8779ZM38.9532 36.7256C38.9837 36.6922 39.0147 36.6593 39.044 36.625C39.0147 36.6593 38.9837 36.6922 38.9532 36.7256ZM5.29594 36.6045C5.30136 36.5706 5.30642 36.5368 5.31156 36.5029C5.30642 36.5368 5.30136 36.5706 5.29594 36.6045ZM39.1407 36.5058C39.157 36.485 39.1736 36.4644 39.1895 36.4433C39.1736 36.4644 39.157 36.485 39.1407 36.5058ZM39.2735 36.3252C39.2964 36.2923 39.3199 36.26 39.3418 36.2265C39.3199 36.26 39.2964 36.2923 39.2735 36.3252ZM5.34184 36.2949C5.35182 36.2208 5.36054 36.1465 5.36918 36.0722C5.36054 36.1465 5.35182 36.2208 5.34184 36.2949ZM39.3965 36.1396C39.4234 36.0961 39.4495 36.0522 39.4747 36.0078C39.4495 36.0522 39.4234 36.0961 39.3965 36.1396ZM5.37992 35.9765C5.38911 35.892 5.39787 35.8074 5.40531 35.7226C5.39787 35.8074 5.3891 35.892 5.37992 35.9765ZM39.5186 35.9267C39.5435 35.8802 39.5678 35.8335 39.5909 35.7861C39.5678 35.8335 39.5435 35.8802 39.5186 35.9267ZM39.6338 35.6943C39.6517 35.6552 39.669 35.6158 39.6856 35.5762C39.669 35.6158 39.6517 35.6551 39.6338 35.6943ZM5.42094 35.5205C5.42545 35.4573 5.43008 35.3942 5.43363 35.331C5.43009 35.3942 5.42545 35.4573 5.42094 35.5205ZM39.7383 35.4443C39.7503 35.4126 39.7614 35.3806 39.7725 35.3486C39.7614 35.3806 39.7503 35.4126 39.7383 35.4443ZM39.8204 35.2041C39.8299 35.1729 39.8389 35.1417 39.8477 35.1103C39.8389 35.1417 39.8299 35.1729 39.8204 35.2041ZM5.44047 35.1924C5.44469 35.0986 5.44813 35.0049 5.45023 34.9111C5.44814 35.0049 5.44468 35.0986 5.44047 35.1924ZM38.2442 34.9297L38.2432 34.9287L38.2442 34.9297ZM39.8819 34.9785C39.8911 34.9408 39.9011 34.9032 39.9092 34.8652C39.9011 34.9032 39.8911 34.9408 39.8819 34.9785ZM5.45121 34.8369C5.45267 34.748 5.45263 34.6592 5.45219 34.5703C5.45263 34.6592 5.45267 34.748 5.45121 34.8369ZM39.9385 34.7148C39.9437 34.6853 39.9477 34.6556 39.9522 34.626C39.9477 34.6556 39.9437 34.6853 39.9385 34.7148ZM38.3965 34.3428L38.3975 34.3437L38.3965 34.3428ZM39.9717 34.4902C39.9778 34.4389 39.9823 34.3875 39.9864 34.3359C39.9823 34.3875 39.9778 34.4389 39.9717 34.4902ZM5.45121 34.4238C5.44992 34.3466 5.44808 34.2695 5.44535 34.1924C5.44808 34.2695 5.44992 34.3466 5.45121 34.4238ZM39.9913 34.2597C39.9944 34.2077 39.996 34.1557 39.9971 34.1035C39.996 34.1557 39.9944 34.2077 39.9913 34.2597ZM5.43949 34.0381C5.43554 33.9553 5.43044 33.8727 5.42484 33.79C5.43045 33.8727 5.43554 33.9553 5.43949 34.0381ZM39.9991 34.0097C39.9989 33.9541 39.9967 33.8985 39.9942 33.8428C39.9967 33.8985 39.9989 33.9541 39.9991 34.0097ZM39.9903 33.7627C39.987 33.7122 39.9828 33.6617 39.9776 33.6113C39.9828 33.6617 39.987 33.7122 39.9903 33.7627ZM5.27738 32.5459C5.23448 32.2935 5.18462 32.042 5.12602 31.792L5.20902 32.1748C5.23388 32.2982 5.25631 32.422 5.27738 32.5459ZM39.9639 33.4951C39.9567 33.4409 39.948 33.387 39.9385 33.333C39.948 33.387 39.9567 33.4409 39.9639 33.4951ZM39.9258 33.2646C39.9148 33.2078 39.9024 33.1512 39.8887 33.0947C39.9024 33.1512 39.9148 33.2078 39.9258 33.2646ZM39.8663 33.0068C39.8488 32.9411 39.8297 32.8756 39.8086 32.8105C39.8297 32.8756 39.8487 32.9411 39.8663 33.0068ZM39.7979 32.7763C39.7758 32.7101 39.7515 32.6445 39.7256 32.5791C39.7515 32.6445 39.7758 32.7101 39.7979 32.7763ZM39.6016 32.2959C39.4473 31.9813 39.2471 31.6801 38.9981 31.4013L39.1768 31.6162C39.345 31.8327 39.4861 32.0605 39.6016 32.2959ZM33.8487 28.3271C34.2569 28.8877 34.713 29.4151 35.2129 29.9033H35.2139C34.6138 29.3174 34.0765 28.6745 33.6094 27.9863L33.8487 28.3271ZM35.6192 28.0195C35.7072 28.1234 35.7976 28.2254 35.8897 28.3262C35.7976 28.2254 35.7072 28.1234 35.6192 28.0195ZM2.58207 20.625C2.59663 21.7585 2.75183 22.9085 3.05863 24.0537L2.97172 23.7109C2.72275 22.6793 2.59519 21.6454 2.58207 20.625ZM11.3829 10.2568C12.1768 9.95977 13.0736 10.2648 13.5235 10.9814L13.6133 11.1416L13.6856 11.3095C14.0034 12.1588 13.6342 13.1285 12.8028 13.54C12.3916 13.7434 12.0049 13.9843 11.6475 14.2568C10.1524 15.397 9.40768 16.575 9.01762 18.415C8.92429 18.8555 8.87093 19.3078 8.86332 19.7656L8.82524 22.0781C8.80974 23.0055 8.09207 23.7561 7.18852 23.833L7.00492 23.8388C6.01613 23.8221 5.228 23.0065 5.24418 22.0185L5.28227 19.706C5.34854 15.7166 7.63833 12.0985 11.2149 10.3301L11.3829 10.2568ZM6.61918 22.7168C6.64209 22.731 6.66508 22.7449 6.68949 22.7568C6.66508 22.7449 6.6421 22.7311 6.61918 22.7168ZM6.49906 22.625C6.52025 22.6447 6.54124 22.6643 6.56449 22.6816C6.54124 22.6643 6.52024 22.6447 6.49906 22.625ZM6.39945 22.5137C6.41722 22.5378 6.43477 22.562 6.45512 22.584C6.43478 22.562 6.41721 22.5378 6.39945 22.5137ZM6.32524 22.3906C6.33801 22.417 6.35073 22.4431 6.36625 22.4678C6.35074 22.4431 6.338 22.417 6.32524 22.3906ZM6.25492 22.1738C6.2557 22.1787 6.25601 22.1836 6.25688 22.1885C6.25601 22.1836 6.2557 22.1787 6.25492 22.1738ZM2.60355 19.6679C2.61093 19.5378 2.61988 19.4078 2.6309 19.2783C2.61987 19.4078 2.61093 19.5378 2.60355 19.6679ZM2.75102 18.2871C2.73522 18.3867 2.72168 18.4868 2.70805 18.5869C2.72167 18.4868 2.73523 18.3867 2.75102 18.2871ZM3.01078 17.0332C3.06979 16.8018 3.13446 16.5722 3.20512 16.3447C3.13445 16.5722 3.06979 16.8018 3.01078 17.0332ZM27.7188 9.79685C29.1542 11.3067 30.3017 13.1247 31.045 15.1845C30.4503 13.5365 29.5975 12.0428 28.545 10.7383C28.2818 10.4121 28.0059 10.0979 27.7188 9.79587V9.79685ZM3.53129 15.4131C3.49628 15.5028 3.46289 15.5931 3.42973 15.6836C3.46288 15.5931 3.49629 15.5028 3.53129 15.4131ZM4.71586 13.0595C4.66558 13.1396 4.61704 13.2207 4.5684 13.3017C4.61704 13.2207 4.66559 13.1396 4.71586 13.0595ZM12.6768 11.5146H12.6778H12.6768ZM6.26469 11.0312C6.14513 11.1611 6.02847 11.2935 5.9141 11.4277C6.02847 11.2935 6.14513 11.1611 6.26469 11.0312ZM7.46879 9.87204C7.48217 9.86063 7.49638 9.85021 7.50981 9.83884C7.49638 9.85021 7.48217 9.86063 7.46879 9.87204ZM8.58402 9.01462C8.50807 9.06709 8.43318 9.12091 8.35844 9.17478C8.43318 9.12091 8.50807 9.06709 8.58402 9.01462ZM10.2715 8.01853C9.88706 8.21014 9.51396 8.41794 9.15336 8.64158C9.51396 8.41794 9.88707 8.21014 10.2715 8.01853ZM25.3633 7.77146C25.7022 8.00838 26.0321 8.25874 26.3516 8.52244L25.8653 8.13669C25.5355 7.88602 25.1959 7.64906 24.8477 7.42576L25.3633 7.77146ZM11.4873 7.48337C11.1214 7.62388 10.7649 7.7799 10.417 7.94822C10.7649 7.77991 11.1214 7.62387 11.4873 7.48337ZM22.6621 6.25779C23.2312 6.50576 23.7846 6.78787 24.3194 7.10154L23.7784 6.79783C23.4139 6.60311 23.0414 6.42305 22.6621 6.25779ZM8.2227 5.91599C8.20965 5.83553 8.19977 5.75504 8.19145 5.67478C8.19977 5.75504 8.20965 5.83553 8.2227 5.91599ZM8.17094 5.07517C8.17891 4.87124 8.20258 4.66966 8.2393 4.47165C8.20256 4.66967 8.17892 4.87123 8.17094 5.07517ZM17.2041 4.9863C18.05 5.02535 18.8849 5.13363 19.7012 5.30759L19.086 5.18943C18.467 5.08361 17.8387 5.0156 17.2041 4.9863ZM16.586 4.87888C16.5881 4.86522 16.5903 4.8513 16.5918 4.83689C16.5903 4.8513 16.5881 4.86522 16.586 4.87888ZM16.5948 4.79294C16.5974 4.74929 16.5975 4.70262 16.5948 4.65232C16.5975 4.70262 16.5974 4.74929 16.5948 4.79294ZM8.28227 4.27048C8.27155 4.31581 8.2622 4.36145 8.25297 4.4072C8.26219 4.36145 8.27156 4.31581 8.28227 4.27048ZM8.33207 4.07517C8.31926 4.11976 8.30827 4.16487 8.29692 4.20993C8.30827 4.16487 8.31927 4.11976 8.33207 4.07517ZM8.39067 3.88962C8.37789 3.92745 8.36624 3.96566 8.35453 4.00388C8.36624 3.96566 8.3779 3.92745 8.39067 3.88962ZM8.46 3.69919C8.44453 3.7387 8.42937 3.77834 8.41508 3.81833C8.42937 3.77834 8.44454 3.7387 8.46 3.69919ZM8.53324 3.52341C8.51803 3.55767 8.50361 3.59226 8.4893 3.62693C8.5036 3.59226 8.51803 3.55767 8.53324 3.52341ZM8.71879 3.15525C8.70194 3.18506 8.68512 3.21488 8.66899 3.24509C8.68512 3.21488 8.70194 3.18506 8.71879 3.15525ZM8.82817 2.97165C8.808 3.00349 8.78889 3.03597 8.76957 3.06833C8.78888 3.03597 8.808 3.00349 8.82817 2.97165ZM8.94242 2.80271C8.91277 2.84491 8.8836 2.8874 8.85551 2.93064C8.8836 2.8874 8.91277 2.84491 8.94242 2.80271ZM9.04594 2.66013C9.02273 2.69043 8.99996 2.72104 8.97758 2.75193C8.99996 2.72104 9.02273 2.69043 9.04594 2.66013ZM9.16508 2.51267C9.1447 2.53694 9.12435 2.5612 9.10453 2.58591C9.12435 2.5612 9.1447 2.53694 9.16508 2.51267ZM9.29106 2.36814C9.27326 2.38749 9.25574 2.40707 9.23832 2.42673C9.25574 2.40707 9.27326 2.38749 9.29106 2.36814ZM9.59965 2.0654C9.57134 2.0905 9.54325 2.11578 9.51567 2.14157C9.54324 2.11578 9.57134 2.0905 9.59965 2.0654ZM9.73344 1.95212C9.71012 1.97112 9.68697 1.99028 9.6641 2.00974C9.68697 1.99028 9.71012 1.97112 9.73344 1.95212ZM9.89848 1.82517C9.87611 1.84162 9.85309 1.85713 9.83109 1.874C9.85309 1.85714 9.87611 1.84162 9.89848 1.82517ZM10.0752 1.70114C10.0456 1.7207 10.0154 1.73949 9.98637 1.75974C10.0154 1.73949 10.0456 1.7207 10.0752 1.70114ZM10.6309 1.39255C10.4675 1.46786 10.3101 1.55174 10.1602 1.64548C10.3101 1.55175 10.4675 1.46786 10.6309 1.39255ZM4.04203 42.6084C4.04861 42.6327 4.05618 42.6566 4.06352 42.6806C4.05619 42.6566 4.04861 42.6327 4.04203 42.6084ZM3.98441 41.6689L3.98344 41.6738C3.97733 41.7183 3.97237 41.7625 3.96879 41.8066C3.9725 41.7609 3.97798 41.715 3.98441 41.6689ZM5.09672 37.5957C5.12776 37.4689 5.15565 37.3414 5.18266 37.2138C5.15567 37.3413 5.12774 37.469 5.09672 37.5957ZM5.4141 33.6484C5.40747 33.5647 5.399 33.4811 5.39066 33.3974C5.399 33.4811 5.40746 33.5647 5.4141 33.6484ZM5.3809 33.2998C5.36964 33.1952 5.35771 33.0907 5.34379 32.9863C5.35771 33.0907 5.36964 33.1952 5.3809 33.2998ZM5.33598 32.9258C5.32208 32.8253 5.30644 32.7251 5.29008 32.625C5.30645 32.7251 5.32208 32.8253 5.33598 32.9258ZM39.7041 32.5254C39.6775 32.4607 39.6486 32.3967 39.6182 32.333C39.6486 32.3967 39.6775 32.4607 39.7041 32.5254ZM2.66215 18.9629C2.65079 19.0678 2.63987 19.1729 2.6309 19.2783C2.63987 19.1729 2.65079 19.0678 2.66215 18.9629ZM2.79105 18.0576C2.77762 18.134 2.76318 18.2103 2.75102 18.2871C2.76318 18.2103 2.77762 18.134 2.79105 18.0576ZM3.29301 16.0732C3.26295 16.1634 3.23335 16.2538 3.20512 16.3447C3.23335 16.2538 3.26295 16.1634 3.29301 16.0732ZM2.91605 17.4277C2.92438 17.3906 2.93282 17.3534 2.94145 17.3164C2.93282 17.3534 2.92438 17.3906 2.91605 17.4277ZM3.62602 15.1777C3.59385 15.2559 3.56204 15.3343 3.53129 15.4131C3.56204 15.3343 3.59385 15.2559 3.62602 15.1777ZM4.86234 12.833C4.81305 12.9082 4.76369 12.9834 4.71586 13.0595C4.76369 12.9834 4.81305 12.9082 4.86234 12.833ZM8.81059 8.8613C8.73447 8.91168 8.65898 8.96285 8.58402 9.01462C8.65898 8.96285 8.73447 8.91168 8.81059 8.8613ZM11.544 7.46189C11.577 7.44938 11.6105 7.43803 11.6436 7.42576C11.6104 7.43803 11.577 7.44938 11.544 7.46189ZM8.1768 5.50095C8.18039 5.55882 8.18543 5.61674 8.19145 5.67478C8.18542 5.61674 8.1804 5.55881 8.1768 5.50095ZM8.2227 5.91599C8.23415 5.98661 8.24758 6.05724 8.26274 6.1279C8.24759 6.05725 8.23415 5.98661 8.2227 5.91599ZM8.16899 5.28513C8.16945 5.32836 8.17108 5.37163 8.17289 5.41501C8.17108 5.37164 8.16945 5.32836 8.16899 5.28513Z" fill="#2563EB"/>
</svg>
