<svg width="66" height="52" viewBox="0 0 66 52" fill="none" xmlns="http://www.w3.org/2000/svg">
<path d="M28.792 0.00488281C36.3545 0.195414 42.4392 6.33191 42.4814 13.9014C42.9792 13.469 43.617 13.1458 44.3633 13.0391C46.857 12.5219 49.3486 12.5273 51.8965 13.0332C52.9774 13.177 53.8354 13.775 54.3721 14.5049C54.9495 15.2905 55.1318 16.1648 55.1318 16.875V17.502C55.319 17.6018 55.5015 17.7042 55.6787 17.8096L57.9121 16.584V16.9121C58.2873 16.8677 58.645 16.8769 58.9658 16.9238C59.7077 17.0324 60.4952 17.3612 61.1328 17.9678L61.1533 17.9873L61.1621 17.9961L61.1846 18.0176L61.2012 18.0322L61.2158 18.0479L61.2363 18.0703L61.2461 18.0801L61.2559 18.0908L61.2822 18.1201L61.542 18.4062C63.1616 20.2259 64.3858 22.284 65.1768 24.6475L65.6182 25.9648H65.3779C65.3706 26.3755 65.3011 26.7855 65.1641 27.1768C64.9021 27.9246 64.3111 28.8126 63.2471 29.3105L62.7383 29.5898C62.7405 29.7262 62.7405 29.8626 62.7383 29.999L63.2695 30.291C64.3197 30.791 64.9039 31.6722 65.1641 32.415C65.3774 33.0247 65.4322 33.6797 65.3311 34.3125L65.374 34.3555L65.1768 34.9443C64.3431 37.4356 63.0277 39.5874 61.2754 41.4785L61.2559 41.5L61.251 41.5059L61.2305 41.5283L61.208 41.5518L61.1621 41.5957L60.4326 42.2979L60.3369 42.2021C59.9832 42.3981 59.6135 42.5359 59.248 42.6162L59.2324 42.6191L59.2158 42.6221L59.0039 42.6621L58.9844 42.665L58.9658 42.668C58.6447 42.715 58.2872 42.7223 57.9121 42.6777V43.0068L55.6777 41.7803C55.5008 41.8855 55.3188 41.9881 55.1318 42.0879V42.7168C55.1318 43.3824 54.9715 44.1925 54.4756 44.9385L54.3721 45.0869C53.8375 45.8138 52.9839 46.4088 51.9092 46.5557C50.4531 46.8558 48.9969 46.9743 47.5283 46.9219C47.1905 49.7853 44.7459 51.9999 41.7871 52H13.7979C10.609 51.9999 8.01381 49.4279 8.01367 46.2432V39.917C8.01367 39.7263 8.01856 39.5365 8.02539 39.3477H6.16406C3.07449 39.3474 0.544066 36.934 0.388672 33.8867L0.387695 33.875V33.8633L0.380859 33.6182V31.0615C0.380859 26.4887 3.23155 22.5875 7.25391 21.0029C6.13827 19.5938 5.47083 17.8142 5.4707 15.8789C5.47081 11.2968 9.20463 7.59082 13.7988 7.59082C14.4891 7.59085 15.1607 7.67575 15.8037 7.83398C18.0906 3.19361 22.8861 0 28.4297 0L28.792 0.00488281ZM42.3086 50.9707C42.3738 50.9637 42.4386 50.9559 42.5029 50.9463C42.4386 50.9559 42.3738 50.9637 42.3086 50.9707ZM13.0762 50.9453C13.2324 50.9688 13.3909 50.986 13.5518 50.9941C13.391 50.986 13.2324 50.9688 13.0762 50.9453ZM12.8516 50.9062C12.9075 50.9174 12.9639 50.9273 13.0205 50.9365C12.9639 50.9273 12.9075 50.9174 12.8516 50.9062ZM42.9619 50.8545C42.8394 50.8853 42.7149 50.9105 42.5889 50.9316C42.7149 50.9105 42.8394 50.8853 42.9619 50.8545ZM12.623 50.8545C12.6751 50.8676 12.7276 50.8793 12.7803 50.8906C12.7276 50.8793 12.6751 50.8676 12.623 50.8545ZM12.4062 50.7949C12.4502 50.8082 12.4946 50.82 12.5391 50.832C12.4946 50.82 12.4502 50.8082 12.4062 50.7949ZM43.0908 50.8193C43.1248 50.8098 43.1587 50.8003 43.1924 50.79C43.1587 50.8003 43.1248 50.8098 43.0908 50.8193ZM12.166 50.7148C12.2196 50.7342 12.2737 50.7521 12.3281 50.7695C12.2737 50.7521 12.2196 50.7342 12.166 50.7148ZM43.4941 50.6855C43.5393 50.6684 43.5844 50.6513 43.6289 50.6328C43.5844 50.6513 43.5393 50.6684 43.4941 50.6855ZM11.9648 50.6367C12.0188 50.659 12.073 50.6808 12.1279 50.7012C12.073 50.6808 12.0188 50.659 11.9648 50.6367ZM11.7734 50.5537C11.8141 50.5726 11.8552 50.5906 11.8965 50.6084C11.8552 50.5906 11.8141 50.5726 11.7734 50.5537ZM43.71 50.5977C43.7528 50.5789 43.7958 50.5609 43.8379 50.541C43.7958 50.5609 43.7528 50.5789 43.71 50.5977ZM11.5596 50.4473C11.5974 50.4672 11.6354 50.4869 11.6738 50.5059C11.6354 50.4869 11.5974 50.4672 11.5596 50.4473ZM43.9102 50.5049C43.9574 50.4816 44.0045 50.4584 44.0508 50.4336C44.0045 50.4584 43.9574 50.4816 43.9102 50.5049ZM11.3506 50.3301C11.3976 50.358 11.4452 50.3848 11.4932 50.4111C11.4452 50.3848 11.3976 50.358 11.3506 50.3301ZM44.1396 50.3848C44.1722 50.3664 44.2042 50.3472 44.2363 50.3281C44.2042 50.3472 44.1722 50.3664 44.1396 50.3848ZM11.1689 50.2168C11.2129 50.2456 11.2568 50.2744 11.3018 50.3018C11.2568 50.2744 11.2129 50.2456 11.1689 50.2168ZM44.3193 50.2773C44.3598 50.2522 44.3998 50.2265 44.4395 50.2002C44.3998 50.2265 44.3598 50.2522 44.3193 50.2773ZM10.9961 50.0977C11.0297 50.1218 11.0634 50.1456 11.0977 50.1689C11.0634 50.1456 11.0297 50.1218 10.9961 50.0977ZM44.5068 50.1553C44.5455 50.1286 44.5833 50.101 44.6211 50.0732C44.5833 50.101 44.5455 50.1287 44.5068 50.1553ZM10.8301 49.9727C10.8605 49.9966 10.8909 50.0207 10.9219 50.0439C10.8909 50.0207 10.8605 49.9966 10.8301 49.9727ZM44.6865 50.0244C44.7217 49.9977 44.7567 49.971 44.791 49.9434C44.7567 49.971 44.7217 49.9977 44.6865 50.0244ZM44.8877 49.8633C44.9175 49.838 44.9474 49.8131 44.9766 49.7871C44.9474 49.8131 44.9175 49.838 44.8877 49.8633ZM45.0371 49.7305C45.0744 49.6961 45.1113 49.6615 45.1475 49.626C45.1113 49.6615 45.0744 49.6961 45.0371 49.7305ZM10.2607 49.4453C10.3111 49.5003 10.3621 49.5548 10.415 49.6074C10.3621 49.5548 10.3111 49.5003 10.2607 49.4453ZM45.1953 49.5781C45.2256 49.5475 45.2557 49.5168 45.2852 49.4854C45.2557 49.5168 45.2256 49.5475 45.1953 49.5781ZM45.3672 49.3955C45.3904 49.3695 45.4129 49.3429 45.4355 49.3164C45.4129 49.3429 45.3904 49.3695 45.3672 49.3955ZM45.5088 49.2285C45.5336 49.1979 45.5579 49.167 45.582 49.1357C45.5579 49.167 45.5336 49.1979 45.5088 49.2285ZM9.97363 49.1006C10.0057 49.1429 10.0389 49.1844 10.0723 49.2256C10.0388 49.1844 10.0057 49.1429 9.97363 49.1006ZM23.9756 27.9619C17.3277 27.962 11.9483 33.3195 11.9482 39.917V46.2432C11.9484 47.2507 12.771 48.0771 13.7979 48.0771H41.7871C42.7706 48.077 43.5645 47.3186 43.6299 46.3691C42.9691 46.1281 42.425 45.7119 42.0293 45.2236L41.9238 45.0869C41.3462 44.3012 41.1641 43.4268 41.1641 42.7168V42.0889C40.9762 41.9886 40.793 41.8861 40.6152 41.7803L39.8652 42.1934L39.209 42.5537L39.1611 42.5068C38.5093 42.7244 37.8684 42.7467 37.3301 42.668C36.5887 42.5595 35.8002 42.231 35.1621 41.624L35.1582 41.6201L35.1328 41.5957L35.0869 41.5518L35.0654 41.5283L35.0439 41.5059L35.0391 41.5L35.0195 41.4785L34.708 41.1348C33.1601 39.3951 31.8022 37.3231 31.083 34.834L30.9189 34.2646L30.9521 34.2305C30.8684 33.6243 30.9272 32.9995 31.1318 32.415C31.3918 31.6729 31.9748 30.7912 33.0244 30.291L33.5557 29.999C33.5534 29.8626 33.5534 29.7262 33.5557 29.5898L33.0449 29.3096C32.3415 28.9796 31.8494 28.4773 31.5205 27.9619H23.9756ZM45.6436 49.0557C45.6708 49.0188 45.6965 48.981 45.7227 48.9434C45.6965 48.981 45.6708 49.0188 45.6436 49.0557ZM9.8457 48.9229C9.86699 48.9538 9.88913 48.9842 9.91113 49.0146C9.88913 48.9842 9.86699 48.9538 9.8457 48.9229ZM45.7715 48.873C45.794 48.8394 45.8163 48.8057 45.8379 48.7715C45.8163 48.8057 45.794 48.8394 45.7715 48.873ZM9.72363 48.7354C9.74363 48.7676 9.76442 48.7993 9.78516 48.8311C9.76441 48.7993 9.74363 48.7676 9.72363 48.7354ZM9.61133 48.5449C9.632 48.582 9.65318 48.6188 9.6748 48.6553C9.65317 48.6188 9.632 48.582 9.61133 48.5449ZM45.9102 48.6533C45.9234 48.631 45.9363 48.6085 45.9492 48.5859C45.9363 48.6085 45.9234 48.631 45.9102 48.6533ZM46.0088 48.4785C46.0332 48.433 46.0571 48.3872 46.0801 48.3408C46.0571 48.3872 46.0332 48.433 46.0088 48.4785ZM9.50391 48.3408C9.52162 48.3766 9.54001 48.412 9.55859 48.4473C9.54001 48.412 9.52162 48.3766 9.50391 48.3408ZM46.1064 48.2861C46.1282 48.2407 46.1486 48.1946 46.1689 48.1484C46.1486 48.1946 46.1282 48.2407 46.1064 48.2861ZM9.41504 48.1523C9.42575 48.1766 9.43714 48.2006 9.44824 48.2246C9.43714 48.2006 9.42575 48.1766 9.41504 48.1523ZM46.2051 48.0674C46.2237 48.0228 46.2415 47.9779 46.2588 47.9326C46.2415 47.9779 46.2237 48.0228 46.2051 48.0674ZM9.32617 47.9326C9.33977 47.9682 9.35277 48.0039 9.36719 48.0391C9.35277 48.0039 9.33977 47.9682 9.32617 47.9326ZM46.2861 47.8594C46.3042 47.8096 46.3215 47.7595 46.3379 47.709C46.3214 47.7595 46.3042 47.8096 46.2861 47.8594ZM9.24707 47.709C9.25996 47.7486 9.27321 47.788 9.28711 47.8271C9.27321 47.788 9.25996 47.7486 9.24707 47.709ZM46.3604 47.6396C46.3796 47.5774 46.3974 47.5145 46.4141 47.4512C46.3974 47.5145 46.3796 47.5774 46.3604 47.6396ZM9.1709 47.4512C9.18697 47.5122 9.20423 47.5727 9.22266 47.6328C9.20423 47.5727 9.18697 47.5122 9.1709 47.4512ZM9.12695 47.2695C9.13716 47.3157 9.14764 47.3616 9.15918 47.4072C9.14764 47.3616 9.13716 47.3157 9.12695 47.2695ZM46.4258 47.4072C46.4325 47.3807 46.4381 47.3539 46.4443 47.3271C46.4381 47.3539 46.4325 47.3807 46.4258 47.4072ZM9.08203 47.0361C9.09013 47.0841 9.09691 47.1322 9.10645 47.1797C9.09691 47.1322 9.09013 47.0841 9.08203 47.0361ZM9.02051 46.4883C9.02819 46.6387 9.04304 46.7872 9.06445 46.9336C9.04304 46.7872 9.02819 46.6387 9.02051 46.4883ZM44.5498 46.9287C44.5593 46.8907 44.5712 46.8531 44.5791 46.8145L44.582 46.7969C44.5732 46.8414 44.5608 46.8849 44.5498 46.9287ZM51.9785 45.5283C51.9873 45.5264 51.9961 45.5245 52.0049 45.5225C51.9961 45.5245 51.9873 45.5264 51.9785 45.5283ZM52.3838 45.4023C52.4291 45.3845 52.4739 45.3667 52.5176 45.3467C52.4739 45.3667 52.4291 45.3845 52.3838 45.4023ZM52.6143 45.2998C52.6632 45.2749 52.7111 45.2492 52.7578 45.2217C52.7111 45.2492 52.6632 45.2749 52.6143 45.2998ZM52.8408 45.1699C52.8841 45.1422 52.9265 45.1138 52.9678 45.084C52.9265 45.1138 52.8841 45.1422 52.8408 45.1699ZM53.0469 45.0254C53.0832 44.9971 53.1179 44.9673 53.1523 44.9375C53.1178 44.9673 53.0832 44.9971 53.0469 45.0254ZM53.2441 44.8564C53.3006 44.803 53.3553 44.7485 53.4062 44.6914C53.3553 44.7485 53.3006 44.803 53.2441 44.8564ZM42.5967 44.2949C42.6123 44.3204 42.6299 44.3448 42.6465 44.3701C42.6299 44.3448 42.6123 44.3204 42.5967 44.2949ZM42.4766 44.0771C42.4936 44.1114 42.5126 44.1447 42.5312 44.1787C42.5126 44.1447 42.4936 44.1114 42.4766 44.0771ZM42.3848 43.8711C42.398 43.9041 42.4121 43.9369 42.4268 43.9697C42.4121 43.9369 42.398 43.9041 42.3848 43.8711ZM42.3018 43.6377C42.3134 43.6754 42.3256 43.7132 42.3389 43.751C42.3256 43.7132 42.3134 43.6754 42.3018 43.6377ZM42.2471 43.4365C42.2556 43.4732 42.2653 43.51 42.2754 43.5469C42.2653 43.51 42.2556 43.4733 42.2471 43.4365ZM52.0059 43.3594L52.0508 43.29C52.0538 43.285 52.0557 43.2795 52.0586 43.2744C52.042 43.3035 52.0256 43.3325 52.0059 43.3594ZM44.2314 43.2666C44.2493 43.2986 44.2684 43.3299 44.29 43.3594C44.2684 43.3299 44.2493 43.2987 44.2314 43.2666ZM42.2051 43.2168C42.2111 43.2549 42.216 43.2935 42.2236 43.332C42.216 43.2935 42.2111 43.2549 42.2051 43.2168ZM51.1855 16.8906C49.0996 16.4691 47.1106 16.4695 45.125 16.8867L45.0977 16.8936V20.0781L43.8555 20.5693C43.1449 20.8503 42.4798 21.2402 41.8389 21.6943L40.833 22.4072L39.752 21.8154L39.75 21.8145L37.9668 20.834L37.96 20.8301L37.9443 20.8223L37.915 20.8047C37.9112 20.8047 37.9052 20.805 37.9004 20.8057C37.8957 20.8064 37.8903 20.807 37.8848 20.8086C37.8803 20.8099 37.8762 20.8111 37.873 20.8125C36.4871 22.3161 35.4092 23.9619 34.8662 25.833L34.8838 25.8428L34.8896 25.8457L36.5518 26.7578L36.5527 26.7588L37.7217 27.4023L37.5537 28.7236C37.4749 29.344 37.4643 29.9779 37.5234 30.6016L37.5537 30.8682L37.7217 32.1895L36.5527 32.833L36.5518 32.834L34.8896 33.7461L34.8662 33.7578C35.4092 35.6293 36.4876 37.2743 37.874 38.7783C37.8768 38.7794 37.8802 38.7812 37.8838 38.7822C37.8895 38.7839 37.8952 38.7854 37.9004 38.7861L37.915 38.7871L37.9248 38.7812L37.9443 38.7705L37.96 38.7617L37.9668 38.7578L39.75 37.7773L39.752 37.7764L40.833 37.1846L41.8389 37.8975C42.3997 38.2948 42.9789 38.643 43.5908 38.9121L43.8555 39.0225L45.0977 39.5146V42.6973L45.1094 42.7002C47.1942 43.1214 49.1823 43.1207 51.167 42.7041L51.1982 42.6973V39.5146L51.8301 39.2646L52.4395 39.0225C53.1502 38.7414 53.8154 38.3514 54.4561 37.8975L55.4619 37.1846L56.0107 37.4844L56.5439 37.7764L56.5459 37.7773L58.3281 38.7578L58.3604 38.7744L58.3809 38.7871H58.3877L58.3945 38.7861C58.4 38.7853 58.4061 38.784 58.4121 38.7822C58.4146 38.7815 58.4168 38.7801 58.4189 38.7793C59.7831 37.2981 60.7825 35.6541 61.4258 33.7568L61.4033 33.7451L59.7441 32.834L59.7432 32.833L58.5732 32.1904L58.7412 30.8682L58.7705 30.6016C58.8297 29.9778 58.8201 29.3441 58.7412 28.7236L58.5732 27.4014L61.4053 25.8457L61.4258 25.834C60.7824 23.9373 59.7832 22.2931 58.4199 20.8125C58.4173 20.8114 58.4145 20.8096 58.4111 20.8086C58.4054 20.8069 58.3994 20.8054 58.3945 20.8047C58.3899 20.804 58.3856 20.8047 58.3818 20.8047L58.3604 20.8174L58.3281 20.834L56.5459 21.8145L56.5439 21.8154L56.0107 22.1074L55.4619 22.4072L54.4561 21.6943C53.8154 21.2404 53.1503 20.8504 52.4395 20.5693L51.8301 20.3271L51.1982 20.0771V16.8936L51.1855 16.8906ZM39.1348 41.4443C39.2177 41.4062 39.3007 41.3642 39.3828 41.3164C39.3007 41.3642 39.2177 41.4062 39.1348 41.4443ZM58.1582 41.7002C58.2195 41.7048 58.2801 41.7071 58.3398 41.708C58.2801 41.7071 58.2195 41.7048 58.1582 41.7002ZM57.9219 41.6729C57.9886 41.6832 58.0547 41.6905 58.1201 41.6963C58.0547 41.6905 57.9886 41.6833 57.9219 41.6729ZM57.6924 41.627C57.7556 41.6421 57.8183 41.6554 57.8809 41.666C57.8184 41.6553 57.7556 41.6421 57.6924 41.627ZM57.4648 41.5625C57.5197 41.5805 57.5743 41.597 57.6289 41.6113C57.5743 41.5969 57.5197 41.5805 57.4648 41.5625ZM56.9121 41.3174C57.0681 41.4081 57.2268 41.4793 57.3848 41.5361C57.2267 41.4792 57.0682 41.4072 56.9121 41.3164V41.3174ZM42.3291 39.3955C42.6993 39.6048 43.0845 39.7938 43.4873 39.9531L44.0977 40.1943L43.4873 39.9521C43.3866 39.9123 43.287 39.8705 43.1885 39.8271C42.8929 39.6972 42.6067 39.5524 42.3291 39.3955ZM53.6846 39.5479C53.4955 39.647 53.3026 39.7405 53.1055 39.8271C53.007 39.8705 52.9073 39.9124 52.8066 39.9521V39.9531C53.1088 39.8337 53.4011 39.6966 53.6846 39.5479ZM61.2656 39.9668C61.3181 39.9029 61.3714 39.8399 61.4229 39.7754C61.3714 39.8399 61.3181 39.9029 61.2656 39.9668ZM58.209 39.7734C58.2653 39.7829 58.3216 39.7859 58.377 39.7861C58.3216 39.7859 58.2653 39.7828 58.209 39.7734ZM57.958 39.6953H57.959H57.958ZM61.5088 39.666C61.565 39.5944 61.6208 39.5225 61.6758 39.4502C61.6208 39.5225 61.565 39.5944 61.5088 39.666ZM11.0049 38.71C10.9765 39.0153 10.9579 39.3236 10.9512 39.6348C10.9579 39.3236 10.9765 39.0153 11.0049 38.71ZM34.3232 39.0781H34.3242H34.3232ZM59.1719 39.4375C59.3389 39.2556 59.5013 39.0717 59.6582 38.8848C59.5013 39.0717 59.3389 39.2556 59.1719 39.4375ZM61.7881 39.2988C61.8427 39.2254 61.8978 39.1523 61.9512 39.0781C61.8978 39.1524 61.8427 39.2254 61.7881 39.2988ZM62.0518 38.9355C62.0982 38.8695 62.144 38.803 62.1895 38.7363C62.144 38.803 62.0982 38.8695 62.0518 38.9355ZM11.0498 38.2881C11.1038 37.8601 11.1785 37.4384 11.2734 37.0244C11.1785 37.4384 11.1038 37.86 11.0498 38.2881ZM62.3057 38.5645C62.3503 38.4973 62.3948 38.4301 62.4385 38.3623C62.3948 38.4301 62.3503 38.4973 62.3057 38.5645ZM33.3281 37.5566C33.4042 37.6891 33.4828 37.8197 33.5625 37.9492C33.4032 37.6903 33.2508 37.4257 33.1064 37.1553L33.3281 37.5566ZM62.5371 38.207C62.575 38.1468 62.6123 38.0862 62.6494 38.0254C62.6123 38.0862 62.575 38.1468 62.5371 38.207ZM4.56738 38.0762H4.56836H4.56738ZM62.7803 37.8076C62.8265 37.7293 62.872 37.6505 62.917 37.5713C62.872 37.6505 62.8265 37.7292 62.7803 37.8076ZM62.9717 37.4727C63.0087 37.4064 63.0459 37.3403 63.082 37.2734C63.0459 37.3403 63.0087 37.4064 62.9717 37.4727ZM61.625 35.8877C61.3892 36.365 61.1289 36.8265 60.8438 37.2734L61.0537 36.9355C61.3266 36.4812 61.5744 36.0118 61.7979 35.5264L61.625 35.8877ZM63.209 37.0342C63.236 36.9823 63.2626 36.9302 63.2891 36.8779C63.2626 36.9302 63.236 36.9823 63.209 37.0342ZM63.3887 36.6797C63.4321 36.5909 63.4737 36.501 63.5156 36.4111C63.4737 36.501 63.4321 36.5909 63.3887 36.6797ZM11.2539 24.166C7.41646 24.166 4.31445 27.2589 4.31445 31.0615V33.5654L4.31738 33.6865L4.33496 33.8643C4.46732 34.7432 5.23186 35.4246 6.16406 35.4248H8.66602C10.1655 30.3596 14.1294 26.3495 19.1787 24.7686C18.4181 24.429 17.5856 24.22 16.709 24.1748L16.3174 24.166H11.2539ZM11.6162 35.8086C11.55 36.0056 11.4894 36.2051 11.4326 36.4062C11.4894 36.2051 11.55 36.0056 11.6162 35.8086ZM63.5723 36.2881C63.6165 36.1912 63.6606 36.0941 63.7031 35.9961C63.6606 36.0941 63.6165 36.1912 63.5723 36.2881ZM63.7559 35.875C63.8035 35.7628 63.8501 35.6499 63.8955 35.5361C63.8501 35.6499 63.8035 35.7628 63.7559 35.875ZM48.1475 24.0381C51.3363 24.0382 53.9306 26.6113 53.9307 29.7959C53.9304 32.9804 51.3362 35.5526 48.1475 35.5527C44.9587 35.5527 42.3635 32.9805 42.3633 29.7959C42.3633 26.6112 44.9586 24.0382 48.1475 24.0381ZM11.8105 35.2715C11.8918 35.0611 11.9785 34.8534 12.0703 34.6484C11.9785 34.8534 11.8918 35.0611 11.8105 35.2715ZM64.3057 34.3389C64.3174 34.2872 64.33 34.2358 64.3389 34.1836C64.33 34.2358 64.3174 34.2872 64.3057 34.3389ZM48.3936 34.5459L48.1475 34.5527C48.2854 34.5527 48.4217 34.5446 48.5566 34.5332C48.5025 34.5378 48.4482 34.5431 48.3936 34.5459ZM47.4434 34.501C47.4573 34.503 47.4714 34.5039 47.4854 34.5059C47.4714 34.5039 47.4573 34.503 47.4434 34.501ZM48.834 34.5029C48.8411 34.5019 48.8483 34.5011 48.8555 34.5C48.8483 34.5011 48.8411 34.5019 48.834 34.5029ZM48.9971 34.4756C49.03 34.4697 49.063 34.4646 49.0957 34.458C49.063 34.4646 49.03 34.4697 48.9971 34.4756ZM49.1729 34.4414C49.2286 34.4293 49.2839 34.4164 49.3389 34.4023C49.2839 34.4164 49.2286 34.4293 49.1729 34.4414ZM46.9746 34.4072C47.0112 34.4164 47.0481 34.4243 47.085 34.4326C47.0481 34.4243 47.0112 34.4164 46.9746 34.4072ZM49.3672 34.3945C49.4278 34.3787 49.4882 34.3629 49.5479 34.3447C49.4882 34.3629 49.4278 34.3787 49.3672 34.3945ZM46.7783 34.3535C46.8055 34.3616 46.833 34.3684 46.8604 34.376C46.833 34.3684 46.8055 34.3616 46.7783 34.3535ZM49.6475 34.3125C49.6917 34.298 49.7357 34.2833 49.7793 34.2676C49.7357 34.2833 49.6917 34.298 49.6475 34.3125ZM46.5479 34.2783C46.5768 34.2885 46.6056 34.2989 46.6348 34.3086C46.6056 34.2989 46.5768 34.2885 46.5479 34.2783ZM31.9453 34.1152C31.9526 34.165 31.9628 34.2143 31.9727 34.2637C31.9628 34.2143 31.9526 34.165 31.9453 34.1152ZM49.8271 34.249C49.884 34.2278 49.9403 34.2059 49.9961 34.1826C49.9403 34.2059 49.884 34.2278 49.8271 34.249ZM46.3447 34.2012C46.3745 34.2132 46.4045 34.2248 46.4346 34.2363C46.4045 34.2248 46.3745 34.2132 46.3447 34.2012ZM50.0479 34.1611C50.1035 34.1372 50.1584 34.1119 50.2129 34.0859C50.1584 34.1119 50.1035 34.1372 50.0479 34.1611ZM46.1318 34.1094C46.1606 34.1227 46.1896 34.1357 46.2188 34.1484C46.1896 34.1357 46.1606 34.1227 46.1318 34.1094ZM64.3545 34.0742C64.3593 34.0378 64.3638 34.0014 64.3672 33.9648C64.3638 34.0014 64.3593 34.0378 64.3545 34.0742ZM50.2461 34.0703C50.3001 34.044 50.3534 34.0165 50.4062 33.9883C50.3534 34.0165 50.3001 34.044 50.2461 34.0703ZM45.9307 34.0107C45.9603 34.0262 45.9905 34.0408 46.0205 34.0557C45.9905 34.0408 45.9603 34.0262 45.9307 34.0107ZM45.6758 33.8682C45.7272 33.8991 45.7793 33.929 45.832 33.958C45.7793 33.929 45.7272 33.8991 45.6758 33.8682ZM50.4785 33.9482C50.5218 33.9242 50.565 33.9003 50.6074 33.875C50.565 33.9003 50.5218 33.9242 50.4785 33.9482ZM64.374 33.8643C64.3767 33.818 64.3784 33.7719 64.3789 33.7256C64.3784 33.7719 64.3767 33.818 64.374 33.8643ZM45.543 33.7852C45.5794 33.8087 45.6162 33.8319 45.6533 33.8545C45.6162 33.8319 45.5794 33.8087 45.543 33.7852ZM31.916 33.6689C31.9155 33.7273 31.917 33.7855 31.9199 33.8438C31.9169 33.7855 31.9155 33.7273 31.916 33.6689ZM50.6865 33.8252C50.716 33.8068 50.7454 33.7885 50.7744 33.7695C50.7454 33.7885 50.716 33.8068 50.6865 33.8252ZM50.8984 33.6865C50.9227 33.6695 50.9468 33.6522 50.9707 33.6348C50.9468 33.6522 50.9227 33.6695 50.8984 33.6865ZM64.3789 33.6416C64.3781 33.5989 64.3757 33.5563 64.373 33.5137C64.3757 33.5563 64.3781 33.5989 64.3789 33.6416ZM31.9248 33.4688C31.9216 33.5094 31.9194 33.5501 31.918 33.5908C31.9194 33.5501 31.9216 33.5094 31.9248 33.4688ZM45.1855 33.5293C45.2093 33.5479 45.2328 33.5668 45.2568 33.585C45.2328 33.5668 45.2093 33.5479 45.1855 33.5293ZM51.0674 33.5625C51.0994 33.5379 51.1308 33.5127 51.1621 33.4873C51.1308 33.5126 51.0994 33.5379 51.0674 33.5625ZM45.0137 33.3877C45.04 33.4105 45.0659 33.4339 45.0928 33.4561C45.0659 33.4339 45.04 33.4105 45.0137 33.3877ZM51.2246 33.4346C51.2641 33.4015 51.3034 33.3683 51.3418 33.334C51.3034 33.3683 51.2641 33.4015 51.2246 33.4346ZM64.3662 33.416C64.3606 33.3578 64.3529 33.2999 64.3438 33.2422C64.3529 33.2999 64.3606 33.3579 64.3662 33.416ZM31.9531 33.2295C31.9441 33.285 31.9364 33.3406 31.9307 33.3965C31.9364 33.3406 31.9441 33.285 31.9531 33.2295ZM62.1826 33.0488C62.2417 33.1042 62.2912 33.168 62.3301 33.2363C62.2912 33.168 62.2417 33.1042 62.1826 33.0488ZM51.3779 33.3018C51.4258 33.2581 51.4725 33.2135 51.5186 33.168C51.4725 33.2135 51.4258 33.2581 51.3779 33.3018ZM32.0078 32.9668C31.9894 33.0375 31.9739 33.1089 31.9609 33.1807C31.9739 33.1089 31.9894 33.0375 32.0078 32.9668ZM51.54 33.1475C51.5776 33.1098 51.6141 33.0711 51.6504 33.0322C51.6141 33.0711 51.5776 33.1098 51.54 33.1475ZM34.1748 32.9961C34.1597 33.0074 34.1459 33.02 34.1318 33.0322C34.1662 33.0022 34.2035 32.9747 34.2441 32.9512L34.1748 32.9961ZM51.7402 32.9346C51.759 32.9133 51.7775 32.8917 51.7959 32.8701C51.7775 32.8917 51.759 32.9133 51.7402 32.9346ZM51.8701 32.7812C51.8989 32.7458 51.9273 32.7101 51.9551 32.6738C51.9273 32.7101 51.8989 32.7458 51.8701 32.7812ZM44.3213 32.6504C44.3458 32.6828 44.3712 32.7144 44.3965 32.7461C44.3712 32.7144 44.3458 32.6828 44.3213 32.6504ZM48.1475 27.9619C47.1206 27.9619 46.2979 28.7883 46.2979 29.7959C46.2981 30.8033 47.1207 31.6289 48.1475 31.6289C49.1741 31.6288 49.9968 30.8033 49.9971 29.7959C49.997 28.7883 49.1742 27.962 48.1475 27.9619ZM52 32.6143C52.0283 32.576 52.0558 32.5372 52.083 32.498C52.0558 32.5372 52.0283 32.576 52 32.6143ZM52.1299 32.4297C52.1613 32.3827 52.1919 32.3352 52.2217 32.2871C52.1919 32.3352 52.1613 32.3828 52.1299 32.4297ZM44.0723 32.2871C44.0937 32.3217 44.1163 32.3556 44.1387 32.3896C44.1163 32.3556 44.0937 32.3218 44.0723 32.2871ZM52.2529 32.2363C52.2805 32.1906 52.307 32.1443 52.333 32.0977C52.307 32.1443 52.2805 32.1906 52.2529 32.2363ZM43.9551 32.0869C43.9764 32.1255 43.9991 32.1633 44.0215 32.2012C43.9991 32.1633 43.9764 32.1255 43.9551 32.0869ZM32.5635 31.8848H32.5645H32.5635ZM52.5605 31.6309C52.5809 31.5824 52.6003 31.5336 52.6191 31.4844C52.6003 31.5336 52.5809 31.5824 52.5605 31.6309ZM43.8496 31.8848C43.8658 31.9176 43.8825 31.95 43.8994 31.9824C43.8825 31.95 43.8658 31.9176 43.8496 31.8848ZM43.7695 31.7129C43.7796 31.7357 43.7893 31.7586 43.7998 31.7812C43.7893 31.7586 43.7796 31.7357 43.7695 31.7129ZM33.4912 31.1758C33.296 31.2653 33.1218 31.3729 32.9678 31.4932H32.9688C33.1227 31.3731 33.2962 31.2651 33.4912 31.1758ZM43.6758 31.4844C43.6882 31.5169 43.6998 31.5498 43.7129 31.582C43.6998 31.5498 43.6882 31.5169 43.6758 31.4844ZM52.6494 31.4043C52.6609 31.3726 52.6718 31.3406 52.6826 31.3086C52.6718 31.3406 52.6609 31.3726 52.6494 31.4043ZM43.6006 31.2744C43.6122 31.3098 43.6243 31.3449 43.6367 31.3799C43.6243 31.3449 43.6122 31.3098 43.6006 31.2744ZM52.7812 30.9775C52.7931 30.9313 52.803 30.8846 52.8135 30.8379C52.803 30.8846 52.7931 30.9314 52.7812 30.9775ZM43.5273 31.0273C43.5406 31.0768 43.5545 31.126 43.5693 31.1748C43.5545 31.126 43.5406 31.0768 43.5273 31.0273ZM43.4775 30.8271C43.4871 30.8703 43.497 30.9133 43.5078 30.9561C43.497 30.9133 43.4871 30.8703 43.4775 30.8271ZM43.418 30.5176C43.394 30.3608 43.3783 30.2014 43.3701 30.04C43.3783 30.2014 43.394 30.3608 43.418 30.5176ZM50.9121 30.4717C50.9208 30.4365 50.9321 30.4019 50.9395 30.3662L50.9424 30.3486C50.9341 30.3902 50.9222 30.4308 50.9121 30.4717ZM52.9062 30.2822C52.9027 30.3169 52.8978 30.3513 52.8936 30.3857C52.8982 30.3487 52.9035 30.3117 52.9072 30.2744L52.9062 30.2822ZM43.7217 27.9883C43.6686 28.1166 43.6199 28.2472 43.5781 28.3809C43.5548 28.4556 43.5334 28.5312 43.5137 28.6074C43.4154 28.9873 43.3633 29.3856 43.3633 29.7959L43.3701 29.5508C43.3982 28.9999 43.5209 28.4741 43.7217 27.9883ZM34.5586 29.4033H34.5596H34.5586ZM36.5049 29.1953C36.501 29.2565 36.4978 29.3177 36.4951 29.3789C36.5022 29.2174 36.5131 29.0562 36.5283 28.8955L36.5049 29.1953ZM18.0996 28.3516C17.754 28.5255 17.4178 28.7151 17.0908 28.918C17.4178 28.7151 17.754 28.5255 18.0996 28.3516ZM52.8408 28.874C52.8394 28.8669 52.8384 28.8597 52.8369 28.8525C52.8384 28.8597 52.8394 28.8669 52.8408 28.874ZM46.5537 27.4453C46.1518 27.7153 45.8258 28.0863 45.6055 28.5195C45.7842 28.1681 46.0323 27.8578 46.335 27.6094C46.4054 27.5515 46.4788 27.4973 46.5547 27.4463L46.5537 27.4453ZM52.7344 28.4443C52.7305 28.4313 52.7266 28.4183 52.7227 28.4053C52.7266 28.4183 52.7305 28.4313 52.7344 28.4443ZM52.6797 28.2734C52.669 28.242 52.6578 28.2108 52.6465 28.1797C52.6578 28.2108 52.669 28.242 52.6797 28.2734ZM52.6055 28.0732C52.5915 28.0374 52.5783 28.0012 52.5635 27.9658C52.5783 28.0012 52.5915 28.0374 52.6055 28.0732ZM52.5225 27.873C52.5021 27.8272 52.4818 27.7814 52.46 27.7363C52.4818 27.7814 52.5021 27.8272 52.5225 27.873ZM44.3135 26.9492C44.2216 27.0714 44.1356 27.1982 44.0557 27.3291C44.0157 27.3945 43.9772 27.4609 43.9404 27.5283C43.8859 27.6282 43.8365 27.731 43.7891 27.835C43.9325 27.5202 44.1077 27.2229 44.3135 26.9492ZM52.4326 27.6826C52.4094 27.6361 52.3861 27.5896 52.3613 27.5439C52.3861 27.5896 52.4094 27.6361 52.4326 27.6826ZM52.3154 27.4629C52.2956 27.4278 52.2756 27.3929 52.2549 27.3584C52.2756 27.3929 52.2956 27.4278 52.3154 27.4629ZM20.7979 27.3496C20.7135 27.3706 20.6295 27.3924 20.5459 27.415C20.6295 27.3924 20.7135 27.3706 20.7979 27.3496ZM52.1787 27.2373C52.1675 27.2198 52.157 27.2019 52.1455 27.1846C52.157 27.2019 52.1675 27.2198 52.1787 27.2373ZM23.3057 26.9785C22.7991 27.004 22.3002 27.0582 21.8105 27.1396C22.4075 27.0404 23.0182 26.9815 23.6396 26.9658L23.3057 26.9785ZM52.043 27.0361C52.0355 27.0257 52.0281 27.0152 52.0205 27.0049C52.0281 27.0152 52.0355 27.0257 52.043 27.0361ZM47.8555 26.9766C47.9514 26.9669 48.0489 26.9619 48.1475 26.9619C48.0489 26.9619 47.9515 26.9668 47.8555 26.9766ZM51.9238 26.877C51.9105 26.86 51.8973 26.843 51.8838 26.8262C51.8973 26.843 51.9105 26.86 51.9238 26.877ZM51.7764 26.6982C51.7649 26.685 51.7538 26.6714 51.7422 26.6582C51.7538 26.6714 51.7649 26.685 51.7764 26.6982ZM51.6367 26.543C51.611 26.5157 51.585 26.4886 51.5586 26.4619C51.585 26.4886 51.611 26.5157 51.6367 26.543ZM33.9658 26.3545C33.9917 26.4001 34.0218 26.4439 34.0566 26.4844C34.0218 26.4439 33.9917 26.4001 33.9658 26.3545ZM62.3936 26.2139C62.3766 26.2621 62.3552 26.3098 62.3291 26.3555C62.3032 26.401 62.2732 26.445 62.2383 26.4854C62.3083 26.4044 62.3598 26.3101 62.3936 26.2139C62.4112 26.1636 62.4247 26.1116 62.4336 26.0586V26.0576C62.4247 26.1109 62.4113 26.1633 62.3936 26.2139ZM51.4844 26.3887C51.4574 26.3625 51.4299 26.337 51.4023 26.3115C51.4299 26.337 51.4574 26.3625 51.4844 26.3887ZM51.3223 26.2383C51.2956 26.2147 51.2684 26.1919 51.2412 26.1689C51.2684 26.1919 51.2956 26.2147 51.3223 26.2383ZM51.1436 26.0879C51.1229 26.0714 51.102 26.0552 51.0811 26.0391C51.102 26.0552 51.1229 26.0714 51.1436 26.0879ZM50.7822 25.8252C50.7527 25.8057 50.7224 25.7874 50.6924 25.7686C50.7224 25.7874 50.7527 25.8057 50.7822 25.8252ZM50.5938 25.707C50.5661 25.6906 50.5378 25.6751 50.5098 25.6592C50.5378 25.6751 50.5661 25.6906 50.5938 25.707ZM50.3936 25.5947C50.3556 25.5746 50.3168 25.5562 50.2783 25.5371C50.3168 25.5562 50.3556 25.5746 50.3936 25.5947ZM62.3936 25.5723L62.3955 25.5791L62.3799 25.5322C62.3844 25.5456 62.3891 25.5589 62.3936 25.5723ZM50.1953 25.4961C50.1669 25.4827 50.1381 25.4699 50.1094 25.457C50.1381 25.4699 50.1669 25.4827 50.1953 25.4961ZM49.7676 25.3184C49.7424 25.3093 49.7168 25.3016 49.6914 25.293C49.7168 25.3016 49.7424 25.3093 49.7676 25.3184ZM48.1475 25.0381C47.8173 25.0381 47.4949 25.0714 47.1836 25.1348C47.4949 25.0715 47.8174 25.0381 48.1475 25.0381ZM49.3203 25.1826C49.3035 25.1784 49.2864 25.1749 49.2695 25.1709C49.2864 25.1749 49.3035 25.1784 49.3203 25.1826ZM49.0928 25.1309C49.0756 25.1274 49.0582 25.1253 49.041 25.1221C49.0582 25.1253 49.0756 25.1274 49.0928 25.1309ZM28.4297 3.92285C22.8358 3.92285 18.3107 8.43114 18.3105 13.9805C18.3105 19.5299 22.8357 24.0381 28.4297 24.0381C29.497 24.0381 30.5239 23.8711 31.4893 23.5654C32.2606 21.5829 33.431 19.8856 34.7363 18.4238L35.0488 18.0801L35.0586 18.0703L35.0801 18.0479L35.0947 18.0322L35.1104 18.0176L35.1328 17.9961L35.1582 17.9717L35.1621 17.9688C35.8003 17.3614 36.5887 17.0323 37.3301 16.9238C37.5747 16.8881 37.8386 16.8742 38.1143 16.8887C38.3948 15.9682 38.5488 14.9927 38.5488 13.9805C38.5487 8.43116 34.0236 3.9229 28.4297 3.92285ZM61.625 23.7041H61.626H61.625ZM18.4658 23.4521C18.2459 23.3915 18.0221 23.3407 17.7949 23.2988C18.0221 23.3406 18.2459 23.3915 18.4658 23.4521ZM10.4424 23.207C10.2154 23.2299 9.99142 23.2632 9.77051 23.3047C9.99552 23.2624 10.2238 23.229 10.4551 23.2061L10.4424 23.207ZM61.2539 23H61.2529H61.2539ZM33 22.6455C33.1012 22.4481 33.2051 22.2529 33.3145 22.0615C33.2052 22.2529 33.1012 22.448 33 22.6455ZM59.1201 20.0957C59.3057 20.296 59.4849 20.4996 59.6582 20.7061C59.8317 20.9128 59.999 21.1227 60.1602 21.3359C60.3212 21.549 60.4762 21.7654 60.625 21.9854C60.1786 21.3253 59.6771 20.6969 59.1201 20.0957ZM8.82812 21.2324C8.9195 21.3164 9.0128 21.3983 9.1084 21.4775C8.97027 21.508 8.83315 21.541 8.69727 21.5771C8.42544 21.6494 8.15854 21.7339 7.89648 21.8281C8.28953 21.6868 8.69396 21.5689 9.1084 21.4775C9.0128 21.3983 8.91951 21.3164 8.82812 21.2324ZM8.5459 20.959C8.59162 21.0057 8.63956 21.0502 8.68652 21.0957C8.63956 21.0502 8.59162 21.0057 8.5459 20.959ZM15.499 20.9707H15.498H15.499ZM8.28711 20.6787C8.34289 20.742 8.40009 20.8039 8.45801 20.8652C8.40009 20.8039 8.34289 20.742 8.28711 20.6787ZM8.04492 20.3906C8.08735 20.444 8.1319 20.4957 8.17578 20.5479C8.1319 20.4957 8.08735 20.444 8.04492 20.3906ZM7.81348 20.082C7.85601 20.1418 7.90006 20.2004 7.94434 20.2588C7.90006 20.2004 7.85601 20.1418 7.81348 20.082ZM13.7988 11.5137C11.3668 11.5137 9.40437 13.4738 9.4043 15.8789C9.4046 18.2838 11.3669 20.2432 13.7988 20.2432C14.4666 20.2431 15.0962 20.0908 15.6621 19.8262C14.8377 18.0467 14.376 16.0662 14.376 13.9805C14.376 13.1637 14.4475 12.363 14.583 11.584C14.3287 11.5381 14.0667 11.5137 13.7988 11.5137ZM53.1055 19.7646C53.3026 19.8513 53.4955 19.9448 53.6846 20.0439C53.4955 19.9448 53.3026 19.8513 53.1055 19.7646ZM7.59961 19.7637C7.6373 19.823 7.67647 19.8813 7.71582 19.9395C7.67647 19.8813 7.6373 19.823 7.59961 19.7637ZM57.958 19.8965C57.9309 19.9093 57.9043 19.9237 57.8779 19.9395C57.9309 19.9078 57.9855 19.8823 58.041 19.8623L57.958 19.8965ZM7.39844 19.4268C7.43321 19.4886 7.46934 19.5496 7.50586 19.6104C7.46934 19.5496 7.43321 19.4886 7.39844 19.4268ZM7.21973 19.0879C7.25041 19.15 7.28206 19.2114 7.31445 19.2725C7.28206 19.2114 7.25041 19.15 7.21973 19.0879ZM7.06348 18.75C7.0909 18.8135 7.11829 18.8769 7.14746 18.9395C7.11829 18.8769 7.0909 18.8135 7.06348 18.75ZM55.252 18.7197C55.1572 18.6624 55.0614 18.6054 54.9639 18.5498C55.0614 18.6054 55.1572 18.6624 55.252 18.7197ZM60.4434 18.6924C60.3868 18.6386 60.3283 18.5881 60.2686 18.54C60.3282 18.5881 60.3868 18.6386 60.4434 18.6924ZM6.9209 18.3936C6.94475 18.458 6.96853 18.5224 6.99414 18.5859C6.96853 18.5224 6.94475 18.458 6.9209 18.3936ZM36.2129 18.4023C36.1625 18.4366 36.1131 18.4729 36.0645 18.5107C36.1131 18.4729 36.1625 18.4366 36.2129 18.4023ZM60.2295 18.5107C60.181 18.473 60.1322 18.4365 60.082 18.4023C60.1322 18.4365 60.181 18.473 60.2295 18.5107ZM54.8398 18.4814C54.7632 18.4389 54.6858 18.3968 54.6074 18.3555C54.6858 18.3968 54.7632 18.4389 54.8398 18.4814ZM60.0381 18.373C59.987 18.3397 59.9352 18.3081 59.8828 18.2783C59.9352 18.3081 59.987 18.3397 60.0381 18.373ZM36.3896 18.291C36.3495 18.3143 36.3099 18.3389 36.2705 18.3643C36.3099 18.3389 36.3495 18.3143 36.3896 18.291ZM57.4092 18.0449C57.3261 18.074 57.243 18.1075 57.1602 18.1455C57.0771 18.1836 56.9943 18.2266 56.9121 18.2744C56.9939 18.2268 57.0765 18.1845 57.1592 18.1465C57.3255 18.0701 57.4927 18.0123 57.6582 17.9707L57.4092 18.0449ZM59.8535 18.2617C59.8001 18.2321 59.7459 18.2047 59.6914 18.1787C59.7459 18.2047 59.8001 18.2321 59.8535 18.2617ZM36.5957 18.1826C36.5515 18.2038 36.5073 18.2255 36.4639 18.249C36.5073 18.2255 36.5515 18.2038 36.5957 18.1826ZM6.79395 18.0176C6.81514 18.0863 6.83621 18.1548 6.85938 18.2227C6.83621 18.1548 6.81514 18.0863 6.79395 18.0176ZM59.6426 18.1562C59.5937 18.134 59.5446 18.1132 59.4951 18.0938C59.5446 18.1132 59.5937 18.134 59.6426 18.1562ZM36.792 18.0967C36.7472 18.1144 36.7026 18.1333 36.6582 18.1533C36.7026 18.1333 36.7472 18.1144 36.792 18.0967ZM59.4365 18.0713C59.382 18.0512 59.3274 18.0324 59.2725 18.0156C59.3274 18.0324 59.382 18.0512 59.4365 18.0713ZM37.0068 18.0205C36.9573 18.0359 36.9077 18.0522 36.8584 18.0703C36.9077 18.0522 36.9573 18.036 37.0068 18.0205ZM37.2627 17.9521C37.195 17.967 37.1272 17.9841 37.0596 18.0039C37.1272 17.9841 37.195 17.967 37.2627 17.9521ZM15.793 17.249C15.8514 17.473 15.9174 17.694 15.9873 17.9131C15.9174 17.694 15.8514 17.473 15.793 17.249ZM37.9365 17.8818V17.8828V17.8818ZM6.67676 17.5918C6.69843 17.6812 6.72016 17.7703 6.74512 17.8584C6.72016 17.7703 6.69844 17.6812 6.67676 17.5918ZM6.60254 17.249C6.61694 17.3242 6.63076 17.3993 6.64746 17.4736C6.63076 17.3993 6.61694 17.3242 6.60254 17.249ZM6.53418 16.8271C6.54526 16.9118 6.55536 16.9964 6.56934 17.0801C6.55536 16.9963 6.54526 16.9118 6.53418 16.8271ZM39.2412 16.5635H39.2422H39.2412ZM54.125 16.6758C54.1292 16.7434 54.1318 16.81 54.1318 16.875C54.1318 16.81 54.1292 16.7435 54.125 16.6758ZM6.48242 16.2979C6.48999 16.4303 6.50104 16.5619 6.51562 16.6924C6.50103 16.5619 6.48999 16.4303 6.48242 16.2979ZM42.1885 16.4766C42.184 16.5126 42.1819 16.5485 42.1787 16.584C42.1819 16.5485 42.184 16.5126 42.1885 16.4766ZM54.1172 16.584C54.1139 16.5485 54.111 16.5126 54.1064 16.4766C54.111 16.5126 54.1139 16.5485 54.1172 16.584ZM8.43164 16.4268C8.43525 16.4621 8.44102 16.4971 8.44531 16.5322C8.44035 16.4916 8.43471 16.451 8.43066 16.4102L8.43164 16.4268ZM54.0908 16.375C54.0847 16.3361 54.0781 16.2971 54.0703 16.2578C54.0781 16.2971 54.0847 16.3361 54.0908 16.375ZM42.2217 16.2773C42.2157 16.3084 42.21 16.3393 42.2051 16.3701C42.21 16.3393 42.2157 16.3084 42.2217 16.2773ZM54.0518 16.1719C54.0406 16.1229 54.0285 16.0737 54.0146 16.0244C54.0285 16.0737 54.0406 16.1229 54.0518 16.1719ZM42.2734 16.0537C42.2644 16.0873 42.2559 16.1208 42.248 16.1543C42.2559 16.1208 42.2644 16.0873 42.2734 16.0537ZM51.4814 15.9268C51.6351 15.9417 51.7729 16.0058 51.8848 16.1025C51.773 16.0056 51.6352 15.9418 51.4814 15.9268ZM15.4111 14.9121C15.4287 15.1589 15.4521 15.4037 15.4834 15.6465C15.4521 15.4037 15.4287 15.1589 15.4111 14.9121ZM53.999 15.9717C53.9837 15.9206 53.9667 15.8695 53.9482 15.8184C53.9667 15.8695 53.9837 15.9206 53.999 15.9717ZM44.7314 15.9385L44.7324 15.9395L44.7314 15.9385ZM42.3428 15.8311C42.3283 15.8718 42.3143 15.9124 42.3018 15.9531C42.3143 15.9124 42.3283 15.8718 42.3428 15.8311ZM42.4395 15.5928C42.4166 15.6426 42.3946 15.6922 42.375 15.7422C42.3946 15.6922 42.4166 15.6426 42.4395 15.5928ZM53.9199 15.7422C53.9008 15.6935 53.8796 15.6452 53.8574 15.5967C53.8796 15.6452 53.9008 15.6935 53.9199 15.7422ZM49.3281 15.6221H49.3291H49.3281ZM8.4668 15.0615C8.43949 15.2392 8.42046 15.4196 8.41113 15.6025L8.43262 15.3301C8.44184 15.2399 8.45314 15.1503 8.4668 15.0615ZM42.583 15.3174C42.5406 15.3881 42.5019 15.4594 42.4668 15.5312C42.5019 15.4594 42.5406 15.3881 42.583 15.3174ZM43.0557 14.7295C43.0352 14.7488 43.0169 14.7702 42.9971 14.79C43.0169 14.7702 43.0352 14.7488 43.0557 14.7295ZM43.2461 14.5664C43.2207 14.5862 43.1974 14.6083 43.1729 14.6289C43.1974 14.6083 43.2207 14.5862 43.2461 14.5664ZM43.4609 14.415C43.4258 14.4374 43.3922 14.4616 43.3584 14.4854C43.3922 14.4616 43.4258 14.4374 43.4609 14.415ZM43.6865 14.2871C43.6506 14.3053 43.6158 14.3251 43.5811 14.3447C43.6158 14.3251 43.6506 14.3053 43.6865 14.2871ZM43.9404 14.1758C43.8959 14.1927 43.8526 14.2114 43.8096 14.2305C43.8526 14.2114 43.8959 14.1927 43.9404 14.1758ZM17.3672 12.8506L17.3682 12.8496L17.3672 12.8506ZM15.3818 13.5811C15.3797 13.6506 15.3799 13.7203 15.3789 13.79C15.3819 13.5871 15.3881 13.3852 15.4004 13.1846L15.3818 13.5811ZM9.63574 12.4658C9.52574 12.5984 9.42317 12.7371 9.32617 12.8799C9.42316 12.7371 9.52575 12.5984 9.63574 12.4658ZM15.4717 12.4014H15.4727H15.4717ZM41.3174 11.9189C41.3064 11.8505 41.2962 11.782 41.2842 11.7139C41.2962 11.782 41.3064 11.8505 41.3174 11.9189ZM17.6602 11.2168H17.6611H17.6602ZM15.752 10.8779C15.6907 11.1265 15.6366 11.3779 15.5898 11.6318L15.666 11.2529C15.693 11.1274 15.7213 11.0021 15.752 10.8779ZM12.4502 10.6826H12.4512H12.4502ZM13.5205 10.5205C13.6126 10.5159 13.7056 10.5137 13.7988 10.5137C13.7055 10.5137 13.6127 10.5158 13.5205 10.5205ZM18.4062 9.18652H18.4072H18.4062ZM40.8545 9.99609C40.8372 9.94268 40.8207 9.88904 40.8027 9.83594C40.8207 9.88904 40.8372 9.94268 40.8545 9.99609ZM40.6445 9.39746C40.6241 9.34368 40.6041 9.28977 40.583 9.23633C40.6041 9.28977 40.6241 9.34367 40.6445 9.39746ZM16.3516 9.04492C16.2536 9.0087 16.1546 8.97448 16.0547 8.94238C16.1546 8.9745 16.2536 9.00871 16.3516 9.04492ZM40.5 9.0332C40.4938 9.01824 40.4877 9.00322 40.4814 8.98828C40.4877 9.00322 40.4938 9.01824 40.5 9.0332ZM16.0049 8.92773C15.9292 8.90403 15.8531 8.88165 15.7764 8.86035C15.853 8.88167 15.9292 8.90401 16.0049 8.92773ZM15.6768 8.83301C15.6098 8.81542 15.5424 8.79894 15.4746 8.7832C15.5423 8.79896 15.6098 8.81539 15.6768 8.83301ZM40.3867 8.76758C40.3705 8.73077 40.3545 8.69386 40.3379 8.65723C40.3545 8.69386 40.3705 8.73077 40.3867 8.76758ZM15.374 8.76074C15.3095 8.74671 15.2448 8.73303 15.1797 8.7207C15.2448 8.73305 15.3095 8.74669 15.374 8.76074ZM15.0547 8.69824C14.9941 8.68786 14.9332 8.67882 14.8721 8.66992C14.9332 8.67884 14.9941 8.68783 15.0547 8.69824ZM14.7588 8.65332C14.6981 8.64545 14.6373 8.63823 14.5762 8.63184C14.6373 8.63824 14.6981 8.64543 14.7588 8.65332ZM40.2695 8.51074C40.2534 8.47617 40.2372 8.44163 40.2207 8.40723C40.2372 8.44163 40.2534 8.47617 40.2695 8.51074ZM16.9707 7.75586C16.9134 7.85987 16.8591 7.96557 16.8047 8.07129C16.9319 7.8243 17.0656 7.58125 17.208 7.34375L16.9707 7.75586ZM39.9707 7.91309C39.9598 7.89265 39.9495 7.87193 39.9385 7.85156C39.9495 7.87193 39.9598 7.89265 39.9707 7.91309ZM39.6719 7.38379C39.6578 7.36008 39.6441 7.33611 39.6299 7.3125C39.6441 7.33611 39.6578 7.36008 39.6719 7.38379ZM17.7246 6.5498V6.54883V6.5498ZM38.9902 6.35156C38.9752 6.33107 38.9604 6.31044 38.9453 6.29004C38.9604 6.31044 38.9752 6.33107 38.9902 6.35156ZM38.7412 6.02637C38.6746 5.94104 38.6088 5.8551 38.54 5.77148C38.6088 5.8551 38.6746 5.94104 38.7412 6.02637ZM38.3447 5.54395C38.2774 5.46577 38.2107 5.3871 38.1416 5.31055C38.2107 5.38709 38.2774 5.46577 38.3447 5.54395ZM37.9326 5.08691C37.8573 5.00731 37.7824 4.9273 37.7051 4.84961C37.7824 4.92729 37.8573 5.00732 37.9326 5.08691ZM37.4941 4.64551C37.4207 4.57499 37.3475 4.50435 37.2725 4.43555C37.3475 4.50434 37.4207 4.575 37.4941 4.64551ZM37.0283 4.21875C36.9525 4.15262 36.8772 4.08588 36.7998 4.02148C36.8772 4.08587 36.9525 4.15263 37.0283 4.21875ZM36.5723 3.83887C36.4819 3.76699 36.3912 3.69549 36.2988 3.62598C36.3912 3.69549 36.4819 3.76699 36.5723 3.83887ZM35.9121 3.34375C35.8927 3.33022 35.873 3.31713 35.8535 3.30371C35.873 3.31713 35.8927 3.33022 35.9121 3.34375ZM35.4023 3.00586C35.3806 2.99214 35.3588 2.97843 35.3369 2.96484C35.3588 2.97843 35.3806 2.99215 35.4023 3.00586ZM34.8672 2.68652C34.8455 2.67427 34.8235 2.66252 34.8018 2.65039C34.8235 2.66252 34.8455 2.67427 34.8672 2.68652ZM34.3193 2.39355C34.2948 2.38118 34.2698 2.36965 34.2451 2.35742C34.2698 2.36965 34.2948 2.38118 34.3193 2.39355ZM33.7539 2.125C33.6915 2.09722 33.6284 2.07077 33.5654 2.04395C33.6284 2.07077 33.6915 2.09722 33.7539 2.125ZM33.4941 2.01367C33.4216 1.98327 33.3486 1.95393 33.2754 1.9248C33.3486 1.95393 33.4216 1.98328 33.4941 2.01367ZM33.1973 1.89258C33.1235 1.8638 33.049 1.83705 32.9746 1.80957C33.049 1.83704 33.1235 1.8638 33.1973 1.89258ZM32.8975 1.78027C32.8495 1.76289 32.8012 1.74633 32.7529 1.72949C32.8012 1.74633 32.8495 1.76289 32.8975 1.78027ZM32.5752 1.66797C32.4968 1.64189 32.4179 1.61741 32.3389 1.59277C32.4179 1.61741 32.4968 1.64189 32.5752 1.66797ZM32.3027 1.58105C32.2256 1.55724 32.1481 1.53414 32.0703 1.51172C32.1481 1.53414 32.2256 1.55724 32.3027 1.58105ZM31.9883 1.48828C31.935 1.47331 31.8816 1.45865 31.8281 1.44434C31.8816 1.45865 31.935 1.47331 31.9883 1.48828ZM31.3438 1.32422C31.3227 1.31943 31.3014 1.31523 31.2803 1.31055C31.3014 1.31523 31.3227 1.31943 31.3438 1.32422ZM30.8047 1.21484C30.3018 1.1229 29.7889 1.06019 29.2676 1.02734C29.7889 1.06019 30.3018 1.12291 30.8047 1.21484ZM42.0332 50.9941C42.1145 50.99 42.1952 50.9837 42.2754 50.9756C42.1952 50.9837 42.1145 50.99 42.0332 50.9941ZM43.2578 50.7686C43.3152 50.7501 43.3723 50.7314 43.4287 50.7109C43.3723 50.7314 43.3152 50.7501 43.2578 50.7686ZM10.1133 49.2764C10.1495 49.3198 10.1869 49.3622 10.2246 49.4043C10.1869 49.3622 10.1495 49.3198 10.1133 49.2764ZM61.1084 40.1582C61.0225 40.2599 60.9351 40.3607 60.8467 40.4609C60.9351 40.3607 61.0225 40.2599 61.1084 40.1582ZM11.3135 36.8594C11.3001 36.9143 11.2861 36.9692 11.2734 37.0244C11.2861 36.9692 11.3001 36.9143 11.3135 36.8594ZM11.0186 38.5732C11.0284 38.4779 11.0379 38.3828 11.0498 38.2881C11.0379 38.3828 11.0284 38.4779 11.0186 38.5732ZM12.1826 34.4062C12.1446 34.4866 12.1067 34.5672 12.0703 34.6484C12.1067 34.5672 12.1446 34.4866 12.1826 34.4062ZM64.2275 34.626C64.2528 34.5517 64.2739 34.4763 64.293 34.4004C64.274 34.4762 64.2528 34.5518 64.2275 34.626ZM31.9219 33.8867C31.9263 33.9537 31.9334 34.0204 31.9424 34.0869C31.9333 34.0204 31.9263 33.9537 31.9219 33.8867ZM44.1963 32.4766C44.2276 32.5222 44.2601 32.5669 44.293 32.6113C44.2601 32.5669 44.2276 32.5222 44.1963 32.4766ZM52.3594 32.0488C52.3908 31.9909 52.4212 31.9324 52.4502 31.873C52.4212 31.9324 52.3908 31.9909 52.3594 32.0488ZM52.4658 31.8398C52.4943 31.7805 52.5218 31.7208 52.5479 31.6602C52.5218 31.7208 52.4943 31.7805 52.4658 31.8398ZM52.7207 31.1895C52.74 31.1268 52.7587 31.0638 52.7754 31C52.7587 31.0638 52.74 31.1268 52.7207 31.1895ZM43.4375 30.6289C43.4436 30.6632 43.4492 30.6974 43.4561 30.7314C43.4492 30.6974 43.4436 30.6632 43.4375 30.6289ZM43.4375 30.6289C43.4309 30.5919 43.4237 30.5549 43.418 30.5176C43.4237 30.5549 43.4309 30.5919 43.4375 30.6289ZM20.4365 27.4453C20.3587 27.4671 20.2814 27.4905 20.2041 27.5137C20.2814 27.4905 20.3587 27.4671 20.4365 27.4453ZM21.0674 27.2852C20.9772 27.3056 20.8874 27.3273 20.7979 27.3496C20.8874 27.3273 20.9772 27.3056 21.0674 27.2852ZM42.1699 16.6748C42.1661 16.7361 42.1654 16.7964 42.165 16.8555C42.1654 16.7964 42.1661 16.7361 42.1699 16.6748ZM41.3379 12.042C41.3363 12.0316 41.3346 12.0212 41.333 12.0107C41.3346 12.0212 41.3363 12.0316 41.3379 12.042Z" fill="#2563EB"/>
</svg>
