<svg width="52" height="52" viewBox="0 0 52 52" fill="none" xmlns="http://www.w3.org/2000/svg">
<path d="M10.4111 0C12.9388 0.000320764 14.9861 2.05078 14.9863 4.57812V4.9668C16.6247 5.20218 17.8803 5.76481 18.9521 6.55176C19.6365 7.05425 20.2095 7.62122 20.7178 8.1543C21.2577 8.72062 21.6766 9.19263 22.2061 9.71094C23.1854 10.6696 24.3683 11.5984 26.3027 12.3086C28.0066 12.9341 30.3605 13.411 33.7578 13.5293V12.0293C33.7579 9.50168 35.8055 7.45141 38.333 7.45117H45.7793C48.3068 7.45132 50.3553 9.50154 50.3555 12.0293V17.6182C50.355 20.1458 48.3065 22.1952 45.7793 22.1953H38.333C35.8847 22.1951 33.8864 20.2717 33.7637 17.8535L33.7578 17.6182V17.0996C30.0272 16.9794 27.245 16.4537 25.0752 15.6572C22.5581 14.7332 20.9581 13.4825 19.7109 12.2617C19.1274 11.6905 18.5714 11.0731 18.1367 10.6172C17.75 10.2116 17.4056 9.87859 17.0557 9.59668C17.1358 10.0812 17.1863 10.57 17.2158 11.0527C17.3619 13.4464 17.0258 16.2176 16.7666 18.626C16.6698 19.525 16.586 20.3655 16.5283 21.1396C17.2829 19.6495 18.828 18.6271 20.6123 18.627H28.0586C30.5862 18.6271 32.6346 20.6784 32.6348 23.2061V26.249C33.2569 26.3757 33.8298 26.576 34.3467 26.8643C35.364 27.4318 36.0251 28.2551 36.4365 29.165C36.8299 30.0355 36.9898 30.9729 37.0723 31.8145C37.1535 32.6432 37.1719 33.553 37.2041 34.3057C37.2761 35.9858 37.4424 37.0894 37.9697 37.8232C38.2363 38.1942 38.6882 38.5819 39.5898 38.8379C39.8506 38.8186 40.1176 38.8011 40.3916 38.7881C40.9128 36.833 42.6934 35.3916 44.8125 35.3916H46.6738C49.2016 35.3916 51.2498 37.4431 51.25 39.9707V41.833C51.25 44.3609 49.2016 46.4111 46.6738 46.4111H44.8125C42.5436 46.4111 40.6616 44.7592 40.2998 42.5928C39.9633 42.5552 39.64 42.5049 39.3291 42.4424C37.8542 42.5844 36.7031 42.8336 35.7344 43.1396C34.1933 43.6265 33.0581 44.2638 31.6191 45.0166C30.1844 45.7672 28.5578 46.5662 26.248 47.1611C24.2736 47.6697 21.8517 48.0145 18.6592 48.1016C18.3309 50.3071 16.4305 51.9999 14.1338 52H10.4111C7.88342 52 5.83514 49.9496 5.83496 47.4219V45.5586C5.83522 43.0309 7.88344 40.9805 10.4111 40.9805H14.1338C16.309 40.9806 18.1264 42.4994 18.5918 44.5332C21.5599 44.4503 23.6996 44.1323 25.3584 43.7051C27.2784 43.2105 28.6237 42.5567 29.9658 41.8545C31.3048 41.154 32.752 40.3381 34.6602 39.7354C34.7419 39.7095 34.8248 39.6852 34.9082 39.6602C33.8336 37.9933 33.7043 35.9675 33.6396 34.459C33.6021 33.5814 33.591 32.861 33.5225 32.1621C33.4553 31.4769 33.3445 30.9876 33.1855 30.6357C33.0487 30.3331 32.8811 30.1389 32.6348 29.9951V32.5195C32.6347 35.0473 30.5862 37.0975 28.0586 37.0977H20.6123C18.0847 37.0974 16.0372 35.0472 16.0371 32.5195V29.3369C15.4511 29.1205 14.9244 28.7894 14.4775 28.332H14.4766C13.643 27.4785 13.2537 26.3694 13.0645 25.3213C12.696 23.2792 12.9613 20.6437 13.2197 18.2432C13.4932 15.7025 13.7786 13.2909 13.6553 11.2705C13.6221 10.7268 13.5589 10.2519 13.4727 9.83887C12.6627 10.5709 11.5908 11.0194 10.4111 11.0195H4.82617C2.29848 11.0195 0.250223 8.9691 0.25 6.44141V4.57812C0.250179 2.05039 2.29846 0 4.82617 0H10.4111ZM14.3174 50.9951C14.3751 50.9922 14.4323 50.9871 14.4893 50.9814C14.4323 50.9871 14.3751 50.9922 14.3174 50.9951ZM10.0537 50.9814C10.111 50.9871 10.1685 50.9922 10.2266 50.9951C10.1685 50.9922 10.111 50.9871 10.0537 50.9814ZM9.88574 50.9609C9.89644 50.9625 9.90724 50.9634 9.91797 50.9648C9.90724 50.9634 9.89644 50.9625 9.88574 50.9609ZM14.625 50.9648C14.6357 50.9634 14.6465 50.9625 14.6572 50.9609C14.6465 50.9625 14.6357 50.9634 14.625 50.9648ZM9.71875 50.9326C9.72589 50.934 9.73308 50.9352 9.74023 50.9365C9.73308 50.9352 9.72589 50.934 9.71875 50.9326ZM9.38379 50.8486C9.39809 50.8529 9.41238 50.8572 9.42676 50.8613C9.41238 50.8572 9.39809 50.8529 9.38379 50.8486ZM15.1191 50.8604C15.1324 50.8565 15.1459 50.8536 15.1592 50.8496C15.1459 50.8536 15.1324 50.8565 15.1191 50.8604ZM9.2207 50.7959C9.2433 50.8039 9.26626 50.8108 9.28906 50.8184C9.26626 50.8108 9.2433 50.8039 9.2207 50.7959ZM15.2686 50.8145C15.2849 50.809 15.3012 50.8035 15.3174 50.7979C15.3012 50.8035 15.2849 50.809 15.2686 50.8145ZM15.4102 50.7637C15.4396 50.7524 15.469 50.7415 15.498 50.7295C15.469 50.7415 15.4396 50.7524 15.4102 50.7637ZM9.07031 50.7393C9.08454 50.745 9.09896 50.7503 9.11328 50.7559C9.09896 50.7503 9.08454 50.745 9.07031 50.7393ZM15.5625 50.7012C15.5819 50.6927 15.6009 50.6836 15.6201 50.6748C15.6009 50.6836 15.5819 50.6927 15.5625 50.7012ZM8.93066 50.6787C8.93981 50.6829 8.94882 50.6873 8.95801 50.6914C8.94882 50.6873 8.93981 50.6829 8.93066 50.6787ZM8.63379 50.5264C8.64226 50.5312 8.65066 50.5362 8.65918 50.541C8.65066 50.5362 8.64226 50.5312 8.63379 50.5264ZM15.8867 50.5391C15.8926 50.5358 15.8985 50.5326 15.9043 50.5293C15.8985 50.5326 15.8926 50.5358 15.8867 50.5391ZM8.3623 50.3535C8.36955 50.3586 8.3765 50.3641 8.38379 50.3691C8.3765 50.3641 8.36955 50.3586 8.3623 50.3535ZM16.1611 50.3672C16.1663 50.3636 16.1716 50.3601 16.1768 50.3564C16.1716 50.3601 16.1663 50.3636 16.1611 50.3672ZM8.10547 50.1562C8.11235 50.1621 8.11906 50.1681 8.12598 50.1738C8.11906 50.1681 8.11235 50.1621 8.10547 50.1562ZM16.418 50.1738C16.4251 50.1679 16.4314 50.1612 16.4385 50.1553C16.4314 50.1612 16.4251 50.1679 16.418 50.1738ZM16.8643 49.7285C16.8705 49.7211 16.8776 49.7145 16.8838 49.707C16.8776 49.7145 16.8705 49.7211 16.8643 49.7285ZM7.65918 49.707C7.66507 49.7141 7.6718 49.7205 7.67773 49.7275C7.67179 49.7205 7.66507 49.7141 7.65918 49.707ZM17.0576 49.4785C17.0661 49.4665 17.0747 49.4545 17.083 49.4424C17.0747 49.4545 17.0661 49.4665 17.0576 49.4785ZM10.4111 44.5488C9.85487 44.5488 9.4026 45.0003 9.40234 45.5586V47.4219C9.40252 47.9802 9.85479 48.4316 10.4111 48.4316H14.1338C14.69 48.4315 15.1424 47.9801 15.1426 47.4219V45.5586C15.1423 45.0004 14.69 44.5489 14.1338 44.5488H10.4111ZM7.28906 49.166C7.29596 49.1784 7.30253 49.1909 7.30957 49.2031C7.30253 49.1909 7.29596 49.1784 7.28906 49.166ZM17.2344 49.2021C17.2413 49.1901 17.2481 49.1781 17.2549 49.166C17.2481 49.1781 17.2413 49.1901 17.2344 49.2021ZM7.1416 48.8711C7.14621 48.8815 7.15057 48.892 7.15527 48.9023C7.15057 48.892 7.14621 48.8815 7.1416 48.8711ZM17.3887 48.9023C17.3934 48.892 17.3977 48.8815 17.4023 48.8711C17.3977 48.8815 17.3934 48.892 17.3887 48.9023ZM7.07324 48.707C7.08181 48.7293 7.09062 48.7514 7.09961 48.7734C7.09062 48.7514 7.08181 48.7293 7.07324 48.707ZM17.4443 48.7734C17.4534 48.7513 17.4631 48.7294 17.4717 48.707C17.4631 48.7294 17.4534 48.7513 17.4443 48.7734ZM6.99219 48.4736C7.00599 48.5186 7.02062 48.5632 7.03613 48.6074C7.02062 48.5632 7.006 48.5186 6.99219 48.4736ZM17.5078 48.6074C17.5151 48.5867 17.5224 48.5659 17.5293 48.5449C17.5224 48.5659 17.5151 48.5867 17.5078 48.6074ZM17.6377 48.1318C17.6452 48.0946 17.6528 48.0572 17.6592 48.0195C17.6528 48.0572 17.6452 48.0946 17.6377 48.1318ZM6.9209 48.2012C6.92773 48.2319 6.93477 48.2625 6.94238 48.293C6.93477 48.2625 6.92773 48.2319 6.9209 48.2012ZM16.085 47.8887C16.0899 47.8678 16.0972 47.8473 16.1016 47.8262L16.1035 47.8145C16.0985 47.8395 16.0909 47.8639 16.085 47.8887ZM18.374 47.1094C18.1564 47.1143 17.9351 47.1186 17.71 47.1211C18.1603 47.1162 18.5952 47.1064 19.0156 47.0918L18.374 47.1094ZM26.6543 46.0107C26.6754 46.0046 26.6968 45.9994 26.7178 45.9932C26.6968 45.9994 26.6754 46.0046 26.6543 46.0107ZM27.0488 45.8896C27.1783 45.8491 27.3058 45.8093 27.4307 45.7676C27.3058 45.8094 27.1783 45.8491 27.0488 45.8896ZM27.7549 45.6553C27.8777 45.6119 27.9986 45.5689 28.1172 45.5244C27.9986 45.5689 27.8777 45.6119 27.7549 45.6553ZM6.84863 45.249C6.84084 45.3399 6.83682 45.4317 6.83594 45.5244C6.83682 45.4317 6.84084 45.3399 6.84863 45.249ZM28.3867 45.4209C28.5022 45.3757 28.6158 45.3302 28.7275 45.2842C28.6158 45.3302 28.5022 45.3757 28.3867 45.4209ZM44.4551 45.3926C44.4687 45.3939 44.4824 45.3953 44.4961 45.3965C44.4824 45.3953 44.4687 45.3939 44.4551 45.3926ZM46.9961 45.3955C47.0075 45.3945 47.0189 45.3937 47.0303 45.3926C47.0189 45.3937 47.0075 45.3945 46.9961 45.3955ZM43.9297 45.3008C43.9572 45.3078 43.9849 45.314 44.0127 45.3203C43.9849 45.314 43.9572 45.3078 43.9297 45.3008ZM47.4727 45.3203C47.5004 45.314 47.5281 45.3078 47.5557 45.3008C47.5281 45.3078 47.5004 45.314 47.4727 45.3203ZM17.5498 44.5039C17.6242 44.7454 17.6736 44.9975 17.6953 45.2578C17.6736 44.9975 17.6242 44.7454 17.5498 44.5039ZM43.6094 45.2031C43.62 45.2069 43.6309 45.2102 43.6416 45.2139C43.6309 45.2102 43.62 45.2069 43.6094 45.2031ZM47.8438 45.2139C47.8545 45.2102 47.8653 45.2069 47.876 45.2031C47.8653 45.2069 47.8545 45.2102 47.8438 45.2139ZM43.4434 45.1387C43.464 45.1472 43.485 45.1549 43.5059 45.1631C43.485 45.1549 43.464 45.1472 43.4434 45.1387ZM47.9795 45.1631C48.0003 45.1549 48.0213 45.1472 48.042 45.1387C48.0213 45.1472 48.0003 45.1549 47.9795 45.1631ZM29.0371 45.1543C29.1205 45.1184 29.2027 45.0821 29.2842 45.0459C29.2027 45.0821 29.1205 45.1184 29.0371 45.1543ZM43.29 45.0703C43.312 45.0807 43.3342 45.0906 43.3564 45.1006C43.3342 45.0906 43.312 45.0807 43.29 45.0703ZM48.1445 45.0938C48.1589 45.0873 48.1733 45.0809 48.1875 45.0742C48.1733 45.0809 48.1589 45.0873 48.1445 45.0938ZM43.1348 44.9932C43.1563 45.0047 43.1784 45.0153 43.2002 45.0264C43.1784 45.0153 43.1563 45.0047 43.1348 44.9932ZM48.3105 45.0137C48.3199 45.0089 48.3296 45.0049 48.3389 45C48.3296 45.0049 48.3199 45.0089 48.3105 45.0137ZM42.9893 44.9111C43.0086 44.9226 43.0283 44.9332 43.0479 44.9443C43.0283 44.9332 43.0086 44.9226 42.9893 44.9111ZM48.4531 44.9365C48.4649 44.9298 48.4766 44.9229 48.4883 44.916C48.4766 44.9229 48.4649 44.9298 48.4531 44.9365ZM29.583 44.9111C29.6779 44.8674 29.7716 44.8234 29.8643 44.7793C29.7716 44.8234 29.6779 44.8673 29.583 44.9111ZM42.834 44.8125C42.8576 44.8283 42.8812 44.8442 42.9053 44.8594C42.8812 44.8442 42.8576 44.8283 42.834 44.8125ZM48.5811 44.8594C48.6073 44.8428 48.6334 44.8259 48.6592 44.8086C48.6334 44.8259 48.6073 44.8428 48.5811 44.8594ZM48.7021 44.7793C48.7335 44.7577 48.7643 44.7355 48.7949 44.7129C48.7643 44.7355 48.7335 44.7577 48.7021 44.7793ZM42.7021 44.7207C42.7253 44.7377 42.7489 44.7541 42.7725 44.7705C42.7489 44.7541 42.7253 44.7377 42.7021 44.7207ZM6.94629 44.6709C6.94034 44.6942 6.93518 44.7177 6.92969 44.7412C6.93518 44.7177 6.94034 44.6942 6.94629 44.6709ZM42.5752 44.624C42.5926 44.638 42.6103 44.6514 42.6279 44.665C42.6103 44.6514 42.5926 44.638 42.5752 44.624ZM48.8584 44.665C48.8758 44.6516 48.893 44.6378 48.9102 44.624C48.893 44.6378 48.8758 44.6516 48.8584 44.665ZM42.4463 44.5146C42.4593 44.5261 42.4722 44.5376 42.4854 44.5488C42.4722 44.5376 42.4593 44.5261 42.4463 44.5146ZM49.001 44.5488C49.0139 44.5377 49.0263 44.5259 49.0391 44.5146C49.0263 44.5259 49.0139 44.5377 49.001 44.5488ZM42.3203 44.3984C42.3343 44.4121 42.349 44.4251 42.3633 44.4385C42.349 44.4251 42.3343 44.4121 42.3203 44.3984ZM49.123 44.4385C49.1371 44.4252 49.1512 44.4119 49.165 44.3984C49.1512 44.4119 49.1371 44.4252 49.123 44.4385ZM17.4707 44.2764C17.4587 44.2451 17.4474 44.2135 17.4346 44.1826C17.4474 44.2135 17.4587 44.2451 17.4707 44.2764ZM7.04688 44.3438C7.03675 44.3718 7.02799 44.4003 7.01855 44.4287C7.02799 44.4003 7.03675 44.3718 7.04688 44.3438ZM42.1943 44.2686C42.2157 44.2915 42.2369 44.3145 42.2588 44.3369C42.2369 44.3145 42.2157 44.2915 42.1943 44.2686ZM49.2354 44.3291C49.2532 44.3108 49.2706 44.2921 49.2881 44.2734C49.2706 44.2921 49.2532 44.3108 49.2354 44.3291ZM7.10938 44.1826C7.10157 44.2014 7.09441 44.2204 7.08691 44.2393C7.09441 44.2204 7.10156 44.2014 7.10938 44.1826ZM17.3965 44.0967C17.3851 44.0713 17.3743 44.0456 17.3623 44.0205C17.3743 44.0456 17.3851 44.0713 17.3965 44.0967ZM7.1748 44.0352C7.17176 44.0416 7.16902 44.0482 7.16602 44.0547C7.16902 44.0482 7.17176 44.0416 7.1748 44.0352ZM41.877 43.875C41.894 43.8996 41.911 43.9241 41.9287 43.9482C41.911 43.9241 41.894 43.8996 41.877 43.875ZM7.25195 43.8799C7.24047 43.9015 7.2298 43.9235 7.21875 43.9453C7.2298 43.9235 7.24047 43.9015 7.25195 43.8799ZM49.5605 43.9434C49.5729 43.9264 49.5856 43.9097 49.5977 43.8926C49.5856 43.9097 49.5729 43.9264 49.5605 43.9434ZM17.3018 43.9014C17.2978 43.8939 17.294 43.8864 17.29 43.8789C17.294 43.8864 17.2978 43.8939 17.3018 43.9014ZM44.8125 38.96C44.2563 38.96 43.8038 39.4122 43.8037 39.9707V41.833C43.8037 42.3914 44.2561 42.8427 44.8125 42.8428H46.6738C47.2303 42.8428 47.6826 42.3914 47.6826 41.833V39.9707C47.6825 39.4122 47.23 38.96 46.6738 38.96H44.8125ZM41.7852 43.7363C41.7991 43.7585 41.8127 43.7809 41.8271 43.8027C41.8127 43.7809 41.7991 43.7585 41.7852 43.7363ZM7.33105 43.7393C7.32105 43.7562 7.31247 43.7739 7.30273 43.791C7.31247 43.7739 7.32105 43.7562 7.33105 43.7393ZM17.2256 43.7627C17.2204 43.7539 17.2152 43.7451 17.21 43.7363C17.2152 43.7451 17.2205 43.7539 17.2256 43.7627ZM41.6973 43.5898C41.7096 43.6117 41.7216 43.6337 41.7344 43.6553C41.7216 43.6337 41.7096 43.6117 41.6973 43.5898ZM49.752 43.6553C49.7647 43.6337 49.7767 43.6117 49.7891 43.5898C49.7767 43.6117 49.7647 43.6337 49.752 43.6553ZM17.1455 43.6318C17.1361 43.6171 17.1268 43.6024 17.1172 43.5879C17.1268 43.6024 17.1361 43.6171 17.1455 43.6318ZM7.42188 43.5947C7.41463 43.6057 7.40751 43.6168 7.40039 43.6279C7.40751 43.6168 7.41463 43.6057 7.42188 43.5947ZM10.0059 43.5898C9.98111 43.5949 9.95702 43.6024 9.93262 43.6084C9.96115 43.6014 9.98956 43.5936 10.0186 43.5879L10.0059 43.5898ZM7.52246 43.4502C7.51132 43.4654 7.50016 43.4807 7.48926 43.4961C7.50016 43.4807 7.51132 43.4654 7.52246 43.4502ZM17.0547 43.4961C17.0445 43.4816 17.0339 43.4674 17.0234 43.4531C17.0339 43.4674 17.0445 43.4816 17.0547 43.4961ZM41.5303 43.2539C41.5465 43.2913 41.5627 43.3285 41.5801 43.3652C41.5627 43.3285 41.5465 43.2913 41.5303 43.2539ZM49.9053 43.3652C49.9227 43.3284 49.9398 43.2914 49.9561 43.2539C49.9398 43.2914 49.9227 43.3284 49.9053 43.3652ZM29.2139 43.3506C29.2709 43.3234 29.3284 43.2979 29.3848 43.2705L29.4512 43.2373C29.3729 43.2757 29.2934 43.3126 29.2139 43.3506ZM7.62207 43.3203C7.61526 43.3288 7.6083 43.3372 7.60156 43.3457C7.6083 43.3372 7.61526 43.3288 7.62207 43.3203ZM16.9395 43.3418C16.9337 43.3345 16.9277 43.3275 16.9219 43.3203C16.9277 43.3275 16.9337 43.3345 16.9395 43.3418ZM7.73828 43.1816C7.72003 43.2022 7.70235 43.2232 7.68457 43.2441C7.70235 43.2232 7.72003 43.2022 7.73828 43.1816ZM16.8535 43.2373C16.8351 43.2157 16.8168 43.194 16.7979 43.1729C16.8168 43.194 16.8351 43.2157 16.8535 43.2373ZM41.4756 43.1201C41.4852 43.145 41.4948 43.1698 41.5049 43.1943C41.4948 43.1698 41.4852 43.145 41.4756 43.1201ZM49.9814 43.1943C49.9916 43.1698 50.0012 43.145 50.0107 43.1201C50.0012 43.145 49.9916 43.1698 49.9814 43.1943ZM7.8623 43.0488C7.83937 43.0721 7.81721 43.0962 7.79492 43.1201C7.81721 43.0962 7.83937 43.0721 7.8623 43.0488ZM16.7373 43.1074C16.7274 43.0969 16.7171 43.0866 16.707 43.0762C16.7171 43.0866 16.7274 43.0969 16.7373 43.1074ZM41.4189 42.9619C41.4281 42.9896 41.4364 43.0175 41.4463 43.0449C41.4364 43.0175 41.4281 42.9896 41.4189 42.9619ZM50.0391 43.0449C50.0489 43.0174 50.0582 42.9897 50.0674 42.9619C50.0582 42.9897 50.049 43.0174 50.0391 43.0449ZM7.98145 42.9336C7.95831 42.955 7.93565 42.977 7.91309 42.999C7.93565 42.977 7.95831 42.955 7.98145 42.9336ZM16.6162 42.9844C16.6063 42.9748 16.596 42.9655 16.5859 42.9561C16.596 42.9655 16.6063 42.9748 16.6162 42.9844ZM8.11328 42.8174C8.08429 42.8417 8.05554 42.8664 8.02734 42.8916C8.05554 42.8664 8.08429 42.8417 8.11328 42.8174ZM8.23633 42.7178C8.20857 42.7391 8.1814 42.7611 8.1543 42.7832C8.1814 42.7611 8.20857 42.7391 8.23633 42.7178ZM8.3584 42.6279C8.33858 42.6419 8.31933 42.6566 8.2998 42.6709C8.31933 42.6566 8.33857 42.6419 8.3584 42.6279ZM16.2275 42.6592C16.2137 42.6492 16.1995 42.6397 16.1855 42.6299C16.1995 42.6397 16.2137 42.6492 16.2275 42.6592ZM41.2871 42.4307C41.2963 42.4851 41.3068 42.5392 41.3184 42.5928C41.3068 42.5392 41.2963 42.4851 41.2871 42.4307ZM16.1016 42.5723C16.0799 42.558 16.0581 42.5441 16.0361 42.5303C16.0581 42.5441 16.0799 42.558 16.1016 42.5723ZM8.5127 42.5273C8.49165 42.5406 8.46997 42.5528 8.44922 42.5664C8.46997 42.5528 8.49165 42.5406 8.5127 42.5273ZM8.65918 42.4385C8.62803 42.456 8.59697 42.4737 8.56641 42.4922C8.59697 42.4737 8.62802 42.456 8.65918 42.4385ZM15.9482 42.4756C15.9289 42.4642 15.9092 42.4534 15.8896 42.4424C15.9092 42.4534 15.9289 42.4642 15.9482 42.4756ZM15.8213 42.4033C15.7878 42.3854 15.7538 42.3685 15.7197 42.3516C15.7538 42.3685 15.7878 42.3854 15.8213 42.4033ZM8.77441 42.377C8.76238 42.3832 8.75024 42.3892 8.73828 42.3955C8.75024 42.3892 8.76238 42.3832 8.77441 42.377ZM15.665 42.3252C15.6351 42.3109 15.6046 42.2976 15.5742 42.2842C15.6046 42.2976 15.6351 42.3109 15.665 42.3252ZM48.6221 42.3145C48.6283 42.2891 48.6363 42.264 48.6416 42.2383L48.6436 42.2256C48.6376 42.2556 48.6293 42.2849 48.6221 42.3145ZM42.8447 42.2383C42.8467 42.2479 42.8504 42.2571 42.8525 42.2666C42.8495 42.2529 42.8455 42.2394 42.8428 42.2256L42.8447 42.2383ZM9.12402 42.2197C9.09263 42.2318 9.06123 42.2439 9.03027 42.2568C9.06123 42.2439 9.09263 42.2318 9.12402 42.2197ZM15.5059 42.2539C15.482 42.244 15.4577 42.235 15.4336 42.2256C15.4577 42.235 15.482 42.244 15.5059 42.2539ZM9.27051 42.167C9.24678 42.175 9.22272 42.182 9.19922 42.1904C9.22272 42.182 9.24678 42.175 9.27051 42.167ZM15.0898 42.1104C15.1732 42.1334 15.2552 42.1596 15.3359 42.1885C15.2552 42.1596 15.1732 42.1334 15.0898 42.1104ZM9.4043 42.125C9.39193 42.1286 9.3795 42.132 9.36719 42.1357C9.3795 42.132 9.39193 42.1286 9.4043 42.125ZM9.57422 42.0791C9.64629 42.0618 9.71927 42.047 9.79297 42.0342C9.71927 42.047 9.64629 42.0618 9.57422 42.0791ZM32.3311 41.7578C32.2868 41.7794 32.2431 41.8015 32.1992 41.8232C32.2431 41.8015 32.2868 41.7794 32.3311 41.7578ZM32.8936 41.4932C32.8185 41.5274 32.7437 41.561 32.6699 41.5957C32.7437 41.561 32.8185 41.5275 32.8936 41.4932ZM33.4785 41.2363C33.3732 41.2805 33.2687 41.324 33.166 41.3691C33.2687 41.324 33.3732 41.2805 33.4785 41.2363ZM34.3047 40.9121C34.1074 40.9835 33.9151 41.0564 33.7275 41.1318C33.9151 41.0564 34.1074 40.9835 34.3047 40.9121ZM48.5918 39.373H48.5928H48.5918ZM44.6348 36.3955C44.3999 36.407 44.171 36.4414 43.9502 36.4961C43.7845 36.5372 43.6234 36.59 43.4678 36.6533C43.3636 36.6957 43.2621 36.7433 43.1631 36.7949C43.6072 36.5634 44.1058 36.4214 44.6348 36.3955ZM47.2188 36.4336C47.4553 36.4698 47.6844 36.5282 47.9033 36.6084C47.6844 36.5282 47.4553 36.4698 47.2188 36.4336ZM28.415 36.0791C28.2979 36.0907 28.1788 36.0976 28.0586 36.0977C28.1789 36.0976 28.2978 36.0907 28.415 36.0791ZM20.2539 36.0791C20.3718 36.0909 20.4913 36.0976 20.6123 36.0977C20.4913 36.0976 20.3718 36.0909 20.2539 36.0791ZM19.9102 36.0283C19.9176 36.0298 19.9252 36.0308 19.9326 36.0322C19.9252 36.0308 19.9176 36.0298 19.9102 36.0283ZM19.7285 35.9873C19.7563 35.9944 19.7844 36.0004 19.8125 36.0068C19.7844 36.0004 19.7563 35.9944 19.7285 35.9873ZM28.8574 36.0068C28.8855 36.0004 28.9136 35.9944 28.9414 35.9873C28.9136 35.9944 28.8855 36.0004 28.8574 36.0068ZM19.5566 35.9385C19.5951 35.9503 19.6339 35.9611 19.6729 35.9717C19.6339 35.9611 19.5951 35.9503 19.5566 35.9385ZM29.0273 35.9639C29.0552 35.9561 29.0828 35.9479 29.1104 35.9395C29.0828 35.9479 29.0552 35.9561 29.0273 35.9639ZM29.1787 35.917C29.2071 35.9076 29.2356 35.8987 29.2637 35.8887C29.2356 35.8987 29.2071 35.9076 29.1787 35.917ZM19.2432 35.8252C19.2584 35.8315 19.2737 35.8376 19.2891 35.8438C19.2737 35.8376 19.2584 35.8315 19.2432 35.8252ZM29.3818 35.8438C29.3943 35.8388 29.4065 35.8332 29.4189 35.8281C29.4065 35.8332 29.3943 35.8388 29.3818 35.8438ZM19.0781 35.752C19.1023 35.7635 19.1269 35.7742 19.1514 35.7852C19.1269 35.7742 19.1023 35.7635 19.0781 35.752ZM29.5449 35.7734C29.5534 35.7696 29.5619 35.7657 29.5703 35.7617C29.5619 35.7657 29.5534 35.7696 29.5449 35.7734ZM18.9238 35.6738C18.9541 35.6901 18.9849 35.7053 19.0156 35.7207C18.9849 35.7053 18.9541 35.6901 18.9238 35.6738ZM29.6768 35.71C29.7005 35.6979 29.7246 35.6864 29.748 35.6738C29.7246 35.6864 29.7005 35.6979 29.6768 35.71ZM36.2812 35.5381C36.2862 35.5896 36.2944 35.6405 36.2998 35.6914C36.2919 35.6172 36.2822 35.5425 36.2754 35.4668L36.2812 35.5381ZM29.8135 35.6367C29.8374 35.6232 29.8612 35.6097 29.8848 35.5957C29.8612 35.6097 29.8374 35.6232 29.8135 35.6367ZM18.7891 35.5977C18.8094 35.6097 18.83 35.6211 18.8506 35.6328C18.83 35.6211 18.8094 35.6097 18.7891 35.5977ZM18.624 35.4932C18.6545 35.5136 18.6856 35.5332 18.7168 35.5527C18.6856 35.5332 18.6545 35.5136 18.624 35.4932ZM29.9785 35.5381C29.994 35.5282 30.0091 35.5179 30.0244 35.5078C30.0091 35.5179 29.994 35.5282 29.9785 35.5381ZM18.5107 35.4131C18.5251 35.4235 18.5392 35.4341 18.5537 35.4443C18.5392 35.4341 18.5251 35.4235 18.5107 35.4131ZM30.1357 35.4316C30.1433 35.4262 30.1507 35.4205 30.1582 35.415C30.1507 35.4205 30.1433 35.4262 30.1357 35.4316ZM18.375 35.3096C18.388 35.32 18.4009 35.3306 18.4141 35.3408C18.4009 35.3306 18.388 35.32 18.375 35.3096ZM18.2275 35.1846C18.2561 35.2101 18.2851 35.2351 18.3145 35.2598C18.2851 35.2351 18.2561 35.2101 18.2275 35.1846ZM30.3691 35.249C30.3931 35.2287 30.417 35.2084 30.4404 35.1875C30.417 35.2084 30.3931 35.2287 30.3691 35.249ZM18.1201 35.085C18.1378 35.1021 18.1558 35.1189 18.1738 35.1357C18.1558 35.1189 18.1378 35.1021 18.1201 35.085ZM30.5059 35.127C30.5158 35.1176 30.5254 35.1081 30.5352 35.0986C30.5254 35.1081 30.5158 35.1176 30.5059 35.127ZM17.9873 34.9482C18.0108 34.9736 18.0344 34.9988 18.0586 35.0234C18.0344 34.9988 18.0108 34.9736 17.9873 34.9482ZM30.6289 35.0059C30.6449 34.9893 30.6611 34.9729 30.6768 34.9561C30.6611 34.9729 30.6449 34.9893 30.6289 35.0059ZM17.8682 34.8135C17.8908 34.8406 17.9141 34.8671 17.9375 34.8936C17.9141 34.8671 17.8908 34.8406 17.8682 34.8135ZM30.7393 34.8857C30.7518 34.8715 30.7641 34.8572 30.7764 34.8428C30.7641 34.8572 30.7518 34.8715 30.7393 34.8857ZM17.7637 34.6807C17.7899 34.7152 17.8163 34.7496 17.8438 34.7832C17.8163 34.7496 17.7899 34.7152 17.7637 34.6807ZM30.8438 34.7627C30.8602 34.7423 30.8766 34.7219 30.8926 34.7012C30.8766 34.7219 30.8602 34.7423 30.8438 34.7627ZM17.6768 34.5615C17.695 34.5878 17.7135 34.6139 17.7324 34.6396C17.7135 34.6139 17.695 34.5878 17.6768 34.5615ZM20.6123 22.1953C20.0562 22.1955 19.6036 22.6477 19.6035 23.2061V32.5195C19.6036 33.0777 20.0561 33.5291 20.6123 33.5293H28.0586C28.6151 33.5292 29.0673 33.0777 29.0674 32.5195V23.2061C29.0673 22.6477 28.6149 22.1954 28.0586 22.1953H20.6123ZM17.5645 34.3896C17.5858 34.4245 17.6074 34.4591 17.6299 34.4932C17.6074 34.4591 17.5858 34.4245 17.5645 34.3896ZM31.0449 34.4883C31.0606 34.4645 31.0757 34.4402 31.0908 34.416C31.0757 34.4402 31.0606 34.4645 31.0449 34.4883ZM17.4785 34.2432C17.4245 34.145 17.3749 34.044 17.3301 33.9404C17.3749 34.044 17.4244 34.145 17.4785 34.2432ZM36.2051 34.3486C36.1913 34.0266 36.1795 33.6928 36.166 33.3564C36.1794 33.6928 36.1913 34.0266 36.2051 34.3486ZM31.1367 34.3398C31.147 34.3224 31.157 34.3047 31.167 34.2871C31.157 34.3047 31.147 34.3224 31.1367 34.3398ZM31.291 34.0498C31.3081 34.0136 31.3249 33.9772 31.3408 33.9404C31.3249 33.9773 31.3082 34.0136 31.291 34.0498ZM17.2734 33.7998C17.2838 33.8269 17.2937 33.8541 17.3047 33.8809C17.2937 33.8541 17.2838 33.8269 17.2734 33.7998ZM31.3662 33.8809C31.3729 33.8645 31.3783 33.8475 31.3848 33.8311C31.3783 33.8475 31.373 33.8645 31.3662 33.8809ZM17.0771 33.0625C17.0948 33.1787 17.1189 33.293 17.1475 33.4053C17.1189 33.293 17.0948 33.1787 17.0771 33.0625ZM18.6445 32.9248C18.6489 32.946 18.6561 32.9664 18.6611 32.9873C18.6552 32.9623 18.6476 32.9375 18.6426 32.9121L18.6445 32.9248ZM30.0107 32.9873C30.0157 32.9664 30.023 32.946 30.0273 32.9248L30.0293 32.9121C30.0243 32.9375 30.0167 32.9623 30.0107 32.9873ZM36.0195 31.4355C36.0157 31.4073 36.0129 31.3788 36.0088 31.3506C36.0129 31.3788 36.0157 31.4073 36.0195 31.4355ZM35.9473 30.9814C35.9343 30.9122 35.9209 30.8432 35.9062 30.7744C35.9209 30.8432 35.9344 30.9122 35.9473 30.9814ZM35.8818 30.666C35.8689 30.6095 35.8551 30.5532 35.8408 30.4971C35.8551 30.5532 35.8689 30.6095 35.8818 30.666ZM35.8154 30.3975C35.7957 30.325 35.7742 30.2532 35.752 30.1816C35.7742 30.2532 35.7957 30.325 35.8154 30.3975ZM35.3857 29.2959C35.3398 29.2106 35.291 29.127 35.2393 29.0449C35.291 29.127 35.3398 29.2106 35.3857 29.2959ZM33.2666 29.2109C33.3207 29.2473 33.3724 29.2855 33.4219 29.3252C33.3724 29.2855 33.3207 29.2473 33.2666 29.2109ZM35.2119 29.0039C35.1674 28.9353 35.1211 28.8678 35.0723 28.8018C35.1211 28.8678 35.1674 28.9353 35.2119 29.0039ZM35.0371 28.7568C34.9938 28.7001 34.9491 28.6444 34.9023 28.5898C34.9491 28.6444 34.9939 28.7001 35.0371 28.7568ZM34.835 28.5127C34.7907 28.4637 34.7446 28.4162 34.6973 28.3691C34.7446 28.4162 34.7907 28.4637 34.835 28.5127ZM34.6289 28.3018C34.5735 28.2494 34.5156 28.1991 34.4561 28.1494C34.5156 28.1991 34.5735 28.2494 34.6289 28.3018ZM13.9209 24.0977C13.9242 24.1435 13.9288 24.189 13.9326 24.2344C13.9288 24.189 13.9242 24.1435 13.9209 24.0977ZM13.9004 23.75C13.9032 23.809 13.9067 23.8675 13.9102 23.9258C13.9067 23.8675 13.9032 23.809 13.9004 23.75ZM13.8867 23.3662C13.888 23.4248 13.8897 23.4831 13.8916 23.541C13.8897 23.4831 13.888 23.4248 13.8867 23.3662ZM30.0576 23C30.0439 22.865 30.0157 22.7342 29.9766 22.6084C30.0157 22.7342 30.0439 22.865 30.0576 23ZM29.0156 21.4385C29.1294 21.5003 29.2368 21.5724 29.3359 21.6543C29.4354 21.7364 29.5263 21.8282 29.6084 21.9277V21.9268C29.4446 21.7283 29.2433 21.5622 29.0156 21.4385ZM19.0625 21.9268C19.0607 21.9289 19.0594 21.9314 19.0576 21.9336C19.1001 21.8816 19.145 21.8316 19.1924 21.7842L19.0625 21.9268ZM13.9492 21.2217C13.9355 21.4269 13.9228 21.6305 13.9131 21.832C13.9228 21.6305 13.9355 21.4269 13.9492 21.2217ZM28.2637 21.2061C28.399 21.2198 28.5303 21.2468 28.6562 21.2861C28.5303 21.2469 28.3989 21.2198 28.2637 21.2061ZM37.9756 21.1768C37.9892 21.1781 38.0029 21.1795 38.0166 21.1807C38.0029 21.1795 37.9892 21.1781 37.9756 21.1768ZM37.627 21.125C37.6428 21.1282 37.6588 21.1308 37.6748 21.1338C37.6588 21.1308 37.6428 21.1282 37.627 21.125ZM37.4502 21.085C37.4822 21.0931 37.5145 21.1002 37.5469 21.1074C37.5145 21.1002 37.4822 21.0931 37.4502 21.085ZM46.5781 21.1045C46.6062 21.0981 46.6343 21.092 46.6621 21.085C46.6343 21.092 46.6062 21.0981 46.5781 21.1045ZM37.1221 20.9844C37.1424 20.9917 37.1631 20.9979 37.1836 21.0049C37.1631 20.9979 37.1424 20.9917 37.1221 20.9844ZM46.9453 20.999C46.9573 20.9949 46.9695 20.9916 46.9814 20.9873C46.9695 20.9916 46.9573 20.9949 46.9453 20.999ZM36.9619 20.9219C36.9887 20.933 37.0158 20.9436 37.043 20.9541C37.0158 20.9436 36.9887 20.933 36.9619 20.9219ZM47.0986 20.9424C47.1124 20.9369 47.126 20.9314 47.1396 20.9258C47.126 20.9314 47.1124 20.9369 47.0986 20.9424ZM14.0137 20.3789C13.9978 20.5634 13.9823 20.7471 13.9688 20.9297C13.9823 20.7471 13.9978 20.5634 14.0137 20.3789ZM36.8105 20.8545C36.8325 20.8649 36.8547 20.8748 36.877 20.8848C36.8547 20.8748 36.8325 20.8649 36.8105 20.8545ZM47.2783 20.8662C47.2827 20.8642 47.2867 20.8614 47.291 20.8594C47.2867 20.8614 47.2827 20.8642 47.2783 20.8662ZM36.6553 20.7773C36.6768 20.7888 36.6989 20.7995 36.7207 20.8105C36.6989 20.7995 36.6768 20.7888 36.6553 20.7773ZM47.416 20.7979C47.4253 20.793 47.4351 20.7891 47.4443 20.7842C47.4351 20.7891 47.4253 20.793 47.416 20.7979ZM36.5039 20.6914C36.5287 20.7062 36.5539 20.7202 36.5791 20.7344C36.5539 20.7202 36.5287 20.7062 36.5039 20.6914ZM47.5586 20.7207C47.5704 20.7139 47.5821 20.7071 47.5938 20.7002C47.5821 20.7071 47.5704 20.7139 47.5586 20.7207ZM36.3633 20.6035C36.3855 20.6182 36.4081 20.6323 36.4307 20.6465C36.4081 20.6323 36.3855 20.6182 36.3633 20.6035ZM47.6973 20.6357C47.7144 20.6248 47.7321 20.6147 47.749 20.6035C47.7321 20.6147 47.7144 20.6248 47.6973 20.6357ZM36.0977 20.4092C36.1123 20.4209 36.1268 20.4328 36.1416 20.4443C36.1268 20.4328 36.1123 20.4209 36.0977 20.4092ZM47.9795 20.4365C47.9892 20.4289 47.9992 20.4217 48.0088 20.4141C47.9992 20.4217 47.9892 20.4289 47.9795 20.4365ZM35.9688 20.3008C35.9824 20.3128 35.9959 20.3251 36.0098 20.3369C35.9959 20.3251 35.9824 20.3128 35.9688 20.3008ZM35.8379 20.1787C35.8547 20.1951 35.8715 20.2115 35.8887 20.2275C35.8715 20.2115 35.8547 20.1951 35.8379 20.1787ZM48.2354 20.2158C48.2439 20.2077 48.2523 20.1996 48.2607 20.1914C48.2523 20.1996 48.2439 20.2077 48.2354 20.2158ZM35.708 20.0459C35.7305 20.0703 35.7532 20.0944 35.7764 20.1182C35.7532 20.0944 35.7305 20.0703 35.708 20.0459ZM48.3398 20.1143C48.3574 20.0963 48.3745 20.0779 48.3916 20.0596C48.3745 20.0779 48.3574 20.0963 48.3398 20.1143ZM35.5986 19.9219C35.6183 19.9452 35.638 19.9684 35.6582 19.9912C35.638 19.9684 35.6183 19.9452 35.5986 19.9219ZM48.4639 19.9805C48.4781 19.9644 48.492 19.948 48.5059 19.9316C48.492 19.948 48.4781 19.9644 48.4639 19.9805ZM35.5127 19.8154C35.5244 19.8304 35.5359 19.8455 35.5479 19.8604C35.5359 19.8455 35.5244 19.8304 35.5127 19.8154ZM19.7188 19.7402C19.6105 19.7681 19.5044 19.8013 19.4004 19.8389C19.5044 19.8013 19.6105 19.7681 19.7188 19.7402ZM28.6035 19.668C28.7217 19.686 28.8381 19.7099 28.9521 19.7393C28.8381 19.7099 28.7217 19.6861 28.6035 19.668ZM35.3877 19.6455C35.4051 19.6707 35.4224 19.696 35.4404 19.7207C35.4224 19.696 35.4051 19.6707 35.3877 19.6455ZM38.333 11.0195C37.7768 11.0198 37.3244 11.4711 37.3242 12.0293V17.6182C37.3246 18.1759 37.7768 18.6267 38.333 18.627H45.7793C46.3358 18.6269 46.7877 18.1759 46.7881 17.6182V12.0293C46.7879 11.4712 46.3358 11.0196 45.7793 11.0195H38.333ZM35.2842 19.4873C35.3048 19.5209 35.326 19.5541 35.3477 19.5869C35.326 19.5541 35.3048 19.5209 35.2842 19.4873ZM35.1855 19.3154C35.1399 19.2308 35.0975 19.1442 35.0586 19.0557C35.0975 19.1442 35.1398 19.2308 35.1855 19.3154ZM48.8574 19.4375C48.8678 19.4199 48.8786 19.4025 48.8887 19.3848C48.8786 19.4025 48.8678 19.4199 48.8574 19.4375ZM49.0117 19.1484C49.0236 19.1233 49.0346 19.0977 49.0459 19.0723C49.0346 19.0977 49.0236 19.1233 49.0117 19.1484ZM35.0039 18.9258C35.011 18.9437 35.0181 18.9617 35.0254 18.9795C35.0181 18.9617 35.011 18.9437 35.0039 18.9258ZM34.8682 18.5049C34.8251 18.3359 34.7945 18.162 34.7764 17.9844L34.7754 17.9775C34.7934 18.1576 34.8245 18.3337 34.8682 18.5049ZM16.0576 15.793C15.9764 16.6594 15.88 17.5253 15.7891 18.3662C15.88 17.5253 15.9763 16.6594 16.0576 15.793ZM36.3652 18.0234C36.3734 18.0631 36.3851 18.1018 36.3955 18.1406C36.384 18.0977 36.372 18.0547 36.3633 18.0107L36.3652 18.0234ZM30.623 15.877C31.228 15.9463 31.8667 16.0028 32.542 16.0439C31.8667 16.0028 31.228 15.9462 30.623 15.877ZM16.0928 15.3955C16.1093 15.2081 16.1251 15.0209 16.1396 14.834C16.1251 15.0209 16.1092 15.2081 16.0928 15.3955ZM16.168 14.4326C16.1794 14.2677 16.1909 14.1033 16.2002 13.9395C16.1909 14.1033 16.1794 14.2677 16.168 14.4326ZM16.2197 13.5293C16.2272 13.3634 16.2335 13.1983 16.2383 13.0342C16.2335 13.1983 16.2272 13.3634 16.2197 13.5293ZM16.25 11.9893C16.252 12.133 16.2518 12.2779 16.251 12.4238C16.2527 12.1274 16.2496 11.835 16.2393 11.5479L16.25 11.9893ZM47.6299 11.2471C47.6553 11.3071 47.6777 11.3687 47.6973 11.4316C47.6581 11.3059 47.6077 11.1851 47.5459 11.0713L47.6299 11.2471ZM34.8691 11.1416C34.8617 11.1708 34.8544 11.2 34.8477 11.2295C34.8544 11.2 34.8617 11.1708 34.8691 11.1416ZM49.2646 11.2295C49.2579 11.2001 49.2516 11.1707 49.2441 11.1416C49.2516 11.1707 49.2579 11.2001 49.2646 11.2295ZM46.7363 10.2617C46.8503 10.3236 46.9573 10.3966 47.0566 10.4785C47.1063 10.5195 47.1537 10.5629 47.1992 10.6084C47.2588 10.668 47.3135 10.7322 47.3652 10.7988C47.1949 10.5795 46.9819 10.3951 46.7363 10.2617ZM49.1035 10.7109C49.0964 10.693 49.0894 10.675 49.082 10.6572C49.0894 10.675 49.0964 10.693 49.1035 10.7109ZM49.0449 10.5723C49.035 10.55 49.025 10.5279 49.0146 10.5059C49.025 10.5279 49.035 10.55 49.0449 10.5723ZM35.1885 10.3262C35.1716 10.3574 35.1557 10.3891 35.1396 10.4209C35.1557 10.3891 35.1716 10.3574 35.1885 10.3262ZM48.9707 10.416C48.9597 10.3942 48.949 10.3722 48.9375 10.3506C48.949 10.3722 48.9596 10.3942 48.9707 10.416ZM35.2607 10.1982C35.2419 10.2298 35.2239 10.2618 35.2061 10.2939C35.2239 10.2618 35.2419 10.2298 35.2607 10.1982ZM48.8877 10.2617C48.8769 10.2428 48.8666 10.2238 48.8555 10.2051C48.8666 10.2238 48.8769 10.2428 48.8877 10.2617ZM37.9385 10.0586C37.8363 10.079 37.7375 10.1083 37.6416 10.1436C37.7375 10.1083 37.8364 10.079 37.9385 10.0586ZM35.3447 10.0654C35.3364 10.078 35.3284 10.0908 35.3203 10.1035C35.3284 10.0908 35.3364 10.078 35.3447 10.0654ZM48.79 10.0996C48.7827 10.0881 48.7751 10.0768 48.7676 10.0654C48.7751 10.0768 48.7827 10.0881 48.79 10.0996ZM4.46777 10.001C4.52535 10.0067 4.58326 10.0117 4.6416 10.0146C4.58326 10.0117 4.52535 10.0067 4.46777 10.001ZM10.6904 10.0088C10.7816 10.0017 10.8718 9.99037 10.9609 9.97656C10.8718 9.99036 10.7816 10.0017 10.6904 10.0088ZM4.30078 9.98047C4.31571 9.98267 4.33072 9.98431 4.3457 9.98633C4.33072 9.98431 4.31571 9.98267 4.30078 9.98047ZM35.4414 9.92383C35.4298 9.93973 35.4195 9.95656 35.4082 9.97266C35.4195 9.95656 35.4298 9.93973 35.4414 9.92383ZM48.7051 9.97266C48.6938 9.95662 48.6824 9.94065 48.6709 9.9248C48.6824 9.94065 48.6938 9.95662 48.7051 9.97266ZM10.9912 9.9707C11.0672 9.95826 11.1425 9.94393 11.2168 9.92676C11.1425 9.94392 11.0672 9.95826 10.9912 9.9707ZM4.11328 9.94727C4.14533 9.95375 4.17761 9.95922 4.20996 9.96484C4.17761 9.95922 4.14533 9.95376 4.11328 9.94727ZM3.96777 9.91504C3.99044 9.92063 4.0133 9.92551 4.03613 9.93066C4.0133 9.92551 3.99044 9.92063 3.96777 9.91504ZM11.3135 9.90137C11.3643 9.8881 11.4149 9.8748 11.4648 9.85938C11.4149 9.8748 11.3643 9.88811 11.3135 9.90137ZM3.79883 9.86816C3.81313 9.87245 3.82742 9.87675 3.8418 9.88086C3.82742 9.87675 3.81313 9.87245 3.79883 9.86816ZM3.63672 9.81543C3.65903 9.8233 3.68159 9.83045 3.7041 9.83789C3.68159 9.83045 3.65903 9.82331 3.63672 9.81543ZM35.5459 9.78809C35.5348 9.80183 35.5245 9.81616 35.5137 9.83008C35.5245 9.81616 35.5348 9.80184 35.5459 9.78809ZM11.5713 9.82422C11.6195 9.80763 11.6676 9.79103 11.7148 9.77246C11.6676 9.79103 11.6195 9.80763 11.5713 9.82422ZM48.5947 9.82422C48.5873 9.81473 48.5798 9.80531 48.5723 9.7959C48.5798 9.80531 48.5873 9.81473 48.5947 9.82422ZM3.48633 9.75879C3.49798 9.76351 3.50977 9.76786 3.52148 9.77246C3.50977 9.76786 3.49798 9.76351 3.48633 9.75879ZM11.8125 9.73047C11.8561 9.71179 11.8997 9.6932 11.9424 9.67285C11.8997 9.69319 11.8561 9.71179 11.8125 9.73047ZM3.34277 9.69629C3.35297 9.70095 3.3628 9.70637 3.37305 9.71094C3.3628 9.70637 3.35297 9.70095 3.34277 9.69629ZM48.502 9.71094C48.4804 9.68563 48.4588 9.66043 48.4365 9.63574C48.4588 9.66044 48.4804 9.68563 48.502 9.71094ZM35.6582 9.65527C35.6443 9.67099 35.6309 9.68716 35.6172 9.70312C35.6309 9.68716 35.6443 9.67099 35.6582 9.65527ZM12.0488 9.61914C12.0909 9.59733 12.1327 9.57518 12.1738 9.55176C12.1327 9.57518 12.0909 9.59733 12.0488 9.61914ZM48.3926 9.58789C48.3748 9.56887 48.357 9.54988 48.3389 9.53125C48.357 9.54988 48.3748 9.56887 48.3926 9.58789ZM35.7744 9.53125C35.7587 9.54741 35.743 9.56363 35.7275 9.58008C35.743 9.56363 35.7587 9.54741 35.7744 9.53125ZM3.04883 9.5459C3.0573 9.55077 3.0657 9.55575 3.07422 9.56055C3.0657 9.55575 3.0573 9.55077 3.04883 9.5459ZM12.2695 9.49512C12.3084 9.47133 12.3469 9.44709 12.3848 9.42188C12.3469 9.44709 12.3084 9.47133 12.2695 9.49512ZM48.2725 9.46484C48.2528 9.44573 48.233 9.42686 48.2129 9.4082C48.233 9.42687 48.2528 9.44573 48.2725 9.46484ZM35.9004 9.4082C35.884 9.42342 35.8676 9.43859 35.8516 9.4541C35.8676 9.43859 35.884 9.42342 35.9004 9.4082ZM2.76953 9.36719C2.78156 9.37567 2.79352 9.38424 2.80566 9.39258C2.79352 9.38424 2.78156 9.37567 2.76953 9.36719ZM48.1523 9.35352C48.1282 9.33206 48.1038 9.31085 48.0791 9.29004C48.1038 9.31085 48.1282 9.33206 48.1523 9.35352ZM36.0127 9.30859C35.9978 9.32135 35.9825 9.33368 35.9678 9.34668C35.9825 9.33368 35.9978 9.32135 36.0127 9.30859ZM12.499 9.34277C12.5268 9.32273 12.5539 9.30206 12.5811 9.28125C12.5539 9.30206 12.5268 9.32273 12.499 9.34277ZM36.1709 9.18066C36.1441 9.20106 36.117 9.22106 36.0908 9.24219C36.117 9.22106 36.1441 9.20106 36.1709 9.18066ZM48.0215 9.24219C47.9955 9.22122 47.969 9.20091 47.9424 9.18066C47.969 9.20091 47.9955 9.22122 48.0215 9.24219ZM12.6885 9.19629C12.7274 9.16399 12.7652 9.13057 12.8027 9.09668C12.7652 9.13057 12.7274 9.16399 12.6885 9.19629ZM2.52148 9.17578C2.52817 9.18143 2.53429 9.18776 2.54102 9.19336C2.53429 9.18776 2.52817 9.18143 2.52148 9.17578ZM36.2959 9.08984C36.2702 9.10774 36.244 9.125 36.2188 9.14355C36.244 9.125 36.2702 9.10774 36.2959 9.08984ZM47.8936 9.14355C47.8685 9.12516 47.8429 9.10759 47.8174 9.08984C47.8429 9.10759 47.8685 9.12516 47.8936 9.14355ZM36.4385 8.99512C36.4114 9.01205 36.384 9.02826 36.3574 9.0459C36.384 9.02826 36.4114 9.01206 36.4385 8.99512ZM12.8652 9.03906C12.9099 8.99676 12.9537 8.95371 12.9961 8.90918C12.9537 8.95371 12.9099 8.99676 12.8652 9.03906ZM47.7402 9.03711C47.7184 9.02273 47.696 9.00903 47.6738 8.99512C47.696 9.00903 47.7184 9.02273 47.7402 9.03711ZM47.623 8.96289C47.5925 8.94445 47.5614 8.92672 47.5303 8.90918C47.5614 8.92673 47.5925 8.94444 47.623 8.96289ZM36.5684 8.91699C36.5487 8.92818 36.5292 8.93962 36.5098 8.95117C36.5292 8.93962 36.5487 8.92818 36.5684 8.91699ZM36.7061 8.84277C36.691 8.85048 36.676 8.8583 36.6611 8.86621C36.676 8.8583 36.691 8.85048 36.7061 8.84277ZM47.4512 8.86621C47.4375 8.85898 47.4239 8.85178 47.4102 8.84473C47.4239 8.85178 47.4375 8.85898 47.4512 8.86621ZM13.0547 8.84668C13.0929 8.80464 13.1298 8.7616 13.166 8.71777C13.1299 8.7616 13.0929 8.80464 13.0547 8.84668ZM19.9541 8.80371C19.8491 8.69398 19.743 8.58425 19.6348 8.47559C19.743 8.58422 19.8491 8.69398 19.9541 8.80371ZM36.8906 8.75488C36.8613 8.76785 36.8317 8.78022 36.8027 8.79395C36.8317 8.78021 36.8613 8.76785 36.8906 8.75488ZM2.07422 8.72656C2.07981 8.7333 2.08616 8.7394 2.0918 8.74609C2.08616 8.7394 2.07981 8.7333 2.07422 8.72656ZM37.0215 8.7002C37.0007 8.70842 36.9796 8.71601 36.959 8.72461C36.9796 8.71601 37.0007 8.70842 37.0215 8.7002ZM47.1523 8.72461C47.1271 8.71412 47.1017 8.70426 47.0762 8.69434C47.1017 8.70427 47.1271 8.71412 47.1523 8.72461ZM46.9902 8.66113C46.9667 8.65267 46.9427 8.64568 46.9189 8.6377C46.9427 8.64568 46.9667 8.65267 46.9902 8.66113ZM37.1855 8.64062C37.1664 8.64711 37.1469 8.65238 37.1279 8.65918C37.1469 8.65238 37.1664 8.64711 37.1855 8.64062ZM13.2158 8.65723C13.251 8.61267 13.2843 8.56674 13.3174 8.52051C13.2843 8.56674 13.251 8.61267 13.2158 8.65723ZM46.8223 8.60645C46.81 8.60269 46.7975 8.59932 46.7852 8.5957C46.7975 8.59933 46.81 8.60269 46.8223 8.60645ZM37.3174 8.59863C37.3087 8.60121 37.2997 8.60283 37.291 8.60547C37.2997 8.60283 37.3087 8.60121 37.3174 8.59863ZM46.6543 8.55859C46.6446 8.55615 46.6348 8.55412 46.625 8.55176C46.6348 8.55412 46.6446 8.55615 46.6543 8.55859ZM46.4873 8.52051C46.4782 8.51869 46.4691 8.51738 46.46 8.51562C46.4691 8.51738 46.4782 8.51869 46.4873 8.52051ZM1.87891 8.46777C1.88433 8.47566 1.89002 8.48337 1.89551 8.49121C1.89002 8.48337 1.88433 8.47566 1.87891 8.46777ZM4.82617 3.56836C4.26982 3.56836 3.81756 4.01985 3.81738 4.57812V6.44141C3.81761 6.99965 4.26985 7.45117 4.82617 7.45117H10.4111C10.9668 7.45086 11.4187 6.99978 11.4189 6.44141V4.57812C11.4188 4.01971 10.9669 3.56868 10.4111 3.56836H4.82617ZM13.3672 8.45117C13.4111 8.38663 13.4525 8.3204 13.4922 8.25293C13.4525 8.3204 13.4111 8.38663 13.3672 8.45117ZM19.5186 8.36133C19.4342 8.27829 19.3488 8.1958 19.2617 8.11426C19.3488 8.19577 19.4342 8.27831 19.5186 8.36133ZM13.7285 7.77441C13.6647 7.93333 13.5889 8.08671 13.5039 8.2334C13.589 8.08657 13.6646 7.93349 13.7285 7.77441ZM1.7041 8.18555C1.71051 8.19701 1.7171 8.20835 1.72363 8.21973C1.7171 8.20835 1.71051 8.19701 1.7041 8.18555ZM19.1104 7.97656C19.0328 7.90638 18.9542 7.83697 18.874 7.76855C18.9542 7.83696 19.0328 7.9064 19.1104 7.97656ZM16.0342 7.85938C16.1242 7.89309 16.2116 7.92897 16.2969 7.96582C16.2116 7.929 16.1242 7.89306 16.0342 7.85938ZM1.55664 7.89062C1.56125 7.90102 1.56561 7.91153 1.57031 7.92188C1.5656 7.91153 1.56125 7.90102 1.55664 7.89062ZM3.34961 7.80078C3.38473 7.83894 3.42104 7.87579 3.45898 7.91113C3.42105 7.87579 3.38472 7.83894 3.34961 7.80078ZM1.48145 7.70703C1.49269 7.73676 1.50362 7.76656 1.51562 7.7959C1.50362 7.76655 1.49269 7.73676 1.48145 7.70703ZM1.43066 7.5625C1.43851 7.58629 1.44578 7.61023 1.4541 7.63379C1.44578 7.61022 1.43851 7.58629 1.43066 7.5625ZM1.38086 7.39941C1.3872 7.42228 1.39361 7.44509 1.40039 7.46777C1.39361 7.44509 1.3872 7.42229 1.38086 7.39941ZM1.33398 7.21094C1.34122 7.24395 1.34831 7.27691 1.35645 7.30957C1.34831 7.27691 1.34122 7.24395 1.33398 7.21094ZM17.499 6.80957H17.5H17.499ZM12.3613 6.9082C12.3663 6.88728 12.3736 6.86687 12.3779 6.8457L12.3799 6.83398C12.3749 6.85908 12.3672 6.88345 12.3613 6.9082ZM16.5244 6.37012L16.5254 6.36914L16.5244 6.37012ZM15.0986 5.99609C15.2027 6.01391 15.3049 6.03296 15.4053 6.05371L15.0996 5.99609C14.9955 5.97825 14.8893 5.96209 14.7812 5.94727L15.0986 5.99609ZM13.9678 4.21973C13.9795 4.33762 13.9863 4.45714 13.9863 4.57812C13.9863 4.45714 13.9795 4.33763 13.9678 4.21973ZM1.2627 4.27832C1.25449 4.37718 1.25001 4.47715 1.25 4.57812C1.25001 4.47715 1.25449 4.37718 1.2627 4.27832ZM13.875 3.69043C13.8956 3.77104 13.9127 3.85285 13.9277 3.93555C13.9127 3.85285 13.8956 3.77104 13.875 3.69043ZM1.36133 3.69043C1.35388 3.7196 1.34657 3.74886 1.33984 3.77832C1.34657 3.74886 1.35388 3.7196 1.36133 3.69043ZM1.41016 3.51758C1.40285 3.54117 1.39648 3.56507 1.38965 3.58887C1.39648 3.56507 1.40285 3.54117 1.41016 3.51758ZM13.8105 3.47363C13.7987 3.43703 13.7874 3.40033 13.7744 3.36426C13.7874 3.40033 13.7987 3.43703 13.8105 3.47363ZM1.58984 3.05469C1.58301 3.06918 1.57695 3.08403 1.57031 3.09863C1.57695 3.08403 1.58302 3.06918 1.58984 3.05469ZM13.666 3.09863C13.6593 3.0839 13.6524 3.06931 13.6455 3.05469C13.6524 3.06931 13.6593 3.0839 13.666 3.09863ZM1.66699 2.89941C1.65551 2.92099 1.64484 2.94301 1.63379 2.96484C1.64484 2.94301 1.65551 2.92099 1.66699 2.89941ZM13.6016 2.96484C13.5901 2.94221 13.5783 2.91981 13.5664 2.89746C13.5783 2.91981 13.5901 2.94221 13.6016 2.96484ZM13.5195 2.81152C13.5073 2.78996 13.4951 2.76835 13.4824 2.74707C13.4951 2.76835 13.5073 2.78996 13.5195 2.81152ZM1.74609 2.75879C1.73609 2.77571 1.72751 2.79345 1.71777 2.81055C1.72751 2.79345 1.73609 2.77571 1.74609 2.75879ZM1.83691 2.61426C1.82888 2.62648 1.82137 2.63904 1.81348 2.65137C1.82137 2.63904 1.82888 2.62648 1.83691 2.61426ZM13.4229 2.65137C13.4149 2.63889 13.4066 2.62663 13.3984 2.61426C13.4066 2.62663 13.4149 2.63889 13.4229 2.65137ZM4.4209 2.60938C4.39615 2.61445 4.37206 2.62196 4.34766 2.62793C4.37619 2.62095 4.4046 2.61317 4.43359 2.60742L4.4209 2.60938ZM1.94531 2.45898C1.92652 2.48452 1.90777 2.51009 1.88965 2.53613C1.90777 2.51009 1.92652 2.48452 1.94531 2.45898ZM13.3389 2.52637C13.3264 2.50854 13.3146 2.49024 13.3018 2.47266C13.3146 2.49024 13.3264 2.50854 13.3389 2.52637ZM2.03809 2.33691C2.02251 2.35629 2.00835 2.37678 1.99316 2.39648C2.00834 2.37678 2.02251 2.35629 2.03809 2.33691ZM13.2432 2.39551C13.2255 2.37254 13.2077 2.34966 13.1895 2.32715C13.2077 2.34967 13.2255 2.37254 13.2432 2.39551ZM13.1416 2.26953C13.1221 2.24644 13.1021 2.22376 13.082 2.20117C13.1021 2.22376 13.1221 2.24643 13.1416 2.26953ZM2.15332 2.20117C2.13507 2.2217 2.11739 2.24272 2.09961 2.26367C2.11739 2.24272 2.13507 2.2217 2.15332 2.20117ZM2.27734 2.06836C2.25151 2.09462 2.22619 2.12139 2.20117 2.14844C2.22619 2.12139 2.25151 2.09462 2.27734 2.06836ZM13.0303 2.14355C13.0113 2.12314 12.9921 2.10298 12.9727 2.08301C12.9921 2.10298 13.0113 2.12313 13.0303 2.14355ZM2.39648 1.95312C2.37335 1.97457 2.35069 1.99651 2.32812 2.01855C2.35069 1.99651 2.37335 1.97457 2.39648 1.95312ZM12.9033 2.01367C12.884 1.99488 12.8645 1.97636 12.8447 1.95801C12.8644 1.97637 12.884 1.99488 12.9033 2.01367ZM2.52832 1.83691C2.49933 1.86127 2.47058 1.88589 2.44238 1.91113C2.47058 1.88588 2.49933 1.86127 2.52832 1.83691ZM12.79 1.9082C12.7637 1.88469 12.737 1.86161 12.71 1.83887C12.737 1.86161 12.7637 1.88468 12.79 1.9082ZM2.65137 1.7373C2.62361 1.75861 2.59644 1.78064 2.56934 1.80273C2.59644 1.78064 2.62361 1.75861 2.65137 1.7373ZM12.6523 1.79102C12.6321 1.77471 12.6114 1.75904 12.5908 1.74316C12.6114 1.75904 12.6321 1.77471 12.6523 1.79102ZM2.79004 1.63672C2.7628 1.65563 2.73567 1.67469 2.70898 1.69434C2.73567 1.67469 2.7628 1.65564 2.79004 1.63672ZM12.5244 1.69238C12.5003 1.67469 12.4757 1.65773 12.4512 1.64062C12.4757 1.65773 12.5003 1.67468 12.5244 1.69238ZM12.2744 1.52441C12.2371 1.50157 12.1993 1.4795 12.1611 1.45801C12.1993 1.47951 12.2371 1.50157 12.2744 1.52441ZM2.9375 1.54004C2.90905 1.55778 2.88045 1.57524 2.85254 1.59375C2.88044 1.57524 2.90905 1.55778 2.9375 1.54004ZM3.07422 1.45801C3.04306 1.47556 3.01201 1.49327 2.98145 1.51172C3.01201 1.49327 3.04306 1.47556 3.07422 1.45801ZM3.18652 1.39746C3.1754 1.40321 3.16438 1.40917 3.15332 1.41504C3.16438 1.40917 3.1754 1.40322 3.18652 1.39746ZM12.082 1.41504C12.071 1.40917 12.06 1.40321 12.0488 1.39746C12.06 1.40321 12.071 1.40917 12.082 1.41504ZM3.53906 1.23926C3.50767 1.25138 3.47627 1.26339 3.44531 1.27637C3.47627 1.26339 3.50767 1.25138 3.53906 1.23926ZM11.7822 1.27246C11.7623 1.26416 11.7418 1.25697 11.7217 1.24902C11.7418 1.25698 11.7623 1.26416 11.7822 1.27246ZM3.68555 1.18652C3.66182 1.19451 3.63776 1.20149 3.61426 1.20996C3.63776 1.20149 3.66182 1.19451 3.68555 1.18652ZM11.6143 1.20801C11.5959 1.20143 11.5771 1.19574 11.5586 1.18945C11.5771 1.19574 11.5959 1.20143 11.6143 1.20801ZM3.81934 1.14453C3.80697 1.14816 3.79454 1.15152 3.78223 1.15527C3.79454 1.15152 3.80697 1.14816 3.81934 1.14453ZM3.97949 1.10059C3.96974 1.10295 3.95991 1.10497 3.9502 1.10742C3.95991 1.10497 3.96974 1.10295 3.97949 1.10059ZM11.0342 1.05469C11.1182 1.06948 11.2013 1.08686 11.2832 1.10742C11.2013 1.08687 11.1182 1.06948 11.0342 1.05469ZM4.14453 1.06445C4.13544 1.06621 4.12626 1.06751 4.11719 1.06934C4.12626 1.06751 4.13544 1.06621 4.14453 1.06445ZM6.95605 48.3447C6.96756 48.388 6.97912 48.4311 6.99219 48.4736C6.97912 48.4311 6.96756 48.388 6.95605 48.3447ZM17.5566 48.4541C17.57 48.4098 17.5831 48.3653 17.5947 48.3203C17.5831 48.3653 17.57 48.4098 17.5566 48.4541ZM17.5986 48.3047C17.6109 48.2565 17.6226 48.2081 17.6328 48.1592C17.6226 48.2081 17.6109 48.2565 17.5986 48.3047ZM6.99121 44.5088C6.98193 44.5391 6.97432 44.5699 6.96582 44.6006C6.97432 44.5699 6.98193 44.5391 6.99121 44.5088ZM17.5283 44.4355C17.5165 44.3998 17.5041 44.3643 17.4912 44.3291C17.5041 44.3643 17.5165 44.3998 17.5283 44.4355ZM46.8691 43.833C46.9286 43.8273 46.9871 43.8184 47.0449 43.8076C46.9871 43.8184 46.9286 43.8273 46.8691 43.833ZM37.7275 39.0107C37.7749 39.0497 37.8229 39.0894 37.874 39.127C37.8229 39.0894 37.7749 39.0497 37.7275 39.0107ZM36.4023 36.4395C36.4009 36.4316 36.3988 36.4239 36.3975 36.416C36.3989 36.4239 36.4009 36.4316 36.4023 36.4395ZM19.4053 35.8877C19.4485 35.9032 19.4921 35.9178 19.5361 35.9316C19.4921 35.9178 19.4485 35.9032 19.4053 35.8877ZM17.4785 34.2432C17.5005 34.2831 17.5234 34.3224 17.5469 34.3613C17.5234 34.3224 17.5005 34.2831 17.4785 34.2432ZM17.2158 33.6377C17.2275 33.6734 17.2391 33.709 17.252 33.7441C17.2392 33.709 17.2275 33.6734 17.2158 33.6377ZM35.9951 31.2617C35.9832 31.1848 35.9709 31.1079 35.957 31.0312C35.9709 31.1079 35.9832 31.1848 35.9951 31.2617ZM35.5254 29.5762C35.4837 29.484 35.4383 29.3937 35.3906 29.3047C35.4383 29.3937 35.4837 29.484 35.5254 29.5762ZM13.9521 24.4541C13.9611 24.5404 13.9715 24.6257 13.9824 24.71C13.9715 24.6257 13.9611 24.5404 13.9521 24.4541ZM13.9922 24.7861C13.9887 24.7609 13.9857 24.7354 13.9824 24.71C13.9858 24.7361 13.9886 24.7622 13.9922 24.7881V24.7861ZM35.2021 19.3457C35.2206 19.3792 35.2393 19.4125 35.2588 19.4453C35.2393 19.4125 35.2206 19.3792 35.2021 19.3457ZM34.9307 18.7197C34.9438 18.7604 34.9571 18.8008 34.9717 18.8408C34.9571 18.8008 34.9438 18.7604 34.9307 18.7197ZM13.9473 4.0498C13.9556 4.10602 13.9621 4.1627 13.9678 4.21973C13.9621 4.16269 13.9556 4.10602 13.9473 4.0498ZM1.46094 3.36621C1.44802 3.40209 1.43562 3.43821 1.42383 3.47461C1.43562 3.43821 1.44803 3.40209 1.46094 3.36621ZM13.8467 3.58887C13.8406 3.56765 13.8346 3.54644 13.8281 3.52539C13.8346 3.54644 13.8406 3.56765 13.8467 3.58887ZM12.3887 1.59766C12.351 1.5726 12.313 1.54806 12.2744 1.52441C12.313 1.54807 12.351 1.57259 12.3887 1.59766Z" fill="#2563EB"/>
</svg>
