<svg width="55" height="52" viewBox="0 0 55 52" fill="none" xmlns="http://www.w3.org/2000/svg">
<path d="M27.498 0C29.1014 0 30.3916 1.27088 30.4707 2.84668L30.4746 3V4.8877C31.7598 5.52676 32.8092 6.56663 33.4717 7.84277L33.665 7.80176C35.5534 7.39585 37.5038 7.37271 39.4014 7.73535L39.9375 7.82422C41.1926 7.99921 42.4699 7.95265 43.7119 7.68555L48.6045 6.63379L48.7881 6.60352C49.6438 6.50937 50.4382 7.04253 50.6953 7.85254L50.7422 8.0293C50.9127 8.84418 50.5055 9.65966 49.7832 10.0205L54.8096 20.1904H55V22C55 26.1677 51.7621 29.59 47.668 29.7998L47.2695 29.8096C42.9889 29.8096 39.5381 26.3022 39.5381 22V20.1904H39.7285L44.124 11.2939C42.3421 11.6323 40.5117 11.6316 38.7285 11.291C37.3029 11.0186 35.8377 11.0356 34.418 11.3408L34.2305 11.3809C34.093 13.8975 32.6025 16.0521 30.4746 17.1104V42H37.3828C39.0075 42.0001 40.443 42.7901 41.3438 44H43.3135C46.0603 44.0001 48.2676 46.2495 48.2676 49V52H6.72949V49C6.72949 46.2496 8.93582 44.0001 11.6826 44H13.6523C14.5531 42.7901 15.9886 42.0001 17.6133 42H24.5215V17.1094C23.2243 16.4633 22.1673 15.4092 21.5068 14.1152L20.9346 14.2393C19.5155 14.5443 18.1681 15.1332 16.9736 15.9697C15.3872 17.0807 13.5976 17.8623 11.709 18.2686L10.4961 18.5283L15.2715 28.1904H15.4619V30C15.4619 34.1677 12.224 37.59 8.12988 37.7998L7.73047 37.8096C3.45014 37.8093 0 34.3021 0 30V28.1904H0.19043L4.94727 18.5625C4.8209 18.3747 4.72721 18.16 4.67773 17.9248C4.47533 16.9589 5.08314 15.9925 6.06152 15.7812L6.49512 15.6865C6.82234 15.3755 7.26039 15.1906 7.73047 15.1904C7.93944 15.1904 8.14023 15.2277 8.32617 15.2939L10.9551 14.7295C12.3747 14.4242 13.7208 13.8363 14.915 13C16.5012 11.8891 18.2909 11.1073 20.1797 10.7012L20.7715 10.5732C20.9244 8.07772 22.4081 5.94231 24.5215 4.88965V3C24.5215 1.35413 25.843 1.19886e-05 27.498 0ZM47.2471 48.6016C47.2599 48.7326 47.2676 48.8655 47.2676 49C47.2676 48.8655 47.2599 48.7327 47.2471 48.6016ZM47.2119 48.3379C47.1937 48.2276 47.1714 48.1188 47.1445 48.0117C47.1714 48.1188 47.1937 48.2276 47.2119 48.3379ZM47.1309 47.958C47.1189 47.9132 47.1072 47.8684 47.0938 47.8242C47.1072 47.8684 47.1189 47.9132 47.1309 47.958ZM46.9004 47.3154C46.8954 47.3046 46.8898 47.294 46.8848 47.2832C46.9096 47.336 46.9335 47.3893 46.9561 47.4434L46.9004 47.3154ZM46.8574 47.2285C46.8374 47.1875 46.8173 47.1466 46.7959 47.1064C46.8173 47.1466 46.8374 47.1875 46.8574 47.2285ZM46.6924 46.9238C46.662 46.8734 46.6311 46.8234 46.5986 46.7744C46.6311 46.8234 46.662 46.8734 46.6924 46.9238ZM46.5723 46.7354C46.5462 46.6971 46.5195 46.6594 46.4922 46.6221C46.5195 46.6594 46.5462 46.6971 46.5723 46.7354ZM46.4619 46.582C46.4333 46.544 46.4039 46.5067 46.374 46.4697C46.4039 46.5067 46.4333 46.544 46.4619 46.582ZM46.3271 46.4121C46.3095 46.3911 46.2915 46.3703 46.2734 46.3496C46.2915 46.3703 46.3095 46.3911 46.3271 46.4121ZM46.209 46.2773C46.1831 46.2492 46.1565 46.2217 46.1299 46.1943C46.1565 46.2217 46.1831 46.2492 46.209 46.2773ZM46.0898 46.1533C46.0584 46.1219 46.0266 46.0909 45.9941 46.0605C46.0266 46.0909 46.0584 46.1219 46.0898 46.1533ZM45.9482 46.0186C45.9204 45.9933 45.8919 45.9688 45.8633 45.9443C45.8919 45.9688 45.9204 45.9933 45.9482 46.0186ZM45.8018 45.8926C45.7713 45.8676 45.7402 45.8434 45.709 45.8193C45.7402 45.8434 45.7713 45.8676 45.8018 45.8926ZM45.6553 45.7783C45.6252 45.7559 45.5952 45.7335 45.5645 45.7119C45.5952 45.7335 45.6252 45.7559 45.6553 45.7783ZM45.5029 45.6699C45.4663 45.6452 45.4291 45.6212 45.3916 45.5977C45.4291 45.6212 45.4663 45.6452 45.5029 45.6699ZM45.3486 45.5703C45.3171 45.5511 45.285 45.533 45.2529 45.5146C45.285 45.533 45.3171 45.5511 45.3486 45.5703ZM45.167 45.4658C45.1306 45.4462 45.0937 45.4276 45.0566 45.4092C45.0937 45.4276 45.1306 45.4462 45.167 45.4658ZM45.0215 45.3916C44.9765 45.3697 44.9307 45.3493 44.8848 45.3291C44.9307 45.3493 44.9765 45.3697 45.0215 45.3916ZM44.5342 45.1953C44.6376 45.2292 44.7394 45.2665 44.8389 45.3086C44.7394 45.2665 44.6376 45.2293 44.5342 45.1953ZM44.3281 45.1328C44.2675 45.1166 44.2062 45.1022 44.1445 45.0889C44.2062 45.1022 44.2675 45.1166 44.3281 45.1328ZM44.1035 45.0791C44.0506 45.0682 43.9971 45.0595 43.9434 45.0508C43.997 45.0595 44.0506 45.0682 44.1035 45.0791ZM11.0801 45.0459H11.0811H11.0801ZM43.8027 45.0312C43.7083 45.0195 43.613 45.0098 43.5166 45.0049C43.613 45.0098 43.7083 45.0195 43.8027 45.0312ZM40.4932 44.5342C40.4542 44.484 40.4152 44.434 40.374 44.3857C40.4152 44.434 40.4543 44.484 40.4932 44.5342ZM40.1904 44.1855C40.1339 44.1278 40.0756 44.0718 40.0156 44.0176C40.0756 44.0718 40.1339 44.1278 40.1904 44.1855ZM39.9912 43.9961C39.946 43.9559 39.8996 43.917 39.8525 43.8789C39.8996 43.9171 39.946 43.9558 39.9912 43.9961ZM39.7822 43.8223C39.7334 43.7845 39.6834 43.7484 39.6328 43.7129C39.6834 43.7484 39.7334 43.7845 39.7822 43.8223ZM39.1748 43.4346C39.3209 43.5099 39.4618 43.594 39.5967 43.6865C39.4618 43.5941 39.3209 43.5099 39.1748 43.4346ZM39.0918 43.3945C39.0491 43.3738 39.0064 43.3532 38.9629 43.334C39.0064 43.3532 39.0491 43.3738 39.0918 43.3945ZM38.8418 43.2832C38.809 43.27 38.7764 43.2565 38.7432 43.2441C38.7764 43.2565 38.809 43.27 38.8418 43.2832ZM38.6211 43.2012C38.5782 43.1869 38.5348 43.174 38.4912 43.1611C38.5348 43.174 38.5782 43.1869 38.6211 43.2012ZM38.3984 43.1348C38.3509 43.122 38.3031 43.1096 38.2549 43.0986C38.3031 43.1096 38.3509 43.122 38.3984 43.1348ZM38.1475 43.0752C38.1035 43.0665 38.0591 43.06 38.0146 43.0527C38.0591 43.06 38.1035 43.0665 38.1475 43.0752ZM4.8125 36.1377C5.00891 36.2335 5.21054 36.32 5.41699 36.3965C5.21054 36.32 5.00891 36.2335 4.8125 36.1377ZM2.66309 30.8096C3.04736 33.2915 5.16941 35.1902 7.73047 35.1904C10.2918 35.1904 12.4145 33.2917 12.7988 30.8096H2.66309ZM14.4355 29.1904C14.4454 29.1495 14.4513 29.1076 14.4551 29.0654C14.4514 29.1076 14.4454 29.1495 14.4355 29.1904ZM2.60059 29.1904H12.8613L7.73047 18.8096L2.60059 29.1904ZM14.4561 29.0283C14.4573 29.0013 14.4575 28.9744 14.4561 28.9473C14.4576 28.9744 14.4572 29.0013 14.4561 29.0283ZM48.2939 28.7314C48.0711 28.7659 47.8447 28.789 47.6152 28.8008H47.6162C47.8456 28.789 48.0721 28.7659 48.2949 28.7314H48.2939ZM46.2578 28.7324C46.308 28.7401 46.3586 28.7454 46.4092 28.752C46.3586 28.7454 46.308 28.7401 46.2578 28.7324ZM45.918 28.6719C45.9884 28.6864 46.0596 28.6977 46.1309 28.71C46.0596 28.6977 45.9884 28.6864 45.918 28.6719ZM45.5967 28.5967C45.6838 28.6192 45.7719 28.6391 45.8604 28.6582C45.7719 28.6391 45.6838 28.6192 45.5967 28.5967ZM45.3066 28.5146C45.3539 28.5292 45.4016 28.5422 45.4492 28.5557C45.4016 28.5422 45.3539 28.5292 45.3066 28.5146ZM44.9746 28.4023C45.0279 28.4219 45.0818 28.4398 45.1357 28.458C45.0818 28.4398 45.0279 28.4219 44.9746 28.4023ZM49.8887 28.2744C49.788 28.3175 49.6861 28.3583 49.583 28.3965C49.7895 28.32 49.9911 28.2335 50.1875 28.1377L49.8887 28.2744ZM44.6738 28.2842C44.7405 28.3124 44.8082 28.3382 44.876 28.3643C44.8082 28.3382 44.7405 28.3124 44.6738 28.2842ZM44.377 28.1494C44.442 28.1808 44.5081 28.21 44.5742 28.2393C44.5081 28.21 44.442 28.1808 44.377 28.1494ZM44.0957 28.0049C44.1528 28.0358 44.2105 28.0654 44.2686 28.0947C44.2105 28.0654 44.1528 28.0358 44.0957 28.0049ZM43.8271 27.8516C43.8765 27.8813 43.9264 27.91 43.9766 27.9385C43.9264 27.91 43.8765 27.8813 43.8271 27.8516ZM43.5508 27.6758C43.593 27.7041 43.6359 27.7314 43.6787 27.7588C43.6359 27.7314 43.593 27.7041 43.5508 27.6758ZM43.2949 27.4951C43.338 27.5271 43.3819 27.5579 43.4258 27.5889C43.3819 27.5579 43.338 27.5271 43.2949 27.4951ZM43.0518 27.3057C43.0841 27.332 43.1166 27.3581 43.1494 27.3838C43.1166 27.3581 43.0841 27.332 43.0518 27.3057ZM42.2012 22.8096C42.5855 25.2917 44.7082 27.1904 47.2695 27.1904C49.8307 27.1902 51.9527 25.2915 52.3369 22.8096H42.2012ZM42.8027 27.0938C42.8371 27.1246 42.8723 27.1544 42.9072 27.1846C42.8723 27.1544 42.8371 27.1246 42.8027 27.0938ZM42.5781 26.8818C42.6055 26.9088 42.6333 26.9354 42.6611 26.9619C42.6333 26.9354 42.6055 26.9088 42.5781 26.8818ZM42.3408 26.6357C42.3781 26.6763 42.4159 26.7163 42.4541 26.7559C42.4159 26.7163 42.3781 26.6763 42.3408 26.6357ZM42.1445 26.4121C42.1719 26.4446 42.1996 26.4768 42.2275 26.5088C42.1996 26.4768 42.1719 26.4446 42.1445 26.4121ZM41.9336 26.1494C41.9648 26.1904 41.9962 26.2312 42.0283 26.2715C41.9962 26.2312 41.9648 26.1904 41.9336 26.1494ZM41.7529 25.9004C41.7777 25.9361 41.8027 25.9716 41.8281 26.0068C41.8027 25.9716 41.7777 25.9361 41.7529 25.9004ZM41.5576 25.6016C41.5901 25.6543 41.6223 25.7071 41.6562 25.7588C41.6223 25.7071 41.5901 25.6543 41.5576 25.6016ZM41.4004 25.334C41.4288 25.3851 41.4576 25.436 41.4873 25.4863C41.4576 25.436 41.4288 25.3851 41.4004 25.334ZM41.2383 25.0234C41.2677 25.0834 41.297 25.1432 41.3281 25.2021C41.297 25.1432 41.2677 25.0834 41.2383 25.0234ZM41.0811 24.6807C41.116 24.7632 41.1524 24.845 41.1904 24.9258C41.1524 24.845 41.116 24.7632 41.0811 24.6807ZM40.9834 24.4365C41.0084 24.5024 41.0336 24.568 41.0605 24.6328C41.0336 24.568 41.0084 24.5024 40.9834 24.4365ZM40.877 24.1357C40.8952 24.1916 40.913 24.2475 40.9326 24.3027C40.913 24.2475 40.8952 24.1916 40.877 24.1357ZM40.7832 23.8213C40.7996 23.881 40.8151 23.9409 40.833 24C40.8151 23.9409 40.7996 23.881 40.7832 23.8213ZM40.7021 23.4912C40.7154 23.5513 40.7274 23.6115 40.7422 23.6709C40.7274 23.6115 40.7154 23.5513 40.7021 23.4912ZM40.6543 23.2588C40.6595 23.2868 40.6634 23.3149 40.6689 23.3428C40.6634 23.3149 40.6595 23.2868 40.6543 23.2588ZM40.5381 22C40.5381 22.2697 40.5558 22.5354 40.5859 22.7969C40.5558 22.5354 40.5381 22.2697 40.5381 22ZM42.1387 21.1904H52.3994L47.2695 10.8096L42.1387 21.1904ZM5.8457 18.0938H5.84668H5.8457ZM5.63867 17.5605C5.63874 17.5658 5.63948 17.571 5.63965 17.5762C5.63948 17.571 5.63874 17.5658 5.63867 17.5605ZM5.65137 17.4062C5.64962 17.4159 5.64886 17.4258 5.64746 17.4355C5.64885 17.4258 5.64963 17.4159 5.65137 17.4062ZM5.69141 17.2627C5.68787 17.272 5.68483 17.2815 5.68164 17.291C5.68483 17.2815 5.68788 17.272 5.69141 17.2627ZM5.75977 17.125C5.74361 17.1513 5.7299 17.179 5.7168 17.207C5.72988 17.179 5.74363 17.1513 5.75977 17.125ZM12.0908 17.1484C12.1006 17.1459 12.1103 17.1432 12.1201 17.1406C12.1103 17.1432 12.1006 17.1459 12.0908 17.1484ZM5.84863 17.0068C5.83059 17.0269 5.81477 17.0486 5.79883 17.0703C5.81476 17.0486 5.8306 17.0269 5.84863 17.0068ZM12.6885 16.9756C12.7044 16.9706 12.7204 16.966 12.7363 16.9609C12.7204 16.966 12.7044 16.9706 12.6885 16.9756ZM5.94043 16.918C5.9379 16.92 5.93512 16.9218 5.93262 16.9238C5.93512 16.9218 5.9379 16.92 5.94043 16.918ZM6.06152 16.8369C6.05896 16.8383 6.05625 16.8394 6.05371 16.8408C6.05625 16.8394 6.05896 16.8383 6.06152 16.8369ZM13.252 16.7852C13.2852 16.7731 13.3184 16.7613 13.3516 16.749C13.3184 16.7613 13.2852 16.7731 13.252 16.7852ZM13.8574 16.5498C13.8858 16.5379 13.9141 16.5257 13.9424 16.5137C13.9141 16.5257 13.8858 16.5379 13.8574 16.5498ZM7.13281 16.4629H7.13184H7.13281ZM14.4561 16.2822C14.4708 16.2752 14.4853 16.2678 14.5 16.2607C14.4853 16.2678 14.4708 16.2752 14.4561 16.2822ZM8.0918 16.2793C8.05818 16.2618 8.02322 16.2469 7.9873 16.2344C8.02318 16.2469 8.05815 16.2618 8.0918 16.2793ZM7.95996 16.2266C7.93276 16.2181 7.90512 16.2115 7.87695 16.2061C7.90512 16.2115 7.93277 16.2181 7.95996 16.2266ZM7.8457 16.1992C7.80789 16.1935 7.76942 16.1904 7.73047 16.1904C7.7693 16.1904 7.80807 16.1936 7.8457 16.1992ZM15.0234 15.9951C15.0365 15.9881 15.0494 15.9807 15.0625 15.9736C15.0494 15.9807 15.0365 15.9881 15.0234 15.9951ZM15.5713 15.6855C15.5872 15.676 15.6033 15.6668 15.6191 15.6572C15.6033 15.6668 15.5872 15.676 15.5713 15.6855ZM17.4072 14.5176V14.5166V14.5176ZM29.4746 11.3799V14.6836C30.7653 13.9738 31.6416 12.5907 31.6416 11C31.6416 10.9713 31.6392 10.9427 31.6387 10.9141L29.4746 11.3799ZM23.6807 12.625C24.0463 13.5034 24.7001 14.2288 25.5215 14.6816V12.2295L23.6807 12.625ZM25.5215 7.31738C24.2327 8.02769 23.3584 9.41067 23.3584 11C23.3584 11.0134 23.3593 11.0267 23.3594 11.04L25.5215 10.5752V7.31738ZM41.3818 10.5459C41.4089 10.546 41.4359 10.546 41.4629 10.5459C41.4359 10.546 41.4089 10.546 41.3818 10.5459ZM42.0352 10.5322C42.0466 10.5317 42.0579 10.5308 42.0693 10.5303C42.0579 10.5308 42.0466 10.5317 42.0352 10.5322ZM40.752 10.5283C40.7741 10.5294 40.7962 10.5302 40.8184 10.5312C40.7962 10.5302 40.7741 10.5294 40.752 10.5283ZM42.6621 10.4893C42.6751 10.4881 42.6882 10.4876 42.7012 10.4863C42.6882 10.4876 42.6751 10.4881 42.6621 10.4893ZM40.1357 10.4824C40.1514 10.4839 40.167 10.4858 40.1826 10.4873C40.167 10.4858 40.1514 10.4839 40.1357 10.4824ZM43.293 10.417C43.3028 10.4156 43.3125 10.4135 43.3223 10.4121C43.3125 10.4135 43.3028 10.4156 43.293 10.417ZM39.499 10.4053C39.5176 10.408 39.5361 10.4105 39.5547 10.4131C39.5361 10.4105 39.5176 10.408 39.499 10.4053ZM29.4746 9.72559L31.3008 9.33203C30.9313 8.47154 30.2844 7.76063 29.4746 7.31543V9.72559ZM49.7227 8.70703C49.7034 8.75524 49.6793 8.80126 49.6514 8.84473C49.7073 8.75774 49.7468 8.66005 49.7666 8.55664L49.7227 8.70703ZM32.4639 8.08105C32.4227 8.00958 32.3809 7.93863 32.3369 7.86914C32.3809 7.93863 32.4227 8.00958 32.4639 8.08105ZM49.6367 7.94043H49.6377H49.6367ZM32.3066 7.82422C32.2636 7.75772 32.2204 7.69152 32.1748 7.62695C32.2204 7.69152 32.2636 7.75772 32.3066 7.82422ZM32.1084 7.53613C32.0686 7.48201 32.0279 7.42863 31.9863 7.37598C32.0279 7.42863 32.0686 7.482 32.1084 7.53613ZM31.9189 7.29297C31.8833 7.24953 31.8474 7.20642 31.8105 7.16406C31.8474 7.20642 31.8833 7.24953 31.9189 7.29297ZM31.6875 7.02832C31.666 7.00516 31.6449 6.98178 31.623 6.95898C31.6449 6.98178 31.666 7.00516 31.6875 7.02832ZM31.4805 6.81445C31.4554 6.79003 31.4298 6.76615 31.4043 6.74219C31.4298 6.76616 31.4554 6.79002 31.4805 6.81445ZM31.2637 6.61426C31.2283 6.58314 31.1924 6.5527 31.1562 6.52246C31.1924 6.55271 31.2283 6.58314 31.2637 6.61426ZM31.0615 6.44336C31.0124 6.40403 30.9625 6.36585 30.9121 6.32812C30.9625 6.36585 31.0124 6.40403 31.0615 6.44336ZM30.8135 6.25586C30.7614 6.21853 30.7086 6.18208 30.6553 6.14648C30.7086 6.18208 30.7614 6.21853 30.8135 6.25586ZM30.5654 6.08789C30.5182 6.05764 30.47 6.02888 30.4219 6C30.47 6.02888 30.5182 6.05764 30.5654 6.08789ZM30.2949 5.92383C30.2478 5.8972 30.1993 5.87297 30.1514 5.84766C30.1993 5.87297 30.2478 5.8972 30.2949 5.92383ZM30.0332 5.78516C29.9818 5.75952 29.9293 5.73602 29.877 5.71191C29.9293 5.73602 29.9818 5.75952 30.0332 5.78516ZM29.7549 5.6543C29.6628 5.61448 29.5691 5.57798 29.4746 5.54297C29.569 5.57794 29.6629 5.61453 29.7549 5.6543ZM47.2344 48.4902C47.2304 48.4582 47.2264 48.4263 47.2217 48.3945C47.2264 48.4263 47.2304 48.4582 47.2344 48.4902ZM47.0713 47.7578C47.0578 47.7162 47.044 47.6748 47.0293 47.6338C47.044 47.6748 47.0579 47.7162 47.0713 47.7578ZM47.0049 47.5693C46.9889 47.5271 46.9734 47.4849 46.9561 47.4434C46.9734 47.4849 46.9889 47.5271 47.0049 47.5693ZM46.7754 47.0684C46.75 47.022 46.7244 46.9759 46.6973 46.9307C46.7243 46.9759 46.7501 47.022 46.7754 47.0684ZM44.4688 45.1738C44.4222 45.1595 44.3754 45.1455 44.3281 45.1328C44.3754 45.1455 44.4222 45.1595 44.4688 45.1738ZM40.6719 44.7803C40.6257 44.7104 40.5766 44.6428 40.5264 44.5762C40.5766 44.6428 40.6258 44.7104 40.6719 44.7803ZM40.3369 44.3438C40.2894 44.2897 40.2407 44.2369 40.1904 44.1855C40.2407 44.2369 40.2894 44.2897 40.3369 44.3438ZM32.7217 8.58594C32.6958 8.52865 32.6703 8.47131 32.6426 8.41504C32.6703 8.47131 32.6958 8.52865 32.7217 8.58594ZM32.584 8.30273C32.5554 8.24773 32.5273 8.19262 32.4971 8.13867C32.5273 8.19262 32.5554 8.24773 32.584 8.30273Z" fill="#2563EB"/>
</svg>
