<svg width="56" height="52" viewBox="0 0 56 52" fill="none" xmlns="http://www.w3.org/2000/svg">
<path d="M27.4785 0.00976562C31.2963 0.200666 34.3951 3.14583 34.748 6.89551H45.7207C45.9847 6.89551 46.2469 6.90861 46.5059 6.93457C47.0224 6.98636 47.5247 7.08932 48.0068 7.2373C48.1256 7.27376 48.2449 7.31332 48.3643 7.35645C48.6 7.44164 48.8304 7.53788 49.0547 7.64453C49.3914 7.80463 49.7148 7.98797 50.0215 8.19238C50.4317 8.46591 50.8114 8.77798 51.1582 9.12012C52.5514 10.4949 53.4198 12.4001 53.4199 14.5059V32.6631C54.7872 34.5365 55.6343 36.8089 55.7393 39.2715L55.75 39.792C55.7498 46.4411 50.376 51.8293 43.71 51.9961L43.3916 52C39.4827 51.9999 35.9968 50.2039 33.7324 47.4023H8.44824C4.20899 47.402 0.750175 44.0072 0.75 39.792V14.5059C0.750166 12.4001 1.61654 10.4949 3.00977 9.12012C3.35687 8.7776 3.73778 8.46616 4.14844 8.19238C4.76251 7.78304 5.44023 7.45919 6.16309 7.2373C6.64524 7.0893 7.14756 6.98636 7.66406 6.93457C7.92281 6.90864 8.18448 6.89553 8.44824 6.89551H19.4199C19.7848 3.0176 23.0872 0.000135738 27.084 0L27.4785 0.00976562ZM42.3555 50.9531C42.5818 50.9734 42.81 50.9882 43.04 50.9951L42.6904 50.9785C42.5783 50.9718 42.4667 50.9631 42.3555 50.9531ZM44.5537 32.8955C43.9106 32.8955 43.3889 33.4104 43.3887 34.0449V34.3311C41.6197 34.3321 40.1858 35.7474 40.1855 37.4932C40.1856 39.2397 41.6207 40.6562 43.3906 40.6562C44.1936 40.6563 44.8445 41.2986 44.8447 42.0908C44.8446 42.8832 44.1936 43.5264 43.3906 43.5264V43.2402C43.3905 42.6056 42.8688 42.0908 42.2256 42.0908C41.5826 42.091 41.0617 42.6057 41.0615 43.2402V43.5264C40.5782 43.5264 40.1858 43.9127 40.1855 44.3896C40.1856 44.4895 40.2037 44.5856 40.2354 44.6748C40.3547 45.0117 40.6794 45.2539 41.0615 45.2539V45.5391C41.0615 45.5612 41.0632 45.5836 41.0645 45.6055C41.0666 45.6426 41.0695 45.6797 41.0752 45.7158C41.118 45.9883 41.2581 46.2285 41.459 46.4023C41.6639 46.5798 41.9316 46.6884 42.2256 46.6885C42.5197 46.6885 42.7882 46.5798 42.9932 46.4023C43.1939 46.2285 43.3322 45.9881 43.375 45.7158C43.3807 45.6796 43.3855 45.6427 43.3877 45.6055C43.389 45.5836 43.3906 45.5612 43.3906 45.5391V45.2539C44.0785 45.2539 44.7153 45.0388 45.2373 44.6748C46.0583 44.1022 46.5946 43.1584 46.5947 42.0908C46.5945 40.3548 45.1772 38.9454 43.4219 38.9287C43.4115 38.9283 43.4011 38.9277 43.3906 38.9277C42.5876 38.9277 41.9366 38.2856 41.9365 37.4932C41.9368 36.7016 42.5867 36.0587 43.3887 36.0576V36.3438C43.3887 36.9785 43.9105 37.4931 44.5537 37.4932C45.1968 37.493 45.7178 36.9784 45.7178 36.3438V36.0576H45.7197C46.2032 36.0576 46.5947 35.6714 46.5947 35.1943C46.5944 34.7175 46.203 34.3311 45.7197 34.3311H45.7178V34.0449C45.7175 33.4105 45.1967 32.8957 44.5537 32.8955ZM49.6689 23.2598C47.4439 25.3967 44.4092 26.7137 41.0625 26.7139H32.4062C32.053 29.319 29.796 31.3124 27.0859 31.3125C24.3757 31.3124 22.1187 29.3188 21.7656 26.7139H13.1074C9.76045 26.7137 6.72515 25.3969 4.5 23.2598V39.792C4.50018 41.9237 6.25617 43.6747 8.44922 43.6748H31.6738C31.2595 42.4545 31.0342 41.1487 31.0342 39.792C31.0345 33.0376 36.5794 27.5842 43.3916 27.584C45.6821 27.584 47.8283 28.2019 49.6689 29.2764V23.2598ZM54.1328 36.1416C54.2328 36.4275 54.3209 36.7188 54.3975 37.0146L54.2744 36.5742C54.2302 36.4287 54.1828 36.2845 54.1328 36.1416ZM53.1768 34.1025C53.2536 34.2309 53.3286 34.3606 53.4004 34.4922L53.1768 34.1025C53.0999 33.9742 53.0213 33.8476 52.9395 33.7227L53.1768 34.1025ZM23.8604 28.9092C23.9045 28.9568 23.9499 29.0032 23.9961 29.0488C23.9468 29.0001 23.8985 28.9504 23.8516 28.8994L23.8604 28.9092ZM8.44824 10.623C7.89961 10.6231 7.37977 10.7329 6.9082 10.9297C6.67346 11.0277 6.44862 11.1482 6.2373 11.2891C5.18414 11.9912 4.50021 13.1729 4.5 14.5059C4.5 19.1768 8.34127 22.9861 13.1074 22.9863H21.7656C22.1193 20.3818 24.3763 18.3897 27.0859 18.3896C29.7953 18.3897 32.0525 20.3817 32.4062 22.9863H41.0625C45.8285 22.986 49.6689 19.1767 49.6689 14.5059C49.6687 13.173 48.9857 11.9922 47.9326 11.29C47.7763 11.1858 47.6129 11.0917 47.4434 11.0107L47.2617 10.9297L47.083 10.8604C46.6597 10.7074 46.2012 10.6231 45.7207 10.623H8.44824ZM27.5674 19.416C27.4825 19.4068 27.3969 19.3998 27.3105 19.3955L27.5322 19.4121C27.544 19.4133 27.5557 19.4147 27.5674 19.416ZM6.08984 10.2129C6.06262 10.2275 6.0357 10.2427 6.00879 10.2578C6.10522 10.2037 6.20341 10.1523 6.30371 10.1045L6.08984 10.2129ZM20.3936 7.26953C20.4283 6.59395 20.5658 5.94501 20.791 5.33789C20.716 5.54014 20.6507 5.74706 20.5957 5.95801C20.5681 6.06379 20.5428 6.17056 20.5205 6.27832C20.4313 6.70856 20.3848 7.15409 20.3848 7.61035L20.3936 7.26953ZM27.084 3.72754C25.1419 3.72763 23.5436 5.10069 23.2031 6.89551H30.9639C30.6233 5.1007 29.026 3.72759 27.084 3.72754Z" fill="#2563EB"/>
</svg>
