<svg width="20" height="21" viewBox="0 0 20 21" fill="none" xmlns="http://www.w3.org/2000/svg">
<path d="M10.0005 9.95703C15.2698 9.95729 19.5872 14.028 19.9957 19.1982C20.0768 20.2273 19.2359 20.9996 18.3052 21H1.69586C0.765084 20.9998 -0.0756933 20.2275 0.00542647 19.1982L0.0552312 18.7168C0.68467 13.7773 4.89566 9.95703 10.0005 9.95703ZM10.0005 12.4043C6.45899 12.4043 3.4843 14.8368 2.65093 18.125C2.59514 18.3452 2.76597 18.5526 2.99273 18.5527H17.0074C17.2342 18.5527 17.405 18.3453 17.3492 18.125C16.5158 14.837 13.5419 12.4045 10.0005 12.4043ZM10.2378 0.00585938C12.6751 0.129803 14.6109 2.14867 14.6109 4.61719C14.6108 7.16521 12.5482 9.23409 10.0005 9.23438C7.45258 9.23438 5.39028 7.16533 5.39019 4.61719C5.39019 2.06897 7.45252 0 10.0005 0L10.2378 0.00585938ZM10.0005 2.44727C8.80411 2.44727 7.83355 3.41861 7.83355 4.61719C7.83364 5.81569 8.80417 6.78711 10.0005 6.78711C11.1967 6.78682 12.1665 5.81551 12.1666 4.61719C12.1666 3.41879 11.1967 2.44756 10.0005 2.44727Z" fill="#2563EB"/>
</svg>
