<svg width="75" height="28" viewBox="0 0 75 28" fill="none" xmlns="http://www.w3.org/2000/svg">
<path d="M51.7783 16.0078C52.55 16.0131 53.24 16.1518 53.8467 16.4238C54.4585 16.6905 54.9642 17.0749 55.3633 17.5762C55.7676 18.0774 56.0384 18.6775 56.1768 19.376L54.668 19.6396C54.5881 19.1705 54.4104 18.7675 54.1338 18.4316C53.8625 18.0905 53.5218 17.8297 53.1123 17.6484C52.7025 17.4618 52.2523 17.3657 51.7627 17.3604C51.2944 17.355 50.871 17.4293 50.4932 17.584C50.1155 17.7386 49.8152 17.9552 49.5918 18.2324C49.3684 18.5043 49.2559 18.8186 49.2559 19.1758C49.2559 19.5278 49.3573 19.8136 49.5596 20.0322C49.7617 20.2455 50.0092 20.416 50.3018 20.5439C50.5997 20.6666 50.8899 20.7677 51.1719 20.8477L53.3594 21.4805C53.6094 21.5498 53.8972 21.6449 54.2217 21.7676C54.5516 21.8902 54.8711 22.0641 55.1797 22.2881C55.4882 22.5067 55.7432 22.8002 55.9453 23.168C56.1475 23.5306 56.249 23.9893 56.249 24.5439C56.249 25.0986 56.1376 25.5924 55.9141 26.0244C55.6959 26.4563 55.3898 26.819 54.9961 27.1123C54.6024 27.4002 54.1444 27.6182 53.623 27.7676C53.1015 27.9222 52.5423 28 51.9463 28C51.1321 28 50.3977 27.8613 49.7432 27.584C49.0941 27.3067 48.5565 26.9122 48.1309 26.4004C47.7105 25.8831 47.4363 25.2722 47.3086 24.5684L48.7773 24.3359C48.9636 25.0612 49.3493 25.6294 49.9346 26.04C50.5253 26.4454 51.2203 26.6484 52.0186 26.6484C52.5345 26.6484 53.0001 26.5681 53.415 26.4082C53.8354 26.2429 54.1683 26.0081 54.4131 25.7041C54.6579 25.4001 54.7803 25.04 54.7803 24.624C54.7803 24.368 54.735 24.1491 54.6445 23.9678C54.5594 23.7812 54.4394 23.6241 54.2852 23.4961C54.1362 23.3628 53.966 23.2508 53.7744 23.1602C53.5828 23.0695 53.3833 22.9942 53.1758 22.9355L50.2461 22.0645C49.9269 21.9685 49.6183 21.8481 49.3203 21.7041C49.0223 21.5548 48.7556 21.371 48.5215 21.1523C48.2874 20.9284 48.1012 20.6609 47.9629 20.3516C47.8247 20.0371 47.7559 19.6666 47.7559 19.2402C47.7559 18.5576 47.9311 17.9761 48.2822 17.4961C48.6388 17.0108 49.1209 16.6398 49.7275 16.3838C50.334 16.1279 51.0176 16.0025 51.7783 16.0078ZM65.8096 16.0078C66.5812 16.0131 67.2713 16.1518 67.8779 16.4238C68.4898 16.6905 68.9955 17.0749 69.3945 17.5762C69.7988 18.0774 70.0697 18.6775 70.208 19.376L68.6992 19.6396C68.6194 19.1705 68.4417 18.7675 68.165 18.4316C67.8938 18.0905 67.553 17.8297 67.1436 17.6484C66.7338 17.4618 66.2835 17.3657 65.7939 17.3604C65.3257 17.355 64.9022 17.4293 64.5244 17.584C64.1467 17.7386 63.8465 17.9552 63.623 18.2324C63.3997 18.5043 63.2872 18.8186 63.2871 19.1758C63.2871 19.5278 63.3886 19.8136 63.5908 20.0322C63.793 20.2455 64.0405 20.416 64.333 20.5439C64.6309 20.6666 64.9212 20.7677 65.2031 20.8477L67.3906 21.4805C67.6407 21.5498 67.9284 21.6449 68.2529 21.7676C68.5828 21.8902 68.9023 22.0641 69.2109 22.2881C69.5194 22.5067 69.7744 22.8002 69.9766 23.168C70.1788 23.5306 70.2803 23.9893 70.2803 24.5439C70.2803 25.0986 70.1688 25.5924 69.9453 26.0244C69.7272 26.4563 69.421 26.819 69.0273 27.1123C68.6337 27.4002 68.1756 27.6182 67.6543 27.7676C67.1328 27.9222 66.5736 28 65.9775 28C65.1634 28 64.4289 27.8613 63.7744 27.584C63.1253 27.3067 62.5878 26.9122 62.1621 26.4004C61.7418 25.8831 61.4676 25.2722 61.3398 24.5684L62.8086 24.3359C62.9948 25.0612 63.3805 25.6294 63.9658 26.04C64.5565 26.4454 65.2516 26.6484 66.0498 26.6484C66.5658 26.6484 67.0313 26.5681 67.4463 26.4082C67.8667 26.2429 68.1995 26.0081 68.4443 25.7041C68.6891 25.4001 68.8115 25.04 68.8115 24.624C68.8115 24.368 68.7663 24.1491 68.6758 23.9678C68.5906 23.7812 68.4707 23.6241 68.3164 23.4961C68.1674 23.3628 67.9972 23.2508 67.8057 23.1602C67.6141 23.0695 67.4146 22.9942 67.207 22.9355L64.2773 22.0645C63.9581 21.9685 63.6495 21.8481 63.3516 21.7041C63.0536 21.5548 62.7869 21.371 62.5527 21.1523C62.3186 20.9284 62.1325 20.6609 61.9941 20.3516C61.8559 20.0371 61.7871 19.6666 61.7871 19.2402C61.7871 18.5576 61.9623 17.9761 62.3135 17.4961C62.67 17.0108 63.1521 16.6398 63.7588 16.3838C64.3653 16.1279 65.0489 16.0025 65.8096 16.0078ZM9.6748 27.7598H8.19824L7.29004 25.0645H2.37695L1.47656 27.7598H0L3.84766 16.2402H5.82715L9.6748 27.7598ZM18.5332 25.2402V16.2402H19.9697V27.7598H18.5332L12.5381 18.752V27.7598H11.1016V16.2402H12.5381L18.5332 25.2402ZM31.0811 27.7598H29.6045L28.6963 25.0645H23.7832L22.8828 27.7598H21.4062L25.2539 16.2402H27.2334L31.0811 27.7598ZM34.0908 26.4082H39.4229V27.7598H32.6699V16.2402H34.0908V26.4082ZM42.6543 21.3359L45.584 16.2402H47.2363L43.373 22.9678V27.7598H41.9355V22.9678L38.0645 16.2402H39.7168L42.6543 21.3359ZM59.5049 27.7598H58.084V16.2402H59.5049V27.7598ZM2.82324 23.7275H6.83984L4.82227 17.7383L2.82324 23.7275ZM24.2295 23.7275H28.2461L26.2285 17.7383L24.2295 23.7275ZM5.29199 0.0078125C6.57977 0.0078125 7.61769 0.309494 8.40527 0.912109C9.19287 1.50944 9.73617 2.32816 10.0342 3.36816L8.59668 3.66406C8.35725 2.96556 7.96397 2.40815 7.41602 1.99219C6.8679 1.5762 6.18376 1.36818 5.36426 1.36816C4.50748 1.36283 3.79402 1.555 3.22461 1.94434C2.66069 2.32832 2.23457 2.86983 1.94727 3.56836C1.66002 4.26692 1.51411 5.07754 1.50879 6C1.50347 6.91731 1.64428 7.72269 1.93164 8.41602C2.21898 9.10928 2.64746 9.65319 3.2168 10.0479C3.79153 10.4372 4.50748 10.6343 5.36426 10.6396C6.10393 10.645 6.72688 10.5038 7.23242 10.2158C7.73781 9.92783 8.12861 9.51165 8.40527 8.96777C8.68196 8.42379 8.84967 7.77043 8.9082 7.00781H6.46582V5.83203H10.4092C10.4251 5.93865 10.4326 6.06658 10.4326 6.21582C10.4379 6.35955 10.4414 6.45831 10.4414 6.51172C10.4414 7.56231 10.2443 8.50398 9.85059 9.33594C9.46211 10.1626 8.88448 10.8134 8.11816 11.2881C7.35717 11.7627 6.41485 12 5.29199 12C4.50453 12 3.78586 11.8613 3.13672 11.584C2.48762 11.3067 1.92916 10.9088 1.46094 10.3916C0.992703 9.86897 0.630412 9.23983 0.375 8.50391C0.124919 7.76261 0 6.92794 0 6C2.65712e-06 4.77353 0.218061 3.71231 0.654297 2.81641C1.0906 1.92055 1.70531 1.22946 2.49805 0.744141C3.29088 0.253529 4.2225 0.00786703 5.29199 0.0078125ZM25.46 0C26.6094 1.05089e-05 27.5836 0.25311 28.3818 0.759766C29.18 1.26642 29.7861 1.97082 30.2012 2.87207C30.6163 3.7734 30.8242 4.816 30.8242 6C30.8242 7.184 30.6163 8.2266 30.2012 9.12793C29.7861 10.0292 29.18 10.7336 28.3818 11.2402C27.5836 11.7469 26.6094 12 25.46 12C24.3158 12 23.3441 11.7469 22.5459 11.2402C21.7478 10.7336 21.1391 10.0291 20.7188 9.12793C20.3037 8.2266 20.0957 7.184 20.0957 6C20.0957 4.816 20.3037 3.7734 20.7188 2.87207C21.1391 1.97086 21.7478 1.2664 22.5459 0.759766C23.3441 0.2531 24.3158 0 25.46 0ZM47.3096 0.0078125C48.5973 0.0078125 49.6353 0.309494 50.4229 0.912109C51.2104 1.50944 51.7537 2.32816 52.0518 3.36816L50.6143 3.66406C50.3748 2.96556 49.9815 2.40815 49.4336 1.99219C48.8855 1.5762 48.2013 1.36818 47.3818 1.36816C46.5251 1.36283 45.8116 1.555 45.2422 1.94434C44.6783 2.32832 44.2522 2.86983 43.9648 3.56836C43.6776 4.26692 43.5317 5.07754 43.5264 6C43.521 6.91732 43.6619 7.72269 43.9492 8.41602C44.2366 9.10928 44.665 9.65319 45.2344 10.0479C45.8091 10.4372 46.5251 10.6343 47.3818 10.6396C48.1215 10.645 48.7445 10.5038 49.25 10.2158C49.7554 9.92783 50.1462 9.51165 50.4229 8.96777C50.6995 8.42379 50.8672 7.77043 50.9258 7.00781H48.4834V5.83203H52.4268C52.4427 5.93865 52.4502 6.06658 52.4502 6.21582C52.4555 6.35955 52.459 6.45831 52.459 6.51172C52.459 7.56231 52.2619 8.50398 51.8682 9.33594C51.4797 10.1626 50.9021 10.8134 50.1357 11.2881C49.3748 11.7628 48.4324 12 47.3096 12C46.5221 12 45.8034 11.8613 45.1543 11.584C44.5052 11.3067 43.9467 10.9088 43.4785 10.3916C43.0103 9.86897 42.648 9.23983 42.3926 8.50391C42.1425 7.76261 42.0176 6.92794 42.0176 6C42.0176 4.77353 42.2356 3.71231 42.6719 2.81641C43.1082 1.92055 43.7229 1.22946 44.5156 0.744141C45.3085 0.253528 46.2401 0.0078663 47.3096 0.0078125ZM70.5303 0.0078125C71.3019 0.0131461 71.992 0.151828 72.5986 0.423828C73.2105 0.690489 73.7162 1.07493 74.1152 1.57617C74.5195 2.07742 74.7904 2.67749 74.9287 3.37598L73.4199 3.63965C73.3401 3.17049 73.1624 2.76754 72.8857 2.43164C72.6145 2.09052 72.2737 1.82974 71.8643 1.64844C71.4545 1.46177 71.0042 1.36569 70.5146 1.36035C70.0464 1.35503 69.6229 1.42933 69.2451 1.58398C68.8674 1.73864 68.5672 1.95518 68.3438 2.23242C68.1204 2.50433 68.0079 2.8186 68.0078 3.17578C68.0078 3.52778 68.1093 3.81356 68.3115 4.03223C68.5137 4.24547 68.7612 4.41597 69.0537 4.54395C69.3516 4.66657 69.6419 4.76767 69.9238 4.84766L72.1113 5.48047C72.3614 5.5498 72.6491 5.64495 72.9736 5.76758C73.3035 5.89024 73.623 6.06412 73.9316 6.28809C74.2401 6.5067 74.4951 6.80016 74.6973 7.16797C74.8995 7.53062 75.001 7.9893 75.001 8.54395C75.001 9.09861 74.8895 9.59241 74.666 10.0244C74.4479 10.4563 74.1417 10.819 73.748 11.1123C73.3544 11.4002 72.8963 11.6182 72.375 11.7676C71.8535 11.9222 71.2943 12 70.6982 12C69.8841 12 69.1497 11.8613 68.4951 11.584C67.846 11.3067 67.3085 10.9122 66.8828 10.4004C66.4625 9.88314 66.1883 9.27221 66.0605 8.56836L67.5293 8.33594C67.7155 9.06121 68.1012 9.62938 68.6865 10.04C69.2772 10.4454 69.9723 10.6484 70.7705 10.6484C71.2865 10.6484 71.752 10.5681 72.167 10.4082C72.5874 10.2429 72.9202 10.0081 73.165 9.7041C73.4098 9.40011 73.5322 9.04001 73.5322 8.62402C73.5322 8.36802 73.487 8.14911 73.3965 7.96777C73.3113 7.78118 73.1914 7.62406 73.0371 7.49609C72.8881 7.36278 72.7179 7.25081 72.5264 7.16016C72.3348 7.06949 72.1353 6.99421 71.9277 6.93555L68.998 6.06445C68.6788 5.96847 68.3702 5.84807 68.0723 5.7041C67.7743 5.55477 67.5076 5.37101 67.2734 5.15234C67.0393 4.92836 66.8532 4.66087 66.7148 4.35156C66.5766 4.03705 66.5078 3.66659 66.5078 3.24023C66.5078 2.55765 66.683 1.97606 67.0342 1.49609C67.3907 1.01076 67.8728 0.639789 68.4795 0.383789C69.086 0.127925 69.7696 0.00253111 70.5303 0.0078125ZM19.2988 1.5918H13.4561V5.2002H18.3408V6.55176H13.4561V10.4082H19.2988V11.7598H12.0352V0.240234H19.2988V1.5918ZM37.3691 0.255859C37.5232 0.261196 37.672 0.277114 37.8154 0.303711C38.4381 0.399711 38.9605 0.61367 39.3809 0.944336C39.8064 1.27495 40.1251 1.6937 40.3379 2.2002C40.5508 2.70152 40.6572 3.25874 40.6572 3.87207C40.6572 4.7627 40.4259 5.5364 39.9629 6.19238C39.6397 6.64647 39.21 6.97865 38.6768 7.19629L40.8975 11.7598H39.2686L37.2109 7.50391H33.8486V11.7598H32.4277V0.240234H36.9697C37.0815 0.240234 37.2148 0.245193 37.3691 0.255859ZM61.3164 1.5918H55.4736V5.2002H60.3584V6.55176H55.4736V10.4082H61.3164V11.7598H54.0527V0.240234H61.3164V1.5918ZM25.46 1.36035C24.6032 1.35502 23.8897 1.54622 23.3203 1.93555C22.7562 2.32488 22.3303 2.86969 22.043 3.56836C21.7557 4.26692 21.6098 5.07754 21.6045 6C21.5992 6.91732 21.74 7.72269 22.0273 8.41602C22.3147 9.10929 22.7432 9.65319 23.3125 10.0479C23.8872 10.4372 24.6032 10.6343 25.46 10.6396C26.3167 10.645 27.0302 10.4538 27.5996 10.0645C28.1743 9.66979 28.6027 9.12246 28.8848 8.42383C29.1721 7.72523 29.3154 6.91721 29.3154 6C29.3154 5.07746 29.1721 4.26944 28.8848 3.57617C28.6028 2.88298 28.1742 2.34146 27.5996 1.95215C27.0302 1.56283 26.3167 1.3657 25.46 1.36035ZM33.8486 6.15234H36.9219C37.0229 6.15234 37.1371 6.14638 37.2646 6.13574C37.3977 6.12508 37.5235 6.10674 37.6406 6.08008C38.0076 5.99475 38.3054 5.84006 38.5342 5.61621C38.7682 5.38699 38.9385 5.12022 39.0449 4.81641C39.1513 4.5071 39.2051 4.19204 39.2051 3.87207C39.2051 3.55207 39.1514 3.23955 39.0449 2.93555C38.9385 2.62641 38.7682 2.35715 38.5342 2.12793C38.3054 1.89872 38.0076 1.74407 37.6406 1.66406C37.5235 1.63206 37.3977 1.61373 37.2646 1.6084C37.1371 1.59776 37.0229 1.5918 36.9219 1.5918H33.8486V6.15234ZM64.8809 2.28809C64.8808 2.84798 64.7425 3.26911 64.4658 3.55176C64.1944 3.83442 63.8113 3.93051 63.3164 3.83984L63.4043 3.17578C63.6278 3.19177 63.7955 3.14918 63.9072 3.04785C64.0189 2.94653 64.0911 2.80777 64.123 2.63184C64.1549 2.45589 64.16 2.2611 64.1387 2.04785H63.3164V0.240234H64.8809V2.28809Z" fill="#2563EB"/>
</svg>
