<svg width="18" height="10" viewBox="0 0 18 10" fill="none" xmlns="http://www.w3.org/2000/svg">
<path d="M9.00293 0C9.30835 8.80404e-06 9.61118 0.0130063 9.91016 0.0361328C9.9398 0.0384378 9.96945 0.0404415 9.99902 0.0429688C10.0767 0.049576 10.1543 0.0573011 10.2314 0.0654297C10.2584 0.0682813 10.2856 0.0711836 10.3125 0.0742188C10.399 0.0839497 10.4854 0.0948229 10.5713 0.106445C10.5934 0.109442 10.6157 0.112115 10.6377 0.115234C10.8318 0.142658 11.0243 0.175011 11.2148 0.211914C11.2348 0.215797 11.2554 0.219647 11.2754 0.223633C11.3564 0.239771 11.4373 0.257574 11.5176 0.275391C11.542 0.280822 11.5665 0.286406 11.5908 0.291992C14.0744 0.860286 16.2196 2.2266 17.6895 4.08203C17.8993 4.34711 18 4.67112 18 5C18 5.32888 17.8993 5.65288 17.6895 5.91797C15.9724 8.08554 13.3342 9.58625 10.3105 9.92578C10.2843 9.92876 10.2577 9.93079 10.2314 9.93359C10.1543 9.94172 10.0767 9.94945 9.99902 9.95605C9.96945 9.9586 9.9398 9.96057 9.91016 9.96289C9.61115 9.98602 9.30838 9.99999 9.00293 10L9 9.99902L8.99707 10C8.69127 9.99999 8.38821 9.98607 8.08887 9.96289C8.05922 9.96056 8.02957 9.9586 8 9.95605C7.92237 9.94944 7.84472 9.94173 7.76758 9.93359C7.74135 9.93079 7.71465 9.92875 7.68848 9.92578C4.66527 9.58603 2.0274 8.0853 0.310547 5.91797C0.100681 5.65288 0 5.32888 0 5C9.50769e-10 4.67112 0.10068 4.34712 0.310547 4.08203C1.72307 2.29886 3.75929 0.966908 6.12012 0.361328C6.13336 0.357928 6.1469 0.354919 6.16016 0.351562C6.24245 0.330773 6.32514 0.311006 6.4082 0.291992C6.43259 0.286399 6.45699 0.280829 6.48145 0.275391C6.56177 0.257562 6.64262 0.239782 6.72363 0.223633C6.74343 0.219678 6.76337 0.215767 6.7832 0.211914C6.9739 0.174963 7.16707 0.142694 7.36133 0.115234C7.38332 0.112117 7.4057 0.109441 7.42773 0.106445C7.51358 0.0948191 7.60003 0.0839546 7.68652 0.0742188C7.71338 0.0711844 7.74066 0.0682811 7.76758 0.0654297C7.84471 0.0572972 7.92238 0.0495808 8 0.0429688C8.02958 0.0404399 8.05922 0.038441 8.08887 0.0361328C8.38818 0.0129529 8.6913 8.8143e-06 8.99707 0H9.00293ZM8.7002 2.00391C8.63231 2.00604 8.56455 2.00911 8.49707 2.0127C6.69145 2.10968 5.0359 2.72246 3.69727 3.69434L3.43359 3.89355C3.40456 3.9164 3.37441 3.93872 3.3457 3.96191C2.95543 4.27725 2.59614 4.62496 2.27246 5C2.596 5.37487 2.95563 5.72189 3.3457 6.03711C3.37424 6.06016 3.40473 6.08178 3.43359 6.10449C4.81879 7.19445 6.5783 7.8861 8.50977 7.9873C8.57306 7.99058 8.63654 7.99311 8.7002 7.99512C8.79973 7.99831 8.89963 8.00095 9 8.00098C9.10037 8.00095 9.20027 7.99831 9.2998 7.99512C9.36311 7.99312 9.42631 7.99056 9.48926 7.9873C9.72216 7.97513 9.95308 7.95578 10.1807 7.92676C10.2202 7.92172 10.2594 7.91471 10.2988 7.90918C11.9118 7.68214 13.3763 7.03999 14.5654 6.10449C14.5945 6.08162 14.6256 6.06033 14.6543 6.03711C15.0444 5.72189 15.404 5.37487 15.7275 5C15.4039 4.62496 15.0446 4.27725 14.6543 3.96191C14.6254 3.93856 14.5947 3.91656 14.5654 3.89355C13.5521 3.09661 12.339 2.5113 11.0039 2.21582C10.9881 2.21233 10.9719 2.20848 10.9561 2.20508C10.4851 2.1035 9.99908 2.03934 9.50195 2.0127C9.43483 2.00914 9.36734 2.00603 9.2998 2.00391C9.20028 2.00072 9.10035 1.99808 9 1.99805C8.89965 1.99808 8.79972 2.00072 8.7002 2.00391ZM9 3C10.1046 3 11 3.89543 11 5C11 6.10457 10.1046 7 9 7C7.89543 7 7 6.10457 7 5C7 3.89543 7.89543 3 9 3Z" fill="#2563EB"/>
</svg>
