<svg width="18" height="18" viewBox="0 0 18 18" fill="none" xmlns="http://www.w3.org/2000/svg">
<path d="M6.8914 0C8.79865 0 10.4466 0.67118 11.7791 2.00371C13.1116 3.33623 13.7828 4.98414 13.7828 6.8914C13.7828 7.66448 13.6591 8.40585 13.4068 9.10867C13.1184 9.91253 13.2277 10.6425 13.6042 11.0191L17.4645 14.8793C18.1785 15.5934 18.1785 16.7505 17.4645 17.4645C16.7505 18.1785 15.5934 18.1785 14.8793 17.4645L11.0191 13.6042C10.6425 13.2277 9.91253 13.1184 9.10867 13.4068C8.40585 13.6591 7.66448 13.7828 6.8914 13.7828C4.98414 13.7828 3.33623 13.1116 2.00371 11.7791C0.67118 10.4466 0 8.79865 0 6.8914C0 4.98415 0.67118 3.33624 2.00371 2.00371C3.33624 0.67118 4.98415 0 6.8914 0ZM6.8914 3.67541C5.98375 3.67541 5.24194 3.98249 4.61221 4.61221C3.98249 5.24194 3.67541 5.98375 3.67541 6.8914C3.67541 7.79905 3.98249 8.54087 4.61221 9.17059C5.24194 9.80031 5.98375 10.1074 6.8914 10.1074C7.79905 10.1074 8.54087 9.80031 9.17059 9.17059C9.80031 8.54087 10.1074 7.79905 10.1074 6.8914C10.1074 5.98375 9.80031 5.24194 9.17059 4.61221C8.54087 3.98249 7.79905 3.67541 6.8914 3.67541Z" fill="#64748B"/>
</svg>
