<svg width="19" height="12" viewBox="0 0 19 12" fill="none" xmlns="http://www.w3.org/2000/svg">
<path d="M0.134083 0.500226C0.41019 0.0219954 1.02202 -0.14198 1.50029 0.134017L17.5256 9.38688C18.0039 9.66302 18.168 10.2748 17.8918 10.7531C17.6156 11.2311 17.0038 11.3944 16.5256 11.1183L13.8469 9.57145C12.772 10.0686 11.5969 10.4085 10.3548 10.548C10.3286 10.551 10.3018 10.553 10.2757 10.5558C10.1986 10.5639 10.1208 10.5717 10.0432 10.5783C10.0137 10.5808 9.98394 10.5828 9.95437 10.5851C9.65544 10.6082 9.35252 10.6222 9.04715 10.6222L9.04422 10.6212L9.04129 10.6222C8.73557 10.6222 8.43235 10.6083 8.13308 10.5851C8.10353 10.5828 8.0737 10.5808 8.04422 10.5783C7.96668 10.5717 7.88885 10.5639 7.8118 10.5558C7.78565 10.553 7.75878 10.551 7.7327 10.548C4.70961 10.2082 2.07158 8.70747 0.354785 6.54022C0.145085 6.2752 0.0442393 5.95101 0.0442393 5.62226C0.0443016 5.29348 0.144984 4.9693 0.354785 4.7043C0.896093 4.02097 1.52896 3.40369 2.23662 2.86837L0.500293 1.86643C0.0220198 1.59028 -0.142042 0.978507 0.134083 0.500226ZM4.20243 4.00313C4.04483 4.10273 3.89138 4.20778 3.7415 4.3166L3.47782 4.51582C3.44879 4.53866 3.41864 4.56099 3.38993 4.58418C2.99968 4.8995 2.64037 5.24724 2.31669 5.62226C2.64015 5.99703 2.99998 6.34421 3.38993 6.65936C3.41837 6.68234 3.44905 6.70412 3.47782 6.72674C4.86295 7.81665 6.62263 8.50829 8.55398 8.60954C8.61719 8.61282 8.68084 8.61535 8.74441 8.61735C8.84386 8.62054 8.94393 8.62318 9.04422 8.62321C9.1445 8.62318 9.24456 8.62054 9.34402 8.61735C9.40724 8.61536 9.4706 8.61279 9.53347 8.60954C9.7663 8.59737 9.99736 8.578 10.2249 8.549C10.2644 8.54397 10.3037 8.53694 10.343 8.53142C10.768 8.4716 11.1822 8.38101 11.5842 8.26579L10.0227 7.36346C9.73314 7.52655 9.40025 7.62224 9.04422 7.62224C7.94716 7.62211 7.05708 6.73899 7.0452 5.64472L4.20243 4.00313ZM9.04715 0.622295C9.35247 0.622304 9.65548 0.635314 9.95437 0.658427C9.98392 0.660725 10.0137 0.662747 10.0432 0.665263C10.1208 0.671863 10.1986 0.679606 10.2757 0.687724C10.3025 0.690566 10.3299 0.693489 10.3567 0.696513C10.4431 0.706233 10.5297 0.717131 10.6155 0.728739C10.6375 0.731723 10.66 0.734426 10.6819 0.737528C10.8759 0.764938 11.0686 0.797328 11.2591 0.834207C11.279 0.838071 11.2997 0.841962 11.3196 0.845926C11.4005 0.862044 11.4816 0.879889 11.5618 0.897684C11.5861 0.903093 11.6108 0.908722 11.635 0.914285C14.1185 1.48254 16.2638 2.84903 17.7336 4.7043C17.9435 4.96929 18.0441 5.29348 18.0442 5.62226C18.0442 5.95111 17.9435 6.27515 17.7336 6.54022C17.404 6.9563 17.0395 7.3467 16.6458 7.71013L14.7493 6.61542C15.1193 6.31156 15.4626 5.98039 15.7717 5.62226C15.4481 5.24734 15.0887 4.89943 14.6985 4.58418C14.6697 4.56092 14.6388 4.53874 14.6096 4.51582C13.5963 3.719 12.383 3.13354 11.0481 2.8381C11.0324 2.83463 11.016 2.83074 11.0003 2.82736C10.5294 2.72581 10.0432 2.66162 9.54617 2.63498C9.47913 2.63142 9.41146 2.62831 9.34402 2.62619C9.24458 2.623 9.14448 2.62036 9.04422 2.62033C8.94394 2.62036 8.84385 2.623 8.74441 2.62619C8.67661 2.62832 8.60868 2.6314 8.54129 2.63498C8.34085 2.64575 8.1421 2.66346 7.94559 2.68673L5.39188 1.21311C5.64523 1.12849 5.9026 1.05076 6.16434 0.98362C6.17753 0.980234 6.19117 0.977195 6.20438 0.973855C6.28661 0.95308 6.36942 0.933287 6.45243 0.914285C6.47675 0.908705 6.50127 0.90311 6.52567 0.897684C6.60594 0.879868 6.6869 0.862066 6.76785 0.845926C6.78759 0.841983 6.80765 0.838049 6.82742 0.834207C7.01806 0.797269 7.21136 0.764982 7.40555 0.737528C7.42747 0.734421 7.44998 0.731724 7.47195 0.728739C7.55773 0.717123 7.64432 0.706243 7.73074 0.696513C7.75753 0.693487 7.78495 0.690568 7.8118 0.687724C7.88886 0.679599 7.96667 0.671871 8.04422 0.665263C8.07372 0.662741 8.10351 0.660728 8.13308 0.658427C8.43232 0.635254 8.7356 0.622311 9.04129 0.622295H9.04715Z" fill="#2563EB"/>
</svg>
